B612MonoLigaNerdFont-Italic.ufo
<glyph name="exclam" format="2">
  <advance width="1300"/>
  <unicode hex="0021"/>
  <outline>
    <contour>
      <point x="464" y="1500" type="line"/>
      <point x="275" y="429" type="line"/>
      <point x="479" y="450" type="line"/>
      <point x="664" y="1500" type="line"/>
    </contour>
    <contour>
      <point x="196" y="106" type="curve" smooth="yes"/>
      <point x="196" y="38"/>
      <point x="234" y="-9"/>
      <point x="297" y="-17" type="curve" smooth="yes"/>
      <point x="304" y="-18"/>
      <point x="310" y="-18"/>
      <point x="316" y="-18" type="curve" smooth="yes"/>
      <point x="340" y="-18"/>
      <point x="371" y="-12"/>
      <point x="397" y="11" type="curve" smooth="yes"/>
      <point x="423" y="33"/>
      <point x="438" y="65"/>
      <point x="438" y="101" type="curve" smooth="yes"/>
      <point x="438" y="106" type="line"/>
      <point x="435" y="156"/>
      <point x="403" y="216"/>
      <point x="339" y="227" type="curve"/>
      <point x="334" y="228"/>
      <point x="328" y="228"/>
      <point x="322" y="228" type="curve" smooth="yes"/>
      <point x="301" y="228"/>
      <point x="271" y="221"/>
      <point x="243" y="200" type="curve" smooth="yes"/>
      <point x="215" y="179"/>
      <point x="196" y="146"/>
    </contour>
  </outline>
</glyph>
<glyph name="quotedbl" format="2">
  <advance width="1300"/>
  <unicode hex="0022"/>
  <outline>
    <contour>
      <point x="414" y="1500" type="line"/>
      <point x="396" y="1400" type="line"/>
      <point x="388" y="1349"/>
      <point x="385" y="1268"/>
      <point x="382" y="1196" type="curve"/>
      <point x="382" y="1133" type="line"/>
      <point x="382" y="1067" type="line"/>
      <point x="469" y="1067" type="line"/>
      <point x="484" y="1112"/>
      <point x="499" y="1155"/>
      <point x="513" y="1196" type="curve" smooth="yes"/>
      <point x="537" y="1268"/>
      <point x="563" y="1349"/>
      <point x="571" y="1400" type="curve"/>
      <point x="589" y="1500" type="line"/>
    </contour>
    <contour>
      <point x="715" y="1500" type="line"/>
      <point x="697" y="1400" type="line"/>
      <point x="689" y="1349"/>
      <point x="686" y="1268"/>
      <point x="683" y="1196" type="curve"/>
      <point x="683" y="1133" type="line"/>
      <point x="683" y="1067" type="line"/>
      <point x="770" y="1067" type="line"/>
      <point x="785" y="1112"/>
      <point x="800" y="1155"/>
      <point x="814" y="1196" type="curve" smooth="yes"/>
      <point x="838" y="1268"/>
      <point x="864" y="1349"/>
      <point x="872" y="1400" type="curve"/>
      <point x="890" y="1500" type="line"/>
    </contour>
  </outline>
</glyph>
<glyph name="percent" format="2">
  <advance width="1300"/>
  <unicode hex="0025"/>
  <outline>
    <contour>
      <point x="327" y="800" type="curve" smooth="yes"/>
      <point x="519" y="800"/>
      <point x="611" y="956"/>
      <point x="649" y="1162" type="curve"/>
      <point x="656" y="1205"/>
      <point x="660" y="1245"/>
      <point x="660" y="1282" type="curve" smooth="yes"/>
      <point x="660" y="1297"/>
      <point x="665" y="1353"/>
      <point x="635" y="1416" type="curve" smooth="yes"/>
      <point x="605" y="1479"/>
      <point x="547" y="1517"/>
      <point x="454" y="1517" type="curve" smooth="yes"/>
      <point x="261" y="1517"/>
      <point x="167" y="1366"/>
      <point x="132" y="1162" type="curve" smooth="yes"/>
      <point x="124" y="1119"/>
      <point x="120" y="1078"/>
      <point x="120" y="1039" type="curve" smooth="yes"/>
      <point x="120" y="1026"/>
      <point x="116" y="968"/>
      <point x="146" y="904" type="curve" smooth="yes"/>
      <point x="176" y="839"/>
      <point x="234" y="800"/>
    </contour>
    <contour>
      <point x="1213" y="1500" type="line"/>
      <point x="1027" y="1500" type="line"/>
      <point x="86" y="0" type="line"/>
      <point x="272" y="0" type="line"/>
    </contour>
    <contour>
      <point x="490" y="1105" type="line" smooth="yes"/>
      <point x="474" y="1019"/>
      <point x="455" y="944"/>
      <point x="357" y="944" type="curve" smooth="yes"/>
      <point x="279" y="944"/>
      <point x="267" y="995"/>
      <point x="267" y="1036" type="curve" smooth="yes"/>
      <point x="267" y="1048"/>
      <point x="269" y="1075"/>
      <point x="277" y="1123" type="curve" smooth="yes"/>
      <point x="295" y="1224" type="line" smooth="yes"/>
      <point x="311" y="1312"/>
      <point x="331" y="1386"/>
      <point x="430" y="1386" type="curve" smooth="yes"/>
      <point x="508" y="1386"/>
      <point x="518" y="1336"/>
      <point x="518" y="1294" type="curve" smooth="yes"/>
      <point x="518" y="1283"/>
      <point x="517" y="1257"/>
      <point x="509" y="1210" type="curve" smooth="yes"/>
    </contour>
    <contour>
      <point x="846" y="-17" type="curve" smooth="yes"/>
      <point x="1038" y="-17"/>
      <point x="1130" y="139"/>
      <point x="1168" y="345" type="curve"/>
      <point x="1175" y="388"/>
      <point x="1179" y="428"/>
      <point x="1179" y="465" type="curve" smooth="yes"/>
      <point x="1179" y="480"/>
      <point x="1184" y="536"/>
      <point x="1154" y="599" type="curve" smooth="yes"/>
      <point x="1124" y="662"/>
      <point x="1066" y="700"/>
      <point x="973" y="700" type="curve" smooth="yes"/>
      <point x="780" y="700"/>
      <point x="686" y="549"/>
      <point x="651" y="345" type="curve" smooth="yes"/>
      <point x="643" y="302"/>
      <point x="639" y="261"/>
      <point x="639" y="222" type="curve" smooth="yes"/>
      <point x="639" y="209"/>
      <point x="635" y="151"/>
      <point x="665" y="87" type="curve" smooth="yes"/>
      <point x="695" y="22"/>
      <point x="753" y="-17"/>
    </contour>
    <contour>
      <point x="1009" y="288" type="line" smooth="yes"/>
      <point x="993" y="202"/>
      <point x="974" y="127"/>
      <point x="876" y="127" type="curve" smooth="yes"/>
      <point x="798" y="127"/>
      <point x="786" y="178"/>
      <point x="786" y="219" type="curve" smooth="yes"/>
      <point x="786" y="231"/>
      <point x="788" y="258"/>
      <point x="796" y="306" type="curve" smooth="yes"/>
      <point x="814" y="407" type="line" smooth="yes"/>
      <point x="830" y="495"/>
      <point x="850" y="569"/>
      <point x="949" y="569" type="curve" smooth="yes"/>
      <point x="1027" y="569"/>
      <point x="1037" y="519"/>
      <point x="1037" y="477" type="curve" smooth="yes"/>
      <point x="1037" y="466"/>
      <point x="1036" y="440"/>
      <point x="1028" y="393" type="curve" smooth="yes"/>
    </contour>
  </outline>
</glyph>
<glyph name="parenleft" format="2">
  <advance width="1300"/>
  <unicode hex="0028"/>
  <outline>
    <contour>
      <point x="200" y="0" type="line" smooth="yes"/>
      <point x="188" y="-65"/>
      <point x="180" y="-126"/>
      <point x="180" y="-175" type="curve" smooth="yes"/>
      <point x="180" y="-187"/>
      <point x="178" y="-225"/>
      <point x="194" y="-278" type="curve" smooth="yes"/>
      <point x="216" y="-356"/>
      <point x="282" y="-410"/>
      <point x="419" y="-420" type="curve"/>
      <point x="426" y="-421"/>
      <point x="434" y="-421"/>
      <point x="441" y="-421" type="curve" smooth="yes"/>
      <point x="463" y="-421"/>
      <point x="534" y="-411"/>
      <point x="563" y="-395" type="curve"/>
      <point x="516" y="-269" type="line"/>
      <point x="502" y="-272" type="line"/>
      <point x="491" y="-273"/>
      <point x="480" y="-274"/>
      <point x="465" y="-274" type="curve" smooth="yes"/>
      <point x="358" y="-274"/>
      <point x="366" y="-193"/>
      <point x="366" y="-177" type="curve" smooth="yes"/>
      <point x="366" y="-138"/>
      <point x="379" y="-83"/>
      <point x="391" y="-14" type="curve" smooth="yes"/>
      <point x="604" y="1194" type="line" smooth="yes"/>
      <point x="628" y="1333"/>
      <point x="625" y="1454"/>
      <point x="770" y="1454" type="curve" smooth="yes"/>
      <point x="785" y="1454"/>
      <point x="797" y="1452"/>
      <point x="805" y="1451" type="curve" smooth="yes"/>
      <point x="819" y="1449" type="line"/>
      <point x="910" y="1575" type="line"/>
      <point x="888" y="1591"/>
      <point x="827" y="1600"/>
      <point x="776" y="1600" type="curve" smooth="yes"/>
      <point x="516" y="1600"/>
      <point x="464" y="1501"/>
      <point x="408" y="1180" type="curve" smooth="yes"/>
    </contour>
  </outline>
</glyph>
<glyph name="parenright" format="2">
  <advance width="1300"/>
  <unicode hex="0029"/>
  <outline>
    <contour>
      <point x="858" y="1180" type="line" smooth="yes"/>
      <point x="878" y="1293"/>
      <point x="876" y="1346"/>
      <point x="876" y="1357" type="curve" smooth="yes"/>
      <point x="876" y="1489"/>
      <point x="825" y="1600"/>
      <point x="638" y="1600" type="curve" smooth="yes"/>
      <point x="585" y="1600"/>
      <point x="521" y="1591"/>
      <point x="494" y="1575" type="curve"/>
      <point x="541" y="1449" type="line"/>
      <point x="555" y="1451" type="line"/>
      <point x="566" y="1452"/>
      <point x="575" y="1454"/>
      <point x="584" y="1454" type="curve" smooth="yes"/>
      <point x="592" y="1454" type="line"/>
      <point x="685" y="1450"/>
      <point x="685" y="1374"/>
      <point x="685" y="1341" type="curve" smooth="yes"/>
      <point x="685" y="1312"/>
      <point x="678" y="1263"/>
      <point x="666" y="1194" type="curve" smooth="yes"/>
      <point x="453" y="-14" type="line" smooth="yes"/>
      <point x="429" y="-152"/>
      <point x="423" y="-274"/>
      <point x="287" y="-274" type="curve" smooth="yes"/>
      <point x="272" y="-274"/>
      <point x="260" y="-273"/>
      <point x="252" y="-272" type="curve"/>
      <point x="238" y="-269" type="line"/>
      <point x="147" y="-395" type="line"/>
      <point x="168" y="-411"/>
      <point x="230" y="-420"/>
      <point x="281" y="-420" type="curve" smooth="yes"/>
      <point x="292" y="-420" type="line" smooth="yes"/>
      <point x="430" y="-420"/>
      <point x="515" y="-384"/>
      <point x="563" y="-312" type="curve" smooth="yes"/>
      <point x="610" y="-239"/>
      <point x="626" y="-135"/>
      <point x="650" y="0" type="curve" smooth="yes"/>
    </contour>
  </outline>
</glyph>
<glyph name="asterisk" format="2">
  <advance width="1300"/>
  <unicode hex="002A"/>
  <outline>
    <contour>
      <point x="650" y="1037" type="line"/>
      <point x="730" y="1040" type="line"/>
      <point x="986" y="1118" type="line"/>
      <point x="953" y="1240" type="line"/>
      <point x="715" y="1168" type="line"/>
      <point x="641" y="1118" type="line"/>
      <point x="681" y="1198" type="line"/>
      <point x="725" y="1450" type="line"/>
      <point x="590" y="1436" type="line"/>
      <point x="548" y="1202" type="line"/>
      <point x="556" y="1120" type="line"/>
      <point x="499" y="1172" type="line"/>
      <point x="275" y="1249" type="line"/>
      <point x="225" y="1118" type="line"/>
      <point x="435" y="1045" type="line"/>
      <point x="515" y="1041" type="line"/>
      <point x="442" y="996" type="line"/>
      <point x="258" y="793" type="line"/>
      <point x="363" y="726" type="line"/>
      <point x="536" y="918" type="line"/>
      <point x="573" y="990" type="line"/>
      <point x="584" y="918" type="line"/>
      <point x="697" y="712" type="line"/>
      <point x="812" y="802" type="line"/>
      <point x="706" y="994" type="line"/>
    </contour>
  </outline>
</glyph>
<glyph name="comma" format="2">
  <advance width="1300"/>
  <unicode hex="002C"/>
  <outline>
    <contour>
      <point x="392" y="127" type="curve" smooth="yes"/>
      <point x="390" y="116"/>
      <point x="389" y="106"/>
      <point x="389" y="96" type="curve" smooth="yes"/>
      <point x="389" y="75"/>
      <point x="394" y="45"/>
      <point x="415" y="22" type="curve"/>
      <point x="435" y="-2"/>
      <point x="467" y="-16"/>
      <point x="500" y="-17" type="curve"/>
      <point x="489" y="-76"/>
      <point x="458" y="-141"/>
      <point x="429" y="-193" type="curve" smooth="yes"/>
      <point x="411" y="-224"/>
      <point x="392" y="-255"/>
      <point x="372" y="-284" type="curve"/>
      <point x="420" y="-307" type="line"/>
      <point x="612" y="-155"/>
      <point x="662" y="-28"/>
      <point x="685" y="110" type="curve"/>
      <point x="688" y="123"/>
      <point x="689" y="136"/>
      <point x="689" y="147" type="curve" smooth="yes"/>
      <point x="689" y="170"/>
      <point x="684" y="203"/>
      <point x="661" y="230" type="curve" smooth="yes"/>
      <point x="638" y="257"/>
      <point x="604" y="271"/>
      <point x="565" y="271" type="curve" smooth="yes"/>
      <point x="485" y="271"/>
      <point x="405" y="205"/>
    </contour>
  </outline>
</glyph>
<glyph name="period" format="2">
  <advance width="1300"/>
  <unicode hex="002E"/>
  <outline>
    <contour>
      <point x="380" y="150" type="curve" smooth="yes"/>
      <point x="378" y="140"/>
      <point x="377" y="130"/>
      <point x="377" y="120" type="curve" smooth="yes"/>
      <point x="377" y="96"/>
      <point x="383" y="63"/>
      <point x="408" y="33" type="curve" smooth="yes"/>
      <point x="432" y="3"/>
      <point x="471" y="-17"/>
      <point x="516" y="-17" type="curve" smooth="yes"/>
      <point x="606" y="-17"/>
      <point x="693" y="59"/>
      <point x="709" y="150" type="curve" smooth="yes"/>
      <point x="711" y="160"/>
      <point x="712" y="169"/>
      <point x="712" y="178" type="curve" smooth="yes"/>
      <point x="712" y="203"/>
      <point x="705" y="237"/>
      <point x="681" y="267" type="curve" smooth="yes"/>
      <point x="656" y="297"/>
      <point x="618" y="315"/>
      <point x="573" y="315" type="curve" smooth="yes"/>
      <point x="482" y="315"/>
      <point x="396" y="241"/>
    </contour>
  </outline>
</glyph>
<glyph name="slash" format="2">
  <advance width="1300"/>
  <unicode hex="002F"/>
  <outline>
    <contour>
      <point x="1257" y="1600" type="line"/>
      <point x="1057" y="1600" type="line"/>
      <point x="47" y="-100" type="line"/>
      <point x="257" y="-100" type="line"/>
    </contour>
  </outline>
</glyph>
<glyph name="one" format="2">
  <advance width="1300"/>
  <unicode hex="0031"/>
  <outline>
    <contour>
      <point x="958" y="0" type="line"/>
      <point x="986" y="160" type="line"/>
      <point x="741" y="160" type="line"/>
      <point x="977" y="1500" type="line"/>
      <point x="841" y="1520" type="line"/>
      <point x="308" y="1100" type="line"/>
      <point x="395" y="979" type="line"/>
      <point x="640" y="1167" type="line"/>
      <point x="809" y="1353" type="line"/>
      <point x="711" y="1126" type="line"/>
      <point x="541" y="160" type="line"/>
      <point x="296" y="160" type="line"/>
      <point x="268" y="0" type="line"/>
    </contour>
  </outline>
</glyph>
<glyph name="two" format="2">
  <advance width="1300"/>
  <unicode hex="0032"/>
  <outline>
    <contour>
      <point x="975" y="0" type="line"/>
      <point x="1003" y="160" type="line"/>
      <point x="333" y="160" type="line"/>
      <point x="427" y="307"/>
      <point x="580" y="434"/>
      <point x="772" y="607" type="curve" smooth="yes"/>
      <point x="923" y="742"/>
      <point x="1132" y="893"/>
      <point x="1143" y="1104" type="curve"/>
      <point x="1143" y="1112"/>
      <point x="1144" y="1120"/>
      <point x="1144" y="1128" type="curve" smooth="yes"/>
      <point x="1144" y="1315"/>
      <point x="1034" y="1500"/>
      <point x="791" y="1516" type="curve"/>
      <point x="784" y="1517"/>
      <point x="778" y="1517"/>
      <point x="772" y="1517" type="curve" smooth="yes"/>
      <point x="770" y="1517" type="line"/>
      <point x="769" y="1517" type="line"/>
      <point x="768" y="1517" type="line"/>
      <point x="767" y="1517" type="line"/>
      <point x="766" y="1517" type="line"/>
      <point x="764" y="1517" type="line"/>
      <point x="763" y="1517" type="line"/>
      <point x="762" y="1517" type="line"/>
      <point x="754" y="1517" type="line"/>
      <point x="754" y="1517" type="line"/>
      <point x="752" y="1517" type="line" smooth="yes"/>
      <point x="547" y="1517"/>
      <point x="384" y="1409"/>
      <point x="296" y="1220" type="curve"/>
      <point x="426" y="1160" type="line"/>
      <point x="482" y="1256"/>
      <point x="572" y="1352"/>
      <point x="699" y="1352" type="curve" smooth="yes"/>
      <point x="893" y="1352"/>
      <point x="963" y="1268"/>
      <point x="963" y="1123" type="curve" smooth="yes"/>
      <point x="963" y="982"/>
      <point x="825" y="867"/>
      <point x="665" y="739" type="curve" smooth="yes"/>
      <point x="486" y="594"/>
      <point x="284" y="429"/>
      <point x="100" y="168" type="curve"/>
      <point x="71" y="0" type="line"/>
    </contour>
  </outline>
</glyph>
<glyph name="three" format="2">
  <advance width="1300"/>
  <unicode hex="0033"/>
  <outline>
    <contour>
      <point x="787" y="1340" type="line"/>
      <point x="946" y="1380" type="line"/>
      <point x="897" y="1290"/>
      <point x="585" y="1061"/>
      <point x="400" y="940" type="curve"/>
      <point x="373" y="786" type="line"/>
      <point x="429" y="790"/>
      <point x="486" y="791"/>
      <point x="546" y="791" type="curve" smooth="yes"/>
      <point x="734" y="791"/>
      <point x="863" y="712"/>
      <point x="863" y="543" type="curve" smooth="yes"/>
      <point x="863" y="301"/>
      <point x="463" y="164"/>
      <point x="148" y="160" type="curve"/>
      <point x="120" y="0" type="line"/>
      <point x="550" y="0"/>
      <point x="1068" y="148"/>
      <point x="1068" y="597" type="curve" smooth="yes"/>
      <point x="1068" y="809"/>
      <point x="881" y="948"/>
      <point x="702" y="948" type="curve" smooth="yes"/>
      <point x="631" y="948" type="line"/>
      <point x="776" y="1019" type="line"/>
      <point x="917" y="1123"/>
      <point x="1069" y="1254"/>
      <point x="1119" y="1360" type="curve"/>
      <point x="1144" y="1500" type="line"/>
      <point x="414" y="1500" type="line"/>
      <point x="371" y="1340" type="line"/>
    </contour>
  </outline>
</glyph>
<glyph name="four" format="2">
  <advance width="1300"/>
  <unicode hex="0034"/>
  <outline>
    <contour>
      <point x="1151" y="460" type="line"/>
      <point x="956" y="460" type="line"/>
      <point x="1024" y="850" type="line"/>
      <point x="827" y="867" type="line"/>
      <point x="756" y="460" type="line"/>
      <point x="326" y="460" type="line"/>
      <point x="443" y="600" type="line"/>
      <point x="1017" y="1500" type="line"/>
      <point x="832" y="1520" type="line"/>
      <point x="163" y="471" type="line"/>
      <point x="132" y="300" type="line"/>
      <point x="727" y="300" type="line"/>
      <point x="675" y="0" type="line"/>
      <point x="875" y="0" type="line"/>
      <point x="927" y="300" type="line"/>
      <point x="1107" y="300" type="line"/>
    </contour>
  </outline>
</glyph>
<glyph name="five" format="2">
  <advance width="1300"/>
  <unicode hex="0035"/>
  <outline>
    <contour>
      <point x="555" y="1340" type="line"/>
      <point x="1100" y="1340" type="line"/>
      <point x="1128" y="1500" type="line"/>
      <point x="385" y="1500" type="line"/>
      <point x="262" y="800" type="line"/>
      <point x="376" y="800" type="line"/>
      <point x="439" y="843"/>
      <point x="509" y="866"/>
      <point x="618" y="866" type="curve" smooth="yes"/>
      <point x="766" y="866"/>
      <point x="861" y="749"/>
      <point x="861" y="619" type="curve" smooth="yes"/>
      <point x="861" y="345"/>
      <point x="533" y="160"/>
      <point x="149" y="160" type="curve"/>
      <point x="121" y="0" type="line"/>
      <point x="585" y="0"/>
      <point x="1060" y="193"/>
      <point x="1060" y="655" type="curve" smooth="yes"/>
      <point x="1060" y="871"/>
      <point x="941" y="1035"/>
      <point x="666" y="1035" type="curve" smooth="yes"/>
      <point x="612" y="1035"/>
      <point x="553" y="1012"/>
      <point x="518" y="995" type="curve"/>
      <point x="517" y="995"/>
      <point x="517" y="995"/>
      <point x="517" y="994" type="curve"/>
      <point x="516" y="994" type="line"/>
      <point x="515" y="993"/>
      <point x="515" y="993"/>
      <point x="514" y="993" type="curve"/>
      <point x="511" y="992" type="line" smooth="yes"/>
      <point x="509" y="991"/>
      <point x="507" y="989"/>
      <point x="504" y="988" type="curve"/>
      <point x="503" y="988" type="line"/>
      <point x="502" y="987" type="line"/>
      <point x="502" y="987" type="line"/>
      <point x="501" y="986" type="line"/>
      <point x="499" y="985"/>
      <point x="497" y="985"/>
      <point x="496" y="984" type="curve"/>
      <point x="494" y="983" type="line"/>
      <point x="493" y="983" type="line"/>
      <point x="493" y="982" type="line"/>
      <point x="492" y="982" type="line"/>
    </contour>
  </outline>
</glyph>
<glyph name="six" format="2">
  <advance width="1300"/>
  <unicode hex="0036"/>
  <outline>
    <contour>
      <point x="1120" y="1514" type="line"/>
      <point x="1108" y="1517"/>
      <point x="1080" y="1517"/>
      <point x="1060" y="1517" type="curve" smooth="yes"/>
      <point x="528" y="1517"/>
      <point x="135" y="1042"/>
      <point x="135" y="530" type="curve" smooth="yes"/>
      <point x="135" y="304"/>
      <point x="210" y="7"/>
      <point x="523" y="-17" type="curve" smooth="yes"/>
      <point x="538" y="-18"/>
      <point x="550" y="-19"/>
      <point x="565" y="-19" type="curve" smooth="yes"/>
      <point x="865" y="-19"/>
      <point x="1110" y="242"/>
      <point x="1110" y="541" type="curve" smooth="yes"/>
      <point x="1110" y="815"/>
      <point x="951" y="928"/>
      <point x="722" y="928" type="curve" smooth="yes"/>
      <point x="634" y="928"/>
      <point x="521" y="887"/>
      <point x="452" y="847" type="curve"/>
      <point x="348" y="730" type="line"/>
      <point x="440" y="1062"/>
      <point x="670" y="1347"/>
      <point x="1021" y="1347" type="curve" smooth="yes"/>
      <point x="1036" y="1347"/>
      <point x="1057" y="1347"/>
      <point x="1065" y="1344" type="curve"/>
    </contour>
    <contour>
      <point x="328" y="597" type="curve"/>
      <point x="408" y="705"/>
      <point x="520" y="759"/>
      <point x="651" y="759" type="curve" smooth="yes"/>
      <point x="787" y="759"/>
      <point x="911" y="690"/>
      <point x="911" y="530" type="curve" smooth="yes"/>
      <point x="911" y="311"/>
      <point x="764" y="150"/>
      <point x="596" y="150" type="curve" smooth="yes"/>
      <point x="583" y="150"/>
      <point x="569" y="151"/>
      <point x="555" y="153" type="curve" smooth="yes"/>
      <point x="400" y="174"/>
      <point x="319" y="302"/>
      <point x="319" y="469" type="curve" smooth="yes"/>
      <point x="319" y="509"/>
      <point x="319" y="546"/>
    </contour>
  </outline>
</glyph>
<glyph name="seven" format="2">
  <advance width="1300"/>
  <unicode hex="0037"/>
  <outline>
    <contour>
      <point x="236" y="1340" type="line"/>
      <point x="915" y="1340" type="line"/>
      <point x="867" y="1219"/>
      <point x="431" y="829"/>
      <point x="291" y="392" type="curve" smooth="yes"/>
      <point x="256" y="285"/>
      <point x="213" y="80"/>
      <point x="200" y="0" type="curve"/>
      <point x="398" y="0" type="line"/>
      <point x="414" y="91"/>
      <point x="439" y="219"/>
      <point x="469" y="329" type="curve" smooth="yes"/>
      <point x="589" y="773"/>
      <point x="1102" y="1203"/>
      <point x="1134" y="1370" type="curve"/>
      <point x="1157" y="1500" type="line"/>
      <point x="264" y="1500" type="line"/>
    </contour>
  </outline>
</glyph>
<glyph name="nine" format="2">
  <advance width="1300"/>
  <unicode hex="0039"/>
  <outline>
    <contour>
      <point x="915" y="780" type="line"/>
      <point x="854" y="401"/>
      <point x="533" y="158"/>
      <point x="200" y="150" type="curve"/>
      <point x="200" y="-17" type="line"/>
      <point x="736" y="-17"/>
      <point x="1126" y="444"/>
      <point x="1126" y="1011" type="curve" smooth="yes"/>
      <point x="1126" y="1256"/>
      <point x="1040" y="1517"/>
      <point x="680" y="1517" type="curve" smooth="yes"/>
      <point x="405" y="1517"/>
      <point x="170" y="1307"/>
      <point x="170" y="1008" type="curve" smooth="yes"/>
      <point x="170" y="731"/>
      <point x="325" y="573"/>
      <point x="560" y="573" type="curve" smooth="yes"/>
      <point x="655" y="573"/>
      <point x="728" y="604"/>
      <point x="814" y="663" type="curve"/>
    </contour>
    <contour>
      <point x="934" y="953" type="curve"/>
      <point x="875" y="830"/>
      <point x="747" y="741"/>
      <point x="616" y="741" type="curve" smooth="yes"/>
      <point x="445" y="741"/>
      <point x="364" y="841"/>
      <point x="364" y="990" type="curve" smooth="yes"/>
      <point x="364" y="1186"/>
      <point x="478" y="1349"/>
      <point x="679" y="1349" type="curve" smooth="yes"/>
      <point x="875" y="1349"/>
      <point x="935" y="1196"/>
      <point x="935" y="1004" type="curve"/>
      <point x="935" y="1003" type="line"/>
      <point x="935" y="1002" type="line"/>
      <point x="935" y="999" type="line"/>
      <point x="935" y="998" type="line"/>
      <point x="935" y="997" type="line"/>
      <point x="935" y="996" type="line"/>
      <point x="935" y="996" type="line"/>
      <point x="935" y="994" type="line"/>
      <point x="935" y="993" type="line"/>
      <point x="935" y="992" type="line"/>
      <point x="935" y="989" type="line"/>
      <point x="935" y="982" type="line"/>
      <point x="935" y="982" type="line"/>
      <point x="935" y="981" type="line"/>
      <point x="935" y="981" type="line"/>
      <point x="935" y="980" type="line"/>
      <point x="935" y="979" type="line"/>
      <point x="935" y="970"/>
      <point x="935" y="962"/>
    </contour>
  </outline>
</glyph>
<glyph name="semicolon" format="2">
  <advance width="1300"/>
  <unicode hex="003B"/>
  <outline>
    <contour>
      <point x="483" y="641" type="curve"/>
      <point x="482" y="632"/>
      <point x="481" y="624"/>
      <point x="481" y="616" type="curve" smooth="yes"/>
      <point x="481" y="593"/>
      <point x="487" y="562"/>
      <point x="509" y="535" type="curve" smooth="yes"/>
      <point x="531" y="508"/>
      <point x="566" y="491"/>
      <point x="607" y="491" type="curve" smooth="yes"/>
      <point x="686" y="491"/>
      <point x="766" y="558"/>
      <point x="779" y="641" type="curve"/>
      <point x="780" y="650"/>
      <point x="781" y="658"/>
      <point x="781" y="667" type="curve" smooth="yes"/>
      <point x="781" y="690"/>
      <point x="777" y="719"/>
      <point x="755" y="746" type="curve" smooth="yes"/>
      <point x="733" y="773"/>
      <point x="698" y="789"/>
      <point x="657" y="789" type="curve" smooth="yes"/>
      <point x="577" y="789"/>
      <point x="496" y="724"/>
    </contour>
    <contour>
      <point x="392" y="127" type="curve" smooth="yes"/>
      <point x="390" y="116"/>
      <point x="389" y="106"/>
      <point x="389" y="96" type="curve" smooth="yes"/>
      <point x="389" y="75"/>
      <point x="394" y="45"/>
      <point x="415" y="22" type="curve" smooth="yes"/>
      <point x="436" y="-2"/>
      <point x="467" y="-16"/>
      <point x="500" y="-17" type="curve"/>
      <point x="489" y="-76"/>
      <point x="458" y="-141"/>
      <point x="429" y="-193" type="curve" smooth="yes"/>
      <point x="412" y="-224"/>
      <point x="393" y="-255"/>
      <point x="372" y="-284" type="curve"/>
      <point x="420" y="-307" type="line"/>
      <point x="614" y="-154"/>
      <point x="661" y="-29"/>
      <point x="685" y="110" type="curve"/>
      <point x="688" y="123"/>
      <point x="689" y="136"/>
      <point x="689" y="147" type="curve" smooth="yes"/>
      <point x="689" y="170"/>
      <point x="684" y="203"/>
      <point x="661" y="230" type="curve" smooth="yes"/>
      <point x="638" y="257"/>
      <point x="605" y="271"/>
      <point x="566" y="271" type="curve" smooth="yes"/>
      <point x="484" y="271"/>
      <point x="408" y="204"/>
    </contour>
  </outline>
</glyph>
<glyph name="less" format="2">
  <advance width="1300"/>
  <unicode hex="003C"/>
  <outline>
    <contour>
      <point x="129" y="733" type="line"/>
      <point x="92" y="524" type="line"/>
      <point x="909" y="67" type="line"/>
      <point x="940" y="242" type="line"/>
      <point x="316" y="606" type="line"/>
      <point x="243" y="626" type="line"/>
      <point x="324" y="646" type="line"/>
      <point x="1076" y="1012" type="line"/>
      <point x="1107" y="1187" type="line"/>
    </contour>
  </outline>
</glyph>
<glyph name="equal" format="2">
  <advance width="1300"/>
  <unicode hex="003D"/>
  <outline>
    <contour>
      <point x="313" y="645" type="line"/>
      <point x="1013" y="645" type="line"/>
      <point x="1041" y="800" type="line"/>
      <point x="341" y="800" type="line"/>
    </contour>
    <contour>
      <point x="243" y="245" type="line"/>
      <point x="943" y="245" type="line"/>
      <point x="970" y="400" type="line"/>
      <point x="270" y="400" type="line"/>
    </contour>
  </outline>
</glyph>
<glyph name="question" format="2">
  <advance width="1300"/>
  <unicode hex="003F"/>
  <outline>
    <contour>
      <point x="727" y="1517" type="curve" smooth="yes"/>
      <point x="550" y="1517"/>
      <point x="366" y="1467"/>
      <point x="236" y="1300" type="curve"/>
      <point x="349" y="1190" type="line"/>
      <point x="458" y="1313"/>
      <point x="542" y="1351"/>
      <point x="673" y="1351" type="curve" smooth="yes"/>
      <point x="804" y="1351"/>
      <point x="897" y="1297"/>
      <point x="897" y="1173" type="curve" smooth="yes"/>
      <point x="897" y="884"/>
      <point x="418" y="913"/>
      <point x="370" y="429" type="curve"/>
      <point x="584" y="450" type="line"/>
      <point x="627" y="813"/>
      <point x="1106" y="800"/>
      <point x="1106" y="1176" type="curve" smooth="yes"/>
      <point x="1106" y="1385"/>
      <point x="963" y="1517"/>
    </contour>
    <contour>
      <point x="297" y="105" type="curve" smooth="yes"/>
      <point x="297" y="33"/>
      <point x="341" y="-17"/>
      <point x="416" y="-17" type="curve" smooth="yes"/>
      <point x="484" y="-17"/>
      <point x="535" y="45"/>
      <point x="535" y="105" type="curve" smooth="yes"/>
      <point x="535" y="176"/>
      <point x="494" y="225"/>
      <point x="422" y="225" type="curve" smooth="yes"/>
      <point x="357" y="225"/>
      <point x="297" y="166"/>
    </contour>
  </outline>
</glyph>
<glyph name="at" format="2">
  <advance width="1300"/>
  <unicode hex="0040"/>
  <outline>
    <contour>
      <point x="838" y="-34" type="curve" smooth="yes"/>
      <point x="1050" y="-34"/>
      <point x="1132" y="258"/>
      <point x="1188" y="578" type="curve" smooth="yes"/>
      <point x="1195" y="621"/>
      <point x="1202" y="668"/>
      <point x="1208" y="717" type="curve" smooth="yes"/>
      <point x="1220" y="815"/>
      <point x="1221" y="886"/>
      <point x="1221" y="927" type="curve" smooth="yes"/>
      <point x="1221" y="1012"/>
      <point x="1212" y="1170"/>
      <point x="1159" y="1290" type="curve"/>
      <point x="1106" y="1406"/>
      <point x="1011" y="1486"/>
      <point x="858" y="1486" type="curve" smooth="yes"/>
      <point x="503" y="1486"/>
      <point x="212" y="1065"/>
      <point x="120" y="540" type="curve" smooth="yes"/>
      <point x="97" y="407"/>
      <point x="84" y="283"/>
      <point x="84" y="166" type="curve" smooth="yes"/>
      <point x="84" y="-168"/>
      <point x="192" y="-410"/>
      <point x="483" y="-410" type="curve" smooth="yes"/>
      <point x="574" y="-410"/>
      <point x="654" y="-380"/>
      <point x="687" y="-350" type="curve"/>
      <point x="714" y="-173" type="line"/>
      <point x="678" y="-209"/>
      <point x="594" y="-254"/>
      <point x="515" y="-254" type="curve" smooth="yes"/>
      <point x="318" y="-254"/>
      <point x="248" y="-50"/>
      <point x="248" y="214" type="curve" smooth="yes"/>
      <point x="248" y="331"/>
      <point x="261" y="457"/>
      <point x="284" y="584" type="curve" smooth="yes"/>
      <point x="352" y="968"/>
      <point x="617" y="1330"/>
      <point x="826" y="1330" type="curve" smooth="yes"/>
      <point x="909" y="1330"/>
      <point x="965" y="1294"/>
      <point x="1002" y="1236" type="curve" smooth="yes"/>
      <point x="1060" y="1146"/>
      <point x="1068" y="1008"/>
      <point x="1068" y="920" type="curve" smooth="yes"/>
      <point x="1068" y="889"/>
      <point x="1067" y="826"/>
      <point x="1058" y="737" type="curve" smooth="yes"/>
      <point x="1049" y="648"/>
      <point x="1035" y="564"/>
      <point x="1024" y="501" type="curve" smooth="yes"/>
      <point x="1012" y="425"/>
      <point x="948" y="100"/>
      <point x="868" y="100" type="curve" smooth="yes"/>
      <point x="837" y="100"/>
      <point x="831" y="126"/>
      <point x="831" y="147" type="curve" smooth="yes"/>
      <point x="831" y="157"/>
      <point x="832" y="168"/>
      <point x="835" y="180" type="curve"/>
      <point x="959" y="958" type="line"/>
      <point x="922" y="973"/>
      <point x="876" y="981"/>
      <point x="822" y="981" type="curve" smooth="yes"/>
      <point x="611" y="981"/>
      <point x="411" y="713"/>
      <point x="368" y="446" type="curve" smooth="yes"/>
      <point x="361" y="400"/>
      <point x="357" y="357"/>
      <point x="357" y="317" type="curve" smooth="yes"/>
      <point x="357" y="296"/>
      <point x="359" y="266"/>
      <point x="363" y="228" type="curve" smooth="yes"/>
      <point x="367" y="190"/>
      <point x="380" y="151"/>
      <point x="402" y="110" type="curve" smooth="yes"/>
      <point x="445" y="29"/>
      <point x="519" y="-17"/>
      <point x="615" y="-17" type="curve"/>
      <point x="673" y="69" type="line"/>
      <point x="684" y="37"/>
      <point x="718" y="-34"/>
    </contour>
    <contour>
      <point x="664" y="155" type="line"/>
      <point x="643" y="141"/>
      <point x="622" y="134"/>
      <point x="601" y="134" type="curve" smooth="yes"/>
      <point x="599" y="134"/>
      <point x="592" y="134"/>
      <point x="580" y="135" type="curve" smooth="yes"/>
      <point x="568" y="136"/>
      <point x="555" y="147"/>
      <point x="540" y="170" type="curve" smooth="yes"/>
      <point x="525" y="193"/>
      <point x="517" y="217"/>
      <point x="516" y="244" type="curve" smooth="yes"/>
      <point x="515" y="271"/>
      <point x="514" y="287"/>
      <point x="514" y="293" type="curve" smooth="yes"/>
      <point x="514" y="338"/>
      <point x="521" y="394"/>
      <point x="536" y="462" type="curve" smooth="yes"/>
      <point x="579" y="667"/>
      <point x="687" y="791"/>
      <point x="738" y="820" type="curve" smooth="yes"/>
      <point x="758" y="831"/>
      <point x="776" y="839"/>
      <point x="795" y="839" type="curve" smooth="yes"/>
      <point x="798" y="839"/>
      <point x="801" y="839"/>
      <point x="804" y="838" type="curve"/>
      <point x="749" y="700" type="line"/>
    </contour>
  </outline>
</glyph>
<glyph name="A" format="2">
  <advance width="1300"/>
  <unicode hex="0041"/>
  <outline>
    <contour>
      <point x="522" y="600" type="line"/>
      <point x="776" y="1080" type="line"/>
      <point x="877" y="1400" type="line"/>
      <point x="866" y="1080" type="line"/>
      <point x="959" y="600" type="line"/>
    </contour>
    <contour>
      <point x="982" y="450" type="line"/>
      <point x="1050" y="0" type="line"/>
      <point x="1250" y="0" type="line"/>
      <point x="971" y="1520" type="line"/>
      <point x="789" y="1500" type="line"/>
      <point x="719" y="1300" type="line"/>
      <point x="18" y="0" type="line"/>
      <point x="201" y="0" type="line"/>
      <point x="447" y="450" type="line"/>
    </contour>
  </outline>
</glyph>
<glyph name="C" format="2">
  <advance width="1300"/>
  <unicode hex="0043"/>
  <outline>
    <contour>
      <point x="956" y="247" type="line"/>
      <point x="846" y="186"/>
      <point x="752" y="153"/>
      <point x="632" y="153" type="curve" smooth="yes"/>
      <point x="359" y="153"/>
      <point x="307" y="373"/>
      <point x="307" y="605" type="curve" smooth="yes"/>
      <point x="307" y="969"/>
      <point x="453" y="1341"/>
      <point x="829" y="1341" type="curve" smooth="yes"/>
      <point x="946" y="1341"/>
      <point x="1029" y="1320"/>
      <point x="1112" y="1263" type="curve"/>
      <point x="1210" y="1385" type="line"/>
      <point x="1122" y="1473"/>
      <point x="997" y="1517"/>
      <point x="835" y="1517" type="curve" smooth="yes"/>
      <point x="367" y="1517"/>
      <point x="106" y="1105"/>
      <point x="106" y="616" type="curve" smooth="yes"/>
      <point x="106" y="251"/>
      <point x="260" y="-17"/>
      <point x="577" y="-17" type="curve" smooth="yes"/>
      <point x="808" y="-17"/>
      <point x="945" y="58"/>
      <point x="998" y="95" type="curve"/>
    </contour>
  </outline>
</glyph>
<glyph name="F" format="2">
  <advance width="1300"/>
  <unicode hex="0046"/>
  <outline>
    <contour>
      <point x="430" y="740" type="line"/>
      <point x="970" y="740" type="line"/>
      <point x="996" y="885" type="line"/>
      <point x="456" y="885" type="line"/>
      <point x="502" y="1150" type="line"/>
      <point x="516" y="1340" type="line"/>
      <point x="1161" y="1340" type="line"/>
      <point x="1209" y="1500" type="line"/>
      <point x="334" y="1500" type="line"/>
      <point x="327" y="1290" type="line"/>
      <point x="100" y="0" type="line"/>
      <point x="300" y="0" type="line"/>
    </contour>
  </outline>
</glyph>
<glyph name="G" format="2">
  <advance width="1300"/>
  <unicode hex="0047"/>
  <outline>
    <contour>
      <point x="1192" y="762" type="line"/>
      <point x="702" y="762" type="line"/>
      <point x="679" y="632" type="line"/>
      <point x="989" y="612" type="line"/>
      <point x="928" y="263" type="line"/>
      <point x="872" y="212"/>
      <point x="737" y="153"/>
      <point x="618" y="153" type="curve" smooth="yes"/>
      <point x="380" y="153"/>
      <point x="321" y="361"/>
      <point x="321" y="557" type="curve" smooth="yes"/>
      <point x="321" y="606"/>
      <point x="326" y="681"/>
      <point x="342" y="773" type="curve" smooth="yes"/>
      <point x="398" y="1085"/>
      <point x="517" y="1348"/>
      <point x="842" y="1348" type="curve" smooth="yes"/>
      <point x="967" y="1348"/>
      <point x="1057" y="1311"/>
      <point x="1114" y="1268" type="curve"/>
      <point x="1223" y="1375" type="line"/>
      <point x="1143" y="1467"/>
      <point x="1009" y="1517"/>
      <point x="856" y="1517" type="curve" smooth="yes"/>
      <point x="416" y="1517"/>
      <point x="203" y="1173"/>
      <point x="131" y="770" type="curve" smooth="yes"/>
      <point x="116" y="690"/>
      <point x="109" y="613"/>
      <point x="109" y="540" type="curve" smooth="yes"/>
      <point x="109" y="515"/>
      <point x="111" y="472"/>
      <point x="116" y="412" type="curve" smooth="yes"/>
      <point x="120" y="352"/>
      <point x="139" y="286"/>
      <point x="174" y="215" type="curve"/>
      <point x="242" y="72"/>
      <point x="370" y="-17"/>
      <point x="562" y="-17" type="curve" smooth="yes"/>
      <point x="784" y="-17"/>
      <point x="960" y="76"/>
      <point x="1092" y="197" type="curve"/>
    </contour>
  </outline>
</glyph>
<glyph name="H" format="2">
  <advance width="1300"/>
  <unicode hex="0048"/>
  <outline>
    <contour>
      <point x="982" y="0" type="line"/>
      <point x="1250" y="1520" type="line"/>
      <point x="1051" y="1500" type="line"/>
      <point x="943" y="885" type="line"/>
      <point x="401" y="885" type="line"/>
      <point x="513" y="1520" type="line"/>
      <point x="285" y="1500" type="line"/>
      <point x="277" y="1290" type="line"/>
      <point x="50" y="0" type="line"/>
      <point x="245" y="0" type="line"/>
      <point x="372" y="725" type="line"/>
      <point x="914" y="725" type="line"/>
      <point x="787" y="0" type="line"/>
    </contour>
  </outline>
</glyph>
<glyph name="J" format="2">
  <advance width="1300"/>
  <unicode hex="004A"/>
  <outline>
    <contour>
      <point x="633" y="1325" type="line"/>
      <point x="875" y="1374" type="line"/>
      <point x="802" y="1148" type="line"/>
      <point x="682" y="470" type="line" smooth="yes"/>
      <point x="645" y="259"/>
      <point x="609" y="156"/>
      <point x="424" y="156" type="curve" smooth="yes"/>
      <point x="336" y="156"/>
      <point x="268" y="206"/>
      <point x="243" y="233" type="curve"/>
      <point x="130" y="115" type="line"/>
      <point x="175" y="64"/>
      <point x="291" y="-17"/>
      <point x="399" y="-17" type="curve" smooth="yes"/>
      <point x="695" y="-17"/>
      <point x="821" y="131"/>
      <point x="872" y="415" type="curve" smooth="yes"/>
      <point x="1068" y="1500" type="line"/>
      <point x="500" y="1500" type="line"/>
      <point x="473" y="1325" type="line"/>
    </contour>
  </outline>
</glyph>
<glyph name="K" format="2">
  <advance width="1300"/>
  <unicode hex="004B"/>
  <outline>
    <contour>
      <point x="250" y="0" type="line"/>
      <point x="381" y="746" type="line"/>
      <point x="803" y="0" type="line"/>
      <point x="1040" y="0" type="line"/>
      <point x="618" y="744" type="line"/>
      <point x="454" y="802" type="line"/>
      <point x="634" y="865" type="line"/>
      <point x="1277" y="1500" type="line"/>
      <point x="1055" y="1500" type="line"/>
      <point x="400" y="856" type="line"/>
      <point x="518" y="1520" type="line"/>
      <point x="284" y="1500" type="line"/>
      <point x="277" y="1290" type="line"/>
      <point x="50" y="0" type="line"/>
    </contour>
  </outline>
</glyph>
<glyph name="L" format="2">
  <advance width="1300"/>
  <unicode hex="004C"/>
  <outline>
    <contour>
      <point x="438" y="340" type="line"/>
      <point x="647" y="1520" type="line"/>
      <point x="428" y="1500" type="line"/>
      <point x="421" y="1290" type="line"/>
      <point x="229" y="200" type="line"/>
      <point x="173" y="0" type="line"/>
      <point x="1078" y="0" type="line"/>
      <point x="1127" y="160" type="line"/>
      <point x="397" y="160" type="line"/>
    </contour>
  </outline>
</glyph>
<glyph name="M" format="2">
  <advance width="1300"/>
  <unicode hex="004D"/>
  <outline>
    <contour>
      <point x="1018" y="0" type="line"/>
      <point x="1287" y="1520" type="line"/>
      <point x="1076" y="1500" type="line"/>
      <point x="750" y="950" type="line"/>
      <point x="632" y="700" type="line"/>
      <point x="600" y="950" type="line"/>
      <point x="468" y="1520" type="line"/>
      <point x="250" y="1500" type="line"/>
      <point x="241" y="1290" type="line"/>
      <point x="13" y="0" type="line"/>
      <point x="193" y="0" type="line"/>
      <point x="352" y="901" type="line"/>
      <point x="365" y="1399" type="line"/>
      <point x="371" y="1400" type="line"/>
      <point x="456" y="920" type="line"/>
      <point x="554" y="500" type="line"/>
      <point x="654" y="500" type="line"/>
      <point x="901" y="921" type="line"/>
      <point x="1149" y="1400" type="line"/>
      <point x="1154" y="1399" type="line"/>
      <point x="997" y="901" type="line"/>
      <point x="838" y="0" type="line"/>
    </contour>
  </outline>
</glyph>
<glyph name="N" format="2">
  <advance width="1300"/>
  <unicode hex="004E"/>
  <outline>
    <contour>
      <point x="982" y="0" type="line"/>
      <point x="1251" y="1520" type="line"/>
      <point x="1067" y="1500" type="line"/>
      <point x="905" y="580" type="line"/>
      <point x="906" y="141" type="line"/>
      <point x="900" y="140" type="line"/>
      <point x="808" y="557" type="line"/>
      <point x="482" y="1520" type="line"/>
      <point x="277" y="1500" type="line"/>
      <point x="270" y="1290" type="line"/>
      <point x="42" y="0" type="line"/>
      <point x="222" y="0" type="line"/>
      <point x="385" y="920" type="line"/>
      <point x="397" y="1360" type="line"/>
      <point x="403" y="1361" type="line"/>
      <point x="490" y="948" type="line"/>
      <point x="817" y="0" type="line"/>
    </contour>
  </outline>
</glyph>
<glyph name="O" format="2">
  <advance width="1300"/>
  <unicode hex="004F"/>
  <outline>
    <contour>
      <point x="986" y="719" type="curve"/>
      <point x="942" y="476"/>
      <point x="837" y="158"/>
      <point x="551" y="158" type="curve" smooth="yes"/>
      <point x="335" y="158"/>
      <point x="286" y="333"/>
      <point x="286" y="512" type="curve" smooth="yes"/>
      <point x="286" y="595"/>
      <point x="297" y="690"/>
      <point x="314" y="785" type="curve" smooth="yes"/>
      <point x="358" y="1030"/>
      <point x="459" y="1342"/>
      <point x="748" y="1342" type="curve" smooth="yes"/>
      <point x="964" y="1342"/>
      <point x="1014" y="1169"/>
      <point x="1014" y="990" type="curve" smooth="yes"/>
      <point x="1014" y="906"/>
      <point x="1002" y="812"/>
    </contour>
    <contour>
      <point x="514" y="-17" type="curve" smooth="yes"/>
      <point x="994" y="-17"/>
      <point x="1220" y="559"/>
      <point x="1220" y="969" type="curve" smooth="yes"/>
      <point x="1220" y="1246"/>
      <point x="1106" y="1517"/>
      <point x="785" y="1517" type="curve" smooth="yes"/>
      <point x="416" y="1517"/>
      <point x="172" y="1170"/>
      <point x="100" y="750" type="curve"/>
      <point x="75" y="610"/>
      <point x="79" y="542"/>
      <point x="79" y="531" type="curve" smooth="yes"/>
      <point x="79" y="254"/>
      <point x="193" y="-17"/>
    </contour>
  </outline>
</glyph>
<glyph name="P" format="2">
  <advance width="1300"/>
  <unicode hex="0050"/>
  <outline>
    <contour>
      <point x="399" y="624" type="line"/>
      <point x="904" y="624"/>
      <point x="1186" y="782"/>
      <point x="1244" y="1099" type="curve" smooth="yes"/>
      <point x="1248" y="1121"/>
      <point x="1250" y="1142"/>
      <point x="1250" y="1162" type="curve" smooth="yes"/>
      <point x="1250" y="1199"/>
      <point x="1242" y="1238"/>
      <point x="1227" y="1280" type="curve"/>
      <point x="1211" y="1321"/>
      <point x="1179" y="1360"/>
      <point x="1130" y="1397" type="curve" smooth="yes"/>
      <point x="1033" y="1469"/>
      <point x="876" y="1512"/>
      <point x="663" y="1512" type="curve" smooth="yes"/>
      <point x="559" y="1512"/>
      <point x="407" y="1503"/>
      <point x="327" y="1490" type="curve"/>
      <point x="327" y="1290" type="line"/>
      <point x="99" y="0" type="line"/>
      <point x="289" y="0" type="line"/>
    </contour>
    <contour>
      <point x="509" y="1359" type="line"/>
      <point x="550" y="1367"/>
      <point x="638" y="1370"/>
      <point x="683" y="1370" type="curve" smooth="yes"/>
      <point x="803" y="1370"/>
      <point x="908" y="1347"/>
      <point x="978" y="1302" type="curve" smooth="yes"/>
      <point x="1048" y="1257"/>
      <point x="1071" y="1199"/>
      <point x="1071" y="1144" type="curve" smooth="yes"/>
      <point x="1071" y="1130"/>
      <point x="1069" y="1115"/>
      <point x="1066" y="1100" type="curve" smooth="yes"/>
      <point x="1026" y="885"/>
      <point x="828" y="765"/>
      <point x="424" y="765" type="curve"/>
      <point x="491" y="1147" type="line"/>
    </contour>
  </outline>
</glyph>
<glyph name="Q" format="2">
  <advance width="1300"/>
  <unicode hex="0051"/>
  <outline>
    <contour>
      <point x="650" y="137" type="line"/>
      <point x="662" y="102" type="line" smooth="yes"/>
      <point x="734" y="-115"/>
      <point x="811" y="-145"/>
      <point x="944" y="-145" type="curve"/>
      <point x="1021" y="0" type="line"/>
      <point x="909" y="0"/>
      <point x="888" y="8"/>
      <point x="854" y="92" type="curve"/>
      <point x="866" y="101"/>
      <point x="882" y="113"/>
      <point x="893" y="124" type="curve"/>
      <point x="1105" y="301"/>
      <point x="1240" y="644"/>
      <point x="1240" y="953" type="curve" smooth="yes"/>
      <point x="1240" y="1277"/>
      <point x="1087" y="1517"/>
      <point x="787" y="1517" type="curve" smooth="yes"/>
      <point x="347" y="1517"/>
      <point x="63" y="1008"/>
      <point x="63" y="540" type="curve" smooth="yes"/>
      <point x="63" y="231"/>
      <point x="196" y="-17"/>
      <point x="467" y="-17" type="curve" smooth="yes"/>
      <point x="531" y="-17"/>
      <point x="579" y="-11"/>
      <point x="626" y="0" type="curve"/>
    </contour>
    <contour>
      <point x="817" y="177" type="line"/>
      <point x="740" y="390"/>
      <point x="685" y="500"/>
      <point x="577" y="500" type="curve"/>
      <point x="500" y="350" type="line"/>
      <point x="577" y="350"/>
      <point x="588" y="292"/>
      <point x="636" y="172" type="curve"/>
      <point x="610" y="164"/>
      <point x="597" y="162"/>
      <point x="579" y="162" type="curve"/>
      <point x="578" y="162" type="line"/>
      <point x="577" y="162" type="line"/>
      <point x="575" y="162" type="line"/>
      <point x="574" y="162" type="line"/>
      <point x="572" y="162" type="line"/>
      <point x="571" y="162" type="line"/>
      <point x="558" y="162" type="line" smooth="yes"/>
      <point x="347" y="162"/>
      <point x="262" y="317"/>
      <point x="262" y="539" type="curve" smooth="yes"/>
      <point x="262" y="823"/>
      <point x="412" y="1337"/>
      <point x="749" y="1337" type="curve" smooth="yes"/>
      <point x="968" y="1337"/>
      <point x="1045" y="1162"/>
      <point x="1045" y="961" type="curve" smooth="yes"/>
      <point x="1045" y="763"/>
      <point x="1000" y="524"/>
      <point x="841" y="314" type="curve"/>
    </contour>
  </outline>
</glyph>
<glyph name="S" format="2">
  <advance width="1300"/>
  <unicode hex="0053"/>
  <outline>
    <contour>
      <point x="1203" y="1371" type="line"/>
      <point x="1123" y="1440"/>
      <point x="996" y="1517"/>
      <point x="830" y="1517" type="curve" smooth="yes"/>
      <point x="557" y="1517"/>
      <point x="300" y="1384"/>
      <point x="300" y="1116" type="curve" smooth="yes"/>
      <point x="300" y="687"/>
      <point x="866" y="729"/>
      <point x="866" y="433" type="curve" smooth="yes"/>
      <point x="866" y="228"/>
      <point x="681" y="155"/>
      <point x="532" y="155" type="curve" smooth="yes"/>
      <point x="403" y="155"/>
      <point x="284" y="215"/>
      <point x="215" y="284" type="curve"/>
      <point x="97" y="134" type="line"/>
      <point x="225" y="30"/>
      <point x="369" y="-17"/>
      <point x="524" y="-17" type="curve" smooth="yes"/>
      <point x="813" y="-17"/>
      <point x="1070" y="152"/>
      <point x="1070" y="432" type="curve" smooth="yes"/>
      <point x="1070" y="884"/>
      <point x="503" y="824"/>
      <point x="503" y="1101" type="curve" smooth="yes"/>
      <point x="503" y="1249"/>
      <point x="660" y="1350"/>
      <point x="825" y="1350" type="curve" smooth="yes"/>
      <point x="934" y="1350"/>
      <point x="1004" y="1319"/>
      <point x="1087" y="1252" type="curve"/>
    </contour>
  </outline>
</glyph>
<glyph name="U" format="2">
  <advance width="1300"/>
  <unicode hex="0055"/>
  <outline>
    <contour>
      <point x="1036" y="1500" type="line"/>
      <point x="861" y="504" type="line" smooth="yes"/>
      <point x="820" y="269"/>
      <point x="715" y="153"/>
      <point x="519" y="153" type="curve" smooth="yes"/>
      <point x="435" y="153"/>
      <point x="375" y="190"/>
      <point x="340" y="259" type="curve" smooth="yes"/>
      <point x="314" y="311"/>
      <point x="307" y="365"/>
      <point x="307" y="422" type="curve" smooth="yes"/>
      <point x="307" y="462"/>
      <point x="311" y="506"/>
      <point x="320" y="554" type="curve" smooth="yes"/>
      <point x="490" y="1520" type="line"/>
      <point x="266" y="1500" type="line"/>
      <point x="259" y="1290" type="line"/>
      <point x="133" y="573" type="line" smooth="yes"/>
      <point x="120" y="502"/>
      <point x="114" y="436"/>
      <point x="114" y="375" type="curve" smooth="yes"/>
      <point x="114" y="288"/>
      <point x="120" y="225"/>
      <point x="162" y="146" type="curve" smooth="yes"/>
      <point x="216" y="42"/>
      <point x="316" y="-17"/>
      <point x="479" y="-17" type="curve" smooth="yes"/>
      <point x="783" y="-17"/>
      <point x="990" y="160"/>
      <point x="1054" y="523" type="curve" smooth="yes"/>
      <point x="1226" y="1500" type="line"/>
    </contour>
  </outline>
</glyph>
<glyph name="X" format="2">
  <advance width="1300"/>
  <unicode hex="0058"/>
  <outline>
    <contour>
      <point x="1067" y="0" type="line"/>
      <point x="787" y="776" type="line"/>
      <point x="1300" y="1500" type="line"/>
      <point x="1107" y="1500" type="line"/>
      <point x="777" y="1020" type="line"/>
      <point x="718" y="860" type="line"/>
      <point x="683" y="1056" type="line"/>
      <point x="537" y="1520" type="line"/>
      <point x="321" y="1500" type="line"/>
      <point x="570" y="799" type="line"/>
      <point x="0" y="0" type="line"/>
      <point x="198" y="0" type="line"/>
      <point x="568" y="540" type="line"/>
      <point x="648" y="700" type="line"/>
      <point x="689" y="519" type="line"/>
      <point x="847" y="0" type="line"/>
    </contour>
  </outline>
</glyph>
<glyph name="Z" format="2">
  <advance width="1300"/>
  <unicode hex="005A"/>
  <outline>
    <contour>
      <point x="485" y="160" type="line"/>
      <point x="213" y="120" type="line"/>
      <point x="422" y="300" type="line"/>
      <point x="1291" y="1478" type="line"/>
      <point x="1280" y="1500" type="line"/>
      <point x="334" y="1500" type="line"/>
      <point x="326" y="1340" type="line"/>
      <point x="811" y="1340" type="line"/>
      <point x="1083" y="1380" type="line"/>
      <point x="867" y="1200" type="line"/>
      <point x="9" y="50" type="line"/>
      <point x="21" y="0" type="line"/>
      <point x="1050" y="0" type="line"/>
      <point x="1058" y="160" type="line"/>
    </contour>
  </outline>
</glyph>
<glyph name="bracketleft" format="2">
  <advance width="1300"/>
  <unicode hex="005B"/>
  <outline>
    <contour>
      <point x="183" y="-220" type="line"/>
      <point x="125" y="-420" type="line"/>
      <point x="691" y="-420" type="line"/>
      <point x="718" y="-270" type="line"/>
      <point x="346" y="-270" type="line"/>
      <point x="401" y="-70" type="line"/>
      <point x="620" y="1170" type="line"/>
      <point x="635" y="1370" type="line"/>
      <point x="1007" y="1370" type="line"/>
      <point x="1034" y="1520" type="line"/>
      <point x="468" y="1520" type="line"/>
      <point x="454" y="1320" type="line"/>
    </contour>
  </outline>
</glyph>
<glyph name="backslash" format="2">
  <advance width="1300"/>
  <unicode hex="005C"/>
  <outline>
    <contour>
      <point x="703" y="-100" type="line"/>
      <point x="907" y="-100" type="line"/>
      <point x="497" y="1600" type="line"/>
      <point x="303" y="1600" type="line"/>
    </contour>
  </outline>
</glyph>
<glyph name="bracketright" format="2">
  <advance width="1300"/>
  <unicode hex="005D"/>
  <outline>
    <contour>
      <point x="904" y="1320" type="line"/>
      <point x="962" y="1520" type="line"/>
      <point x="396" y="1520" type="line"/>
      <point x="369" y="1370" type="line"/>
      <point x="741" y="1370" type="line"/>
      <point x="686" y="1170" type="line"/>
      <point x="467" y="-70" type="line"/>
      <point x="452" y="-270" type="line"/>
      <point x="80" y="-270" type="line"/>
      <point x="53" y="-420" type="line"/>
      <point x="619" y="-420" type="line"/>
      <point x="633" y="-220" type="line"/>
    </contour>
  </outline>
</glyph>
<glyph name="grave" format="2">
  <advance width="1300"/>
  <unicode hex="0060"/>
  <outline>
    <contour>
      <point x="757" y="1520" type="line"/>
      <point x="549" y="1500" type="line"/>
      <point x="721" y="1200" type="line"/>
      <point x="871" y="1200" type="line"/>
    </contour>
  </outline>
</glyph>
<glyph name="a" format="2">
  <advance width="1300"/>
  <unicode hex="0061"/>
  <outline>
    <contour>
      <point x="821" y="306" type="line"/>
      <point x="757" y="226"/>
      <point x="661" y="144"/>
      <point x="523" y="144" type="curve" smooth="yes"/>
      <point x="420" y="144"/>
      <point x="340" y="237"/>
      <point x="340" y="421" type="curve" smooth="yes"/>
      <point x="340" y="693"/>
      <point x="472" y="958"/>
      <point x="779" y="958" type="curve"/>
      <point x="826" y="956"/>
      <point x="885" y="949"/>
      <point x="927" y="930" type="curve"/>
    </contour>
    <contour>
      <point x="981" y="180" type="line"/>
      <point x="1133" y="1063" type="line"/>
      <point x="1030" y="1098"/>
      <point x="912" y="1117"/>
      <point x="800" y="1117" type="curve" smooth="yes"/>
      <point x="388" y="1117"/>
      <point x="160" y="803"/>
      <point x="160" y="419" type="curve" smooth="yes"/>
      <point x="160" y="161"/>
      <point x="273" y="-17"/>
      <point x="462" y="-17" type="curve" smooth="yes"/>
      <point x="580" y="-17"/>
      <point x="625" y="3"/>
      <point x="681" y="49" type="curve"/>
      <point x="796" y="162" type="line"/>
      <point x="768" y="0" type="line"/>
      <point x="970" y="0" type="line"/>
    </contour>
  </outline>
</glyph>
<glyph name="b" format="2">
  <advance width="1300"/>
  <unicode hex="0062"/>
  <outline>
    <contour>
      <point x="147" y="35" type="line"/>
      <point x="203" y="11"/>
      <point x="417" y="-17"/>
      <point x="517" y="-17" type="curve" smooth="yes"/>
      <point x="880" y="-17"/>
      <point x="1090" y="225"/>
      <point x="1130" y="596" type="curve" smooth="yes"/>
      <point x="1133" y="627"/>
      <point x="1135" y="656"/>
      <point x="1135" y="684" type="curve" smooth="yes"/>
      <point x="1135" y="936"/>
      <point x="1014" y="1117"/>
      <point x="815" y="1117" type="curve" smooth="yes"/>
      <point x="740" y="1117"/>
      <point x="670" y="1097"/>
      <point x="595" y="1065" type="curve"/>
      <point x="494" y="974" type="line"/>
      <point x="608" y="1620" type="line"/>
      <point x="403" y="1600" type="line"/>
      <point x="391" y="1420" type="line"/>
    </contour>
    <contour>
      <point x="471" y="845" type="line"/>
      <point x="581" y="937"/>
      <point x="661" y="957"/>
      <point x="776" y="957" type="curve" smooth="yes"/>
      <point x="879" y="957"/>
      <point x="954" y="854"/>
      <point x="954" y="686" type="curve" smooth="yes"/>
      <point x="954" y="659"/>
      <point x="952" y="631"/>
      <point x="948" y="601" type="curve" smooth="yes"/>
      <point x="919" y="388"/>
      <point x="840" y="143"/>
      <point x="565" y="143" type="curve" smooth="yes"/>
      <point x="465" y="143"/>
      <point x="400" y="154"/>
      <point x="353" y="171" type="curve"/>
    </contour>
  </outline>
</glyph>
<glyph name="c" format="2">
  <advance width="1300"/>
  <unicode hex="0063"/>
  <outline>
    <contour>
      <point x="1163" y="1000" type="line"/>
      <point x="1079" y="1080"/>
      <point x="968" y="1117"/>
      <point x="805" y="1117" type="curve" smooth="yes"/>
      <point x="447" y="1117"/>
      <point x="144" y="822"/>
      <point x="144" y="464" type="curve" smooth="yes"/>
      <point x="144" y="203"/>
      <point x="309" y="-17"/>
      <point x="601" y="-17" type="curve" smooth="yes"/>
      <point x="760" y="-17"/>
      <point x="921" y="57"/>
      <point x="1000" y="115" type="curve"/>
      <point x="947" y="258" type="line"/>
      <point x="902" y="232"/>
      <point x="756" y="152"/>
      <point x="644" y="152" type="curve" smooth="yes"/>
      <point x="435" y="152"/>
      <point x="338" y="292"/>
      <point x="338" y="469" type="curve" smooth="yes"/>
      <point x="338" y="714"/>
      <point x="513" y="957"/>
      <point x="775" y="957" type="curve" smooth="yes"/>
      <point x="915" y="957"/>
      <point x="995" y="928"/>
      <point x="1044" y="885" type="curve"/>
    </contour>
  </outline>
</glyph>
<glyph name="d" format="2">
  <advance width="1300"/>
  <unicode hex="0064"/>
  <outline>
    <contour>
      <point x="913" y="0" type="line"/>
      <point x="924" y="180" type="line"/>
      <point x="1175" y="1600" type="line"/>
      <point x="996" y="1620" type="line"/>
      <point x="904" y="1100" type="line"/>
      <point x="755" y="1100" type="line"/>
      <point x="306" y="1096"/>
      <point x="100" y="774"/>
      <point x="100" y="431" type="curve" smooth="yes"/>
      <point x="100" y="166"/>
      <point x="209" y="-17"/>
      <point x="405" y="-17" type="curve" smooth="yes"/>
      <point x="523" y="-17"/>
      <point x="568" y="3"/>
      <point x="624" y="49" type="curve"/>
      <point x="739" y="162" type="line"/>
      <point x="711" y="0" type="line"/>
    </contour>
    <contour>
      <point x="876" y="940" type="line"/>
      <point x="764" y="306" type="line"/>
      <point x="700" y="226"/>
      <point x="604" y="144"/>
      <point x="466" y="144" type="curve" smooth="yes"/>
      <point x="359" y="144"/>
      <point x="280" y="235"/>
      <point x="280" y="427" type="curve" smooth="yes"/>
      <point x="280" y="694"/>
      <point x="415" y="940"/>
      <point x="715" y="940" type="curve" smooth="yes"/>
    </contour>
  </outline>
</glyph>
<glyph name="e" format="2">
  <advance width="1300"/>
  <unicode hex="0065"/>
  <outline>
    <contour>
      <point x="286" y="623" type="line"/>
      <point x="368" y="732" type="line"/>
      <point x="422" y="850"/>
      <point x="539" y="958"/>
      <point x="713" y="958" type="curve" smooth="yes"/>
      <point x="926" y="958"/>
      <point x="975" y="848"/>
      <point x="975" y="752" type="curve" smooth="yes"/>
      <point x="975" y="729"/>
      <point x="965" y="659"/>
      <point x="959" y="650" type="curve"/>
      <point x="479" y="650" type="line"/>
    </contour>
    <contour>
      <point x="925" y="245" type="line"/>
      <point x="874" y="210"/>
      <point x="741" y="133"/>
      <point x="570" y="133" type="curve" smooth="yes"/>
      <point x="430" y="133"/>
      <point x="297" y="249"/>
      <point x="297" y="415" type="curve" smooth="yes"/>
      <point x="297" y="442"/>
      <point x="300" y="469"/>
      <point x="308" y="500" type="curve"/>
      <point x="1089" y="500" type="line"/>
      <point x="1122" y="572"/>
      <point x="1142" y="650"/>
      <point x="1142" y="729" type="curve" smooth="yes"/>
      <point x="1142" y="961"/>
      <point x="993" y="1117"/>
      <point x="726" y="1117" type="curve" smooth="yes"/>
      <point x="360" y="1117"/>
      <point x="128" y="799"/>
      <point x="128" y="455" type="curve" smooth="yes"/>
      <point x="128" y="204"/>
      <point x="252" y="-17"/>
      <point x="552" y="-17" type="curve" smooth="yes"/>
      <point x="772" y="-17"/>
      <point x="934" y="67"/>
      <point x="1017" y="139" type="curve"/>
    </contour>
  </outline>
</glyph>
<glyph name="f" format="2">
  <advance width="1300"/>
  <unicode hex="0066"/>
  <outline>
    <contour>
      <point x="388" y="0" type="line"/>
      <point x="358" y="-161"/>
      <point x="318" y="-260"/>
      <point x="220" y="-260" type="curve" smooth="yes"/>
      <point x="213" y="-260" type="line"/>
      <point x="173" y="-259"/>
      <point x="139" y="-243"/>
      <point x="124" y="-238" type="curve"/>
      <point x="59" y="-382" type="line"/>
      <point x="74" y="-390"/>
      <point x="115" y="-413"/>
      <point x="195" y="-420" type="curve"/>
      <point x="202" y="-421"/>
      <point x="209" y="-421"/>
      <point x="216" y="-421" type="curve" smooth="yes"/>
      <point x="218" y="-421" type="line"/>
      <point x="220" y="-421" type="line"/>
      <point x="220" y="-421" type="line"/>
      <point x="221" y="-421" type="line"/>
      <point x="221" y="-421" type="line"/>
      <point x="223" y="-421" type="line"/>
      <point x="224" y="-421" type="line"/>
      <point x="225" y="-421" type="line"/>
      <point x="234" y="-421" type="line" smooth="yes"/>
      <point x="445" y="-421"/>
      <point x="533" y="-251"/>
      <point x="560" y="-99" type="curve"/>
      <point x="735" y="940" type="line"/>
      <point x="1000" y="940" type="line"/>
      <point x="1048" y="1100" type="line"/>
      <point x="758" y="1100" type="line"/>
      <point x="785" y="1245" type="line"/>
      <point x="817" y="1427"/>
      <point x="885" y="1457"/>
      <point x="986" y="1465" type="curve"/>
      <point x="997" y="1465" type="line" smooth="yes"/>
      <point x="1049" y="1465"/>
      <point x="1102" y="1439"/>
      <point x="1141" y="1406" type="curve"/>
      <point x="1236" y="1529" type="line"/>
      <point x="1188" y="1574"/>
      <point x="1122" y="1612"/>
      <point x="1003" y="1617" type="curve"/>
      <point x="992" y="1617"/>
      <point x="984" y="1618"/>
      <point x="973" y="1618" type="curve" smooth="yes"/>
      <point x="761" y="1618"/>
      <point x="654" y="1503"/>
      <point x="609" y="1255" type="curve" smooth="yes"/>
      <point x="581" y="1100" type="line"/>
      <point x="431" y="1100" type="line"/>
      <point x="403" y="940" type="line"/>
      <point x="553" y="940" type="line"/>
    </contour>
  </outline>
</glyph>
<glyph name="g" format="2">
  <advance width="1300"/>
  <unicode hex="0067"/>
  <outline>
    <contour>
      <point x="838" y="275" type="line"/>
      <point x="779" y="206"/>
      <point x="704" y="142"/>
      <point x="592" y="142" type="curve" smooth="yes"/>
      <point x="407" y="142"/>
      <point x="359" y="285"/>
      <point x="359" y="448" type="curve" smooth="yes"/>
      <point x="359" y="662"/>
      <point x="445" y="958"/>
      <point x="697" y="958" type="curve" smooth="yes"/>
      <point x="821" y="958"/>
      <point x="897" y="890"/>
      <point x="937" y="834" type="curve"/>
    </contour>
    <contour>
      <point x="784" y="-31" type="line" smooth="yes"/>
      <point x="749" y="-226"/>
      <point x="634" y="-357"/>
      <point x="468" y="-357" type="curve" smooth="yes"/>
      <point x="340" y="-357"/>
      <point x="236" y="-292"/>
      <point x="217" y="-276" type="curve"/>
      <point x="100" y="-386" type="line"/>
      <point x="132" y="-418"/>
      <point x="247" y="-517"/>
      <point x="453" y="-517" type="curve" smooth="yes"/>
      <point x="726" y="-517"/>
      <point x="912" y="-326"/>
      <point x="963" y="-46" type="curve"/>
      <point x="1165" y="1100" type="line"/>
      <point x="988" y="1121" type="line"/>
      <point x="958" y="958" type="line"/>
      <point x="903" y="1070" type="line"/>
      <point x="858" y="1102"/>
      <point x="781" y="1117"/>
      <point x="724" y="1117" type="curve" smooth="yes"/>
      <point x="372" y="1117"/>
      <point x="180" y="798"/>
      <point x="180" y="458" type="curve" smooth="yes"/>
      <point x="180" y="175"/>
      <point x="313" y="-17"/>
      <point x="540" y="-17" type="curve" smooth="yes"/>
      <point x="629" y="-17"/>
      <point x="683" y="12"/>
      <point x="707" y="25" type="curve"/>
      <point x="813" y="135" type="line"/>
    </contour>
  </outline>
</glyph>
<glyph name="i" format="2">
  <advance width="1300"/>
  <unicode hex="0069"/>
  <outline>
    <contour>
      <point x="595" y="1300" type="line"/>
      <point x="797" y="1300" type="line"/>
      <point x="832" y="1500" type="line"/>
      <point x="630" y="1500" type="line"/>
    </contour>
    <contour>
      <point x="532" y="919" type="line"/>
      <point x="448" y="447" type="line"/>
      <point x="437" y="391"/>
      <point x="426" y="292"/>
      <point x="426" y="244" type="curve" smooth="yes"/>
      <point x="426" y="92"/>
      <point x="560" y="-17"/>
      <point x="743" y="-17" type="curve" smooth="yes"/>
      <point x="889" y="-17"/>
      <point x="1030" y="98"/>
      <point x="1054" y="120" type="curve"/>
      <point x="1006" y="241" type="line"/>
      <point x="964" y="205"/>
      <point x="850" y="133"/>
      <point x="781" y="133" type="curve" smooth="yes"/>
      <point x="677" y="133"/>
      <point x="617" y="168"/>
      <point x="617" y="269" type="curve" smooth="yes"/>
      <point x="617" y="299"/>
      <point x="633" y="393"/>
      <point x="638" y="431" type="curve" smooth="yes"/>
      <point x="643" y="473"/>
      <point x="623" y="355"/>
      <point x="756" y="1100" type="curve"/>
      <point x="250" y="1100" type="line"/>
      <point x="225" y="940" type="line"/>
      <point x="455" y="940" type="line"/>
      <point x="575" y="980" type="line"/>
    </contour>
  </outline>
</glyph>
<glyph name="j" format="2">
  <advance width="1300"/>
  <unicode hex="006A"/>
  <outline>
    <contour>
      <point x="888" y="1300" type="line"/>
      <point x="1090" y="1300" type="line"/>
      <point x="1125" y="1500" type="line"/>
      <point x="923" y="1500" type="line"/>
    </contour>
    <contour>
      <point x="830" y="934" type="line"/>
      <point x="646" y="-107" type="line" smooth="yes"/>
      <point x="617" y="-270"/>
      <point x="557" y="-355"/>
      <point x="431" y="-355" type="curve" smooth="yes"/>
      <point x="304" y="-355"/>
      <point x="213" y="-301"/>
      <point x="200" y="-290" type="curve"/>
      <point x="134" y="-444" type="line"/>
      <point x="148" y="-452"/>
      <point x="278" y="-517"/>
      <point x="454" y="-517" type="curve" smooth="yes"/>
      <point x="716" y="-517"/>
      <point x="795" y="-335"/>
      <point x="838" y="-97" type="curve"/>
      <point x="1049" y="1100" type="line"/>
      <point x="550" y="1100" type="line"/>
      <point x="524" y="955" type="line"/>
      <point x="753" y="955" type="line"/>
      <point x="873" y="995" type="line"/>
    </contour>
  </outline>
</glyph>
<glyph name="k" format="2">
  <advance width="1300"/>
  <unicode hex="006B"/>
  <outline>
    <contour>
      <point x="342" y="0" type="line"/>
      <point x="440" y="557" type="line"/>
      <point x="816" y="0" type="line"/>
      <point x="1052" y="0" type="line"/>
      <point x="670" y="567" type="line"/>
      <point x="513" y="627" type="line"/>
      <point x="692" y="690" type="line"/>
      <point x="1134" y="1100" type="line"/>
      <point x="905" y="1100" type="line"/>
      <point x="463" y="690" type="line"/>
      <point x="627" y="1620" type="line"/>
      <point x="422" y="1600" type="line"/>
      <point x="410" y="1420" type="line"/>
      <point x="160" y="0" type="line"/>
    </contour>
  </outline>
</glyph>
<glyph name="l" format="2">
  <advance width="1300"/>
  <unicode hex="006C"/>
  <outline>
    <contour>
      <point x="592" y="1414" type="line"/>
      <point x="418" y="400" type="line"/>
      <point x="407" y="344"/>
      <point x="402" y="292"/>
      <point x="402" y="244" type="curve" smooth="yes"/>
      <point x="402" y="92"/>
      <point x="536" y="-17"/>
      <point x="719" y="-17" type="curve" smooth="yes"/>
      <point x="865" y="-17"/>
      <point x="1006" y="98"/>
      <point x="1030" y="120" type="curve"/>
      <point x="982" y="241" type="line"/>
      <point x="940" y="205"/>
      <point x="826" y="133"/>
      <point x="757" y="133" type="curve" smooth="yes"/>
      <point x="653" y="133"/>
      <point x="593" y="168"/>
      <point x="593" y="269" type="curve" smooth="yes"/>
      <point x="593" y="298"/>
      <point x="595" y="333"/>
      <point x="603" y="376" type="curve" smooth="yes"/>
      <point x="819" y="1600" type="line"/>
      <point x="333" y="1600" type="line"/>
      <point x="305" y="1435" type="line"/>
      <point x="515" y="1435" type="line"/>
      <point x="635" y="1475" type="line"/>
    </contour>
  </outline>
</glyph>
<glyph name="m" format="2">
  <advance width="1300"/>
  <unicode hex="006D"/>
  <outline>
    <contour>
      <point x="345" y="824" type="line"/>
      <point x="401" y="907"/>
      <point x="490" y="957"/>
      <point x="533" y="957" type="curve" smooth="yes"/>
      <point x="623" y="957"/>
      <point x="624" y="895"/>
      <point x="624" y="862" type="curve" smooth="yes"/>
      <point x="624" y="835"/>
      <point x="618" y="792"/>
      <point x="606" y="720" type="curve"/>
      <point x="479" y="0" type="line"/>
      <point x="658" y="0" type="line"/>
      <point x="786" y="727" type="line"/>
      <point x="789" y="740"/>
      <point x="797" y="802"/>
      <point x="800" y="819" type="curve"/>
      <point x="840" y="885"/>
      <point x="946" y="957"/>
      <point x="999" y="957" type="curve" smooth="yes"/>
      <point x="1084" y="957"/>
      <point x="1088" y="908"/>
      <point x="1088" y="872" type="curve" smooth="yes"/>
      <point x="1088" y="849"/>
      <point x="1083" y="812"/>
      <point x="1070" y="740" type="curve" smooth="yes"/>
      <point x="940" y="0" type="line"/>
      <point x="1118" y="0" type="line"/>
      <point x="1250" y="750" type="line" smooth="yes"/>
      <point x="1270" y="862"/>
      <point x="1272" y="915"/>
      <point x="1272" y="939" type="curve" smooth="yes"/>
      <point x="1272" y="1029"/>
      <point x="1248" y="1117"/>
      <point x="1092" y="1117" type="curve" smooth="yes"/>
      <point x="1007" y="1117"/>
      <point x="917" y="1068"/>
      <point x="887" y="1043" type="curve"/>
      <point x="803" y="923" type="line"/>
      <point x="795" y="1036"/>
      <point x="775" y="1117"/>
      <point x="626" y="1117" type="curve" smooth="yes"/>
      <point x="522" y="1117"/>
      <point x="473" y="1072"/>
      <point x="443" y="1048" type="curve"/>
      <point x="439" y="1048"/>
      <point x="440" y="1044"/>
      <point x="365" y="937" type="curve"/>
      <point x="397" y="1121" type="line"/>
      <point x="216" y="1100" type="line"/>
      <point x="23" y="0" type="line"/>
      <point x="200" y="0" type="line"/>
    </contour>
  </outline>
</glyph>
<glyph name="n" format="2">
  <advance width="1300"/>
  <unicode hex="006E"/>
  <outline>
    <contour>
      <point x="439" y="834" type="line"/>
      <point x="519" y="885"/>
      <point x="629" y="957"/>
      <point x="770" y="957" type="curve" smooth="yes"/>
      <point x="878" y="957"/>
      <point x="948" y="934"/>
      <point x="948" y="802" type="curve" smooth="yes"/>
      <point x="948" y="786"/>
      <point x="946" y="769"/>
      <point x="943" y="750" type="curve" smooth="yes"/>
      <point x="811" y="0" type="line"/>
      <point x="1001" y="0" type="line"/>
      <point x="1133" y="750" type="line" smooth="yes"/>
      <point x="1139" y="783"/>
      <point x="1142" y="814"/>
      <point x="1142" y="844" type="curve" smooth="yes"/>
      <point x="1142" y="1015"/>
      <point x="1046" y="1117"/>
      <point x="863" y="1117" type="curve" smooth="yes"/>
      <point x="690" y="1117"/>
      <point x="590" y="1076"/>
      <point x="537" y="1044" type="curve"/>
      <point x="455" y="927" type="line"/>
      <point x="489" y="1121" type="line"/>
      <point x="296" y="1100" type="line"/>
      <point x="102" y="0" type="line"/>
      <point x="292" y="0" type="line"/>
    </contour>
  </outline>
</glyph>
<glyph name="o" format="2">
  <advance width="1300"/>
  <unicode hex="006F"/>
  <outline>
    <contour>
      <point x="567" y="-17" type="curve" smooth="yes"/>
      <point x="942" y="-17"/>
      <point x="1176" y="234"/>
      <point x="1176" y="631" type="curve" smooth="yes"/>
      <point x="1176" y="936"/>
      <point x="998" y="1117"/>
      <point x="726" y="1117" type="curve" smooth="yes"/>
      <point x="372" y="1117"/>
      <point x="124" y="854"/>
      <point x="124" y="473" type="curve" smooth="yes"/>
      <point x="124" y="177"/>
      <point x="303" y="-17"/>
    </contour>
    <contour>
      <point x="993" y="622" type="curve" smooth="yes"/>
      <point x="993" y="389"/>
      <point x="841" y="138"/>
      <point x="586" y="138" type="curve" smooth="yes"/>
      <point x="397" y="138"/>
      <point x="307" y="279"/>
      <point x="307" y="480" type="curve" smooth="yes"/>
      <point x="307" y="715"/>
      <point x="446" y="963"/>
      <point x="706" y="963" type="curve" smooth="yes"/>
      <point x="897" y="963"/>
      <point x="993" y="822"/>
    </contour>
  </outline>
</glyph>
<glyph name="p" format="2">
  <advance width="1300"/>
  <unicode hex="0070"/>
  <outline>
    <contour>
      <point x="507" y="827" type="line"/>
      <point x="587" y="904"/>
      <point x="668" y="960"/>
      <point x="768" y="960" type="curve" smooth="yes"/>
      <point x="907" y="960"/>
      <point x="991" y="861"/>
      <point x="991" y="677" type="curve" smooth="yes"/>
      <point x="991" y="402"/>
      <point x="875" y="160"/>
      <point x="572" y="160" type="curve" smooth="yes"/>
      <point x="390" y="160" type="line"/>
    </contour>
    <contour>
      <point x="508" y="0" type="line" smooth="yes"/>
      <point x="969" y="0"/>
      <point x="1173" y="317"/>
      <point x="1173" y="695" type="curve" smooth="yes"/>
      <point x="1173" y="964"/>
      <point x="1030" y="1117"/>
      <point x="834" y="1117" type="curve" smooth="yes"/>
      <point x="730" y="1117"/>
      <point x="677" y="1082"/>
      <point x="623" y="1047" type="curve"/>
      <point x="528" y="944" type="line"/>
      <point x="559" y="1121" type="line"/>
      <point x="373" y="1100" type="line"/>
      <point x="91" y="-500" type="line"/>
      <point x="273" y="-500" type="line"/>
      <point x="362" y="0" type="line"/>
    </contour>
  </outline>
</glyph>
<glyph name="q" format="2">
  <advance width="1300"/>
  <unicode hex="0071"/>
  <outline>
    <contour>
      <point x="816" y="270" type="line"/>
      <point x="735" y="195"/>
      <point x="638" y="140"/>
      <point x="545" y="140" type="curve" smooth="yes"/>
      <point x="416" y="140"/>
      <point x="340" y="228"/>
      <point x="340" y="425" type="curve" smooth="yes"/>
      <point x="340" y="636"/>
      <point x="414" y="957"/>
      <point x="713" y="957" type="curve" smooth="yes"/>
      <point x="788" y="957"/>
      <point x="881" y="945"/>
      <point x="933" y="935" type="curve"/>
    </contour>
    <contour>
      <point x="862" y="-500" type="line"/>
      <point x="1138" y="1065" type="line"/>
      <point x="990" y="1092"/>
      <point x="904" y="1117"/>
      <point x="727" y="1117" type="curve" smooth="yes"/>
      <point x="390" y="1117"/>
      <point x="155" y="818"/>
      <point x="155" y="432" type="curve" smooth="yes"/>
      <point x="155" y="149"/>
      <point x="275" y="-17"/>
      <point x="470" y="-17" type="curve" smooth="yes"/>
      <point x="553" y="-17"/>
      <point x="594" y="-3"/>
      <point x="669" y="29" type="curve"/>
      <point x="792" y="136" type="line"/>
      <point x="680" y="-500" type="line"/>
    </contour>
  </outline>
</glyph>
<glyph name="r" format="2">
  <advance width="1300"/>
  <unicode hex="0072"/>
  <outline>
    <contour>
      <point x="487" y="1121" type="line"/>
      <point x="294" y="1100" type="line"/>
      <point x="100" y="0" type="line"/>
      <point x="290" y="0" type="line"/>
      <point x="422" y="750" type="line"/>
      <point x="513" y="857"/>
      <point x="665" y="968"/>
      <point x="846" y="968" type="curve" smooth="yes"/>
      <point x="906" y="968"/>
      <point x="942" y="955"/>
      <point x="961" y="948" type="curve"/>
      <point x="980" y="779" type="line"/>
      <point x="1125" y="800" type="line"/>
      <point x="1125" y="1053" type="line"/>
      <point x="1096" y="1074"/>
      <point x="1005" y="1117"/>
      <point x="866" y="1117" type="curve" smooth="yes"/>
      <point x="773" y="1117"/>
      <point x="652" y="1110"/>
      <point x="566" y="1053" type="curve"/>
      <point x="448" y="895" type="line"/>
    </contour>
  </outline>
</glyph>
<glyph name="s" format="2">
  <advance width="1300"/>
  <unicode hex="0073"/>
  <outline>
    <contour>
      <point x="1147" y="1047" type="line"/>
      <point x="1099" y="1082"/>
      <point x="934" y="1117"/>
      <point x="833" y="1117" type="curve" smooth="yes"/>
      <point x="545" y="1117"/>
      <point x="280" y="1034"/>
      <point x="280" y="779" type="curve" smooth="yes"/>
      <point x="280" y="693"/>
      <point x="322" y="617"/>
      <point x="442" y="566" type="curve" smooth="yes"/>
      <point x="593" y="502"/>
      <point x="886" y="499"/>
      <point x="886" y="359" type="curve" smooth="yes"/>
      <point x="886" y="184"/>
      <point x="625" y="143"/>
      <point x="505" y="143" type="curve" smooth="yes"/>
      <point x="433" y="143"/>
      <point x="280" y="179"/>
      <point x="221" y="211" type="curve"/>
      <point x="130" y="69" type="line"/>
      <point x="192" y="20"/>
      <point x="384" y="-17"/>
      <point x="475" y="-17" type="curve" smooth="yes"/>
      <point x="712" y="-17"/>
      <point x="1112" y="71"/>
      <point x="1112" y="383" type="curve" smooth="yes"/>
      <point x="1112" y="493"/>
      <point x="1033" y="570"/>
      <point x="933" y="610" type="curve" smooth="yes"/>
      <point x="797" y="666"/>
      <point x="474" y="687"/>
      <point x="474" y="817" type="curve" smooth="yes"/>
      <point x="474" y="945"/>
      <point x="672" y="968"/>
      <point x="813" y="968" type="curve" smooth="yes"/>
      <point x="880" y="968"/>
      <point x="1018" y="934"/>
      <point x="1065" y="909" type="curve"/>
    </contour>
  </outline>
</glyph>
<glyph name="t" format="2">
  <advance width="1300"/>
  <unicode hex="0074"/>
  <outline>
    <contour>
      <point x="633" y="940" type="line"/>
      <point x="1048" y="940" type="line"/>
      <point x="1096" y="1100" type="line"/>
      <point x="656" y="1100" type="line"/>
      <point x="712" y="1420" type="line"/>
      <point x="508" y="1309" type="line"/>
      <point x="471" y="1100" type="line"/>
      <point x="170" y="1100" type="line"/>
      <point x="142" y="940" type="line"/>
      <point x="443" y="940" type="line"/>
      <point x="347" y="400" type="line" smooth="yes"/>
      <point x="336" y="339"/>
      <point x="329" y="281"/>
      <point x="329" y="229" type="curve" smooth="yes"/>
      <point x="329" y="85"/>
      <point x="382" y="-17"/>
      <point x="559" y="-17" type="curve" smooth="yes"/>
      <point x="750" y="-17"/>
      <point x="939" y="88"/>
      <point x="968" y="109" type="curve"/>
      <point x="920" y="230" type="line"/>
      <point x="872" y="211"/>
      <point x="732" y="143"/>
      <point x="607" y="143" type="curve" smooth="yes"/>
      <point x="551" y="143"/>
      <point x="521" y="173"/>
      <point x="521" y="261" type="curve" smooth="yes"/>
      <point x="521" y="292"/>
      <point x="525" y="330"/>
      <point x="533" y="376" type="curve" smooth="yes"/>
    </contour>
  </outline>
</glyph>
<glyph name="u" format="2">
  <advance width="1300"/>
  <unicode hex="0075"/>
  <outline>
    <contour>
      <point x="819" y="258" type="line"/>
      <point x="747" y="202"/>
      <point x="675" y="143"/>
      <point x="498" y="143" type="curve" smooth="yes"/>
      <point x="364" y="143"/>
      <point x="312" y="219"/>
      <point x="312" y="326" type="curve" smooth="yes"/>
      <point x="312" y="350"/>
      <point x="314" y="374"/>
      <point x="319" y="401" type="curve" smooth="yes"/>
      <point x="451" y="1121" type="line"/>
      <point x="257" y="1100" type="line"/>
      <point x="129" y="401" type="line" smooth="yes"/>
      <point x="124" y="373"/>
      <point x="122" y="345"/>
      <point x="122" y="318" type="curve" smooth="yes"/>
      <point x="122" y="131"/>
      <point x="241" y="-17"/>
      <point x="425" y="-17" type="curve" smooth="yes"/>
      <point x="614" y="-17"/>
      <point x="658" y="19"/>
      <point x="722" y="56" type="curve"/>
      <point x="802" y="163" type="line"/>
      <point x="773" y="0" type="line"/>
      <point x="963" y="0" type="line"/>
      <point x="1161" y="1121" type="line"/>
      <point x="967" y="1100" type="line"/>
    </contour>
  </outline>
</glyph>
<glyph name="v" format="2">
  <advance width="1300"/>
  <unicode hex="0076"/>
  <outline>
    <contour>
      <point x="983" y="1100" type="line"/>
      <point x="563" y="381" type="line"/>
      <point x="472" y="149" type="line"/>
      <point x="460" y="381" type="line"/>
      <point x="351" y="1121" type="line"/>
      <point x="164" y="1100" type="line"/>
      <point x="328" y="0" type="line"/>
      <point x="530" y="-20" type="line"/>
      <point x="1202" y="1121" type="line"/>
    </contour>
  </outline>
</glyph>
<glyph name="w" format="2">
  <advance width="1300"/>
  <unicode hex="0077"/>
  <outline>
    <contour>
      <point x="711" y="885" type="line"/>
      <point x="558" y="885" type="line"/>
      <point x="263" y="150" type="line"/>
      <point x="300" y="480" type="line"/>
      <point x="299" y="1121" type="line"/>
      <point x="146" y="1100" type="line"/>
      <point x="146" y="0" type="line"/>
      <point x="293" y="0" type="line"/>
      <point x="485" y="350" type="line"/>
      <point x="610" y="750" type="line"/>
      <point x="595" y="348" type="line"/>
      <point x="666" y="0" type="line"/>
      <point x="813" y="0" type="line"/>
      <point x="1229" y="1121" type="line"/>
      <point x="1063" y="1100" type="line"/>
      <point x="823" y="480" type="line"/>
      <point x="754" y="150" type="line"/>
      <point x="737" y="400" type="line"/>
    </contour>
  </outline>
</glyph>
<glyph name="x" format="2">
  <advance width="1300"/>
  <unicode hex="0078"/>
  <outline>
    <contour>
      <point x="1076" y="0" type="line"/>
      <point x="767" y="583" type="line"/>
      <point x="1236" y="1121" type="line"/>
      <point x="1021" y="1100" type="line"/>
      <point x="740" y="781" type="line"/>
      <point x="683" y="670" type="line"/>
      <point x="663" y="781" type="line"/>
      <point x="487" y="1121" type="line"/>
      <point x="273" y="1100" type="line"/>
      <point x="541" y="588" type="line"/>
      <point x="26" y="0" type="line"/>
      <point x="225" y="0" type="line"/>
      <point x="560" y="382" type="line"/>
      <point x="626" y="500" type="line"/>
      <point x="650" y="382" type="line"/>
      <point x="851" y="0" type="line"/>
    </contour>
  </outline>
</glyph>
<glyph name="y" format="2">
  <advance width="1300"/>
  <unicode hex="0079"/>
  <outline>
    <contour>
      <point x="573" y="132" type="line"/>
      <point x="562" y="364" type="line"/>
      <point x="535" y="505"/>
      <point x="512" y="631"/>
      <point x="491" y="742" type="curve" smooth="yes"/>
      <point x="472" y="837"/>
      <point x="455" y="930"/>
      <point x="442" y="1002" type="curve" smooth="yes"/>
      <point x="435" y="1043"/>
      <point x="427" y="1083"/>
      <point x="420" y="1121" type="curve"/>
      <point x="247" y="1100" type="line"/>
      <point x="462" y="-47" type="line"/>
      <point x="334" y="-260"/>
      <point x="292" y="-328"/>
      <point x="196" y="-328" type="curve" smooth="yes"/>
      <point x="192" y="-328" type="line"/>
      <point x="160" y="-327"/>
      <point x="119" y="-312"/>
      <point x="100" y="-296" type="curve"/>
      <point x="8" y="-403" type="line"/>
      <point x="55" y="-451"/>
      <point x="113" y="-480"/>
      <point x="200" y="-480" type="curve" smooth="yes"/>
      <point x="204" y="-480" type="line" smooth="yes"/>
      <point x="390" y="-480"/>
      <point x="474" y="-333"/>
      <point x="644" y="-17" type="curve" smooth="yes"/>
      <point x="1257" y="1121" type="line"/>
      <point x="1064" y="1100" type="line"/>
      <point x="666" y="364" type="line"/>
    </contour>
  </outline>
</glyph>
<glyph name="z" format="2">
  <advance width="1300"/>
  <unicode hex="007A"/>
  <outline>
    <contour>
      <point x="585" y="160" type="line"/>
      <point x="373" y="120" type="line"/>
      <point x="552" y="280" type="line"/>
      <point x="1137" y="1051" type="line"/>
      <point x="1125" y="1100" type="line"/>
      <point x="321" y="1100" type="line"/>
      <point x="313" y="940" type="line"/>
      <point x="736" y="940" type="line"/>
      <point x="948" y="980" type="line"/>
      <point x="769" y="826" type="line"/>
      <point x="169" y="50" type="line"/>
      <point x="181" y="0" type="line"/>
      <point x="1000" y="0" type="line"/>
      <point x="1008" y="160" type="line"/>
    </contour>
  </outline>
</glyph>
<glyph name="braceleft" format="2">
  <advance width="1300"/>
  <unicode hex="007B"/>
  <outline>
    <contour>
      <point x="121" y="475" type="line"/>
      <point x="243" y="475" type="line" smooth="yes"/>
      <point x="350" y="475"/>
      <point x="365" y="420"/>
      <point x="365" y="361" type="curve" smooth="yes"/>
      <point x="365" y="342"/>
      <point x="363" y="305"/>
      <point x="348" y="220" type="curve" smooth="yes"/>
      <point x="306" y="-20" type="line" smooth="yes"/>
      <point x="299" y="-58"/>
      <point x="296" y="-96"/>
      <point x="296" y="-133" type="curve" smooth="yes"/>
      <point x="296" y="-152"/>
      <point x="291" y="-212"/>
      <point x="327" y="-288" type="curve" smooth="yes"/>
      <point x="363" y="-363"/>
      <point x="434" y="-416"/>
      <point x="555" y="-420" type="curve"/>
      <point x="566" y="-421"/>
      <point x="577" y="-421"/>
      <point x="587" y="-421" type="curve" smooth="yes"/>
      <point x="622" y="-421"/>
      <point x="659" y="-417"/>
      <point x="695" y="-409" type="curve"/>
      <point x="730" y="-400"/>
      <point x="757" y="-386"/>
      <point x="788" y="-373" type="curve"/>
      <point x="746" y="-250" type="line"/>
      <point x="720" y="-266"/>
      <point x="665" y="-277"/>
      <point x="633" y="-277" type="curve"/>
      <point x="632" y="-277" type="line"/>
      <point x="631" y="-277" type="line"/>
      <point x="630" y="-277" type="line"/>
      <point x="629" y="-277" type="line"/>
      <point x="628" y="-277" type="line"/>
      <point x="627" y="-277" type="line"/>
      <point x="626" y="-277" type="line"/>
      <point x="617" y="-277" type="line" smooth="yes"/>
      <point x="612" y="-277"/>
      <point x="606" y="-276"/>
      <point x="601" y="-275" type="curve"/>
      <point x="490" y="-275"/>
      <point x="477" y="-217"/>
      <point x="477" y="-164" type="curve" smooth="yes"/>
      <point x="477" y="-143"/>
      <point x="481" y="-103"/>
      <point x="496" y="-20" type="curve" smooth="yes"/>
      <point x="538" y="220" type="line"/>
      <point x="547" y="276"/>
      <point x="546" y="314"/>
      <point x="546" y="318" type="curve" smooth="yes"/>
      <point x="546" y="405"/>
      <point x="525" y="507"/>
      <point x="489" y="550" type="curve"/>
      <point x="598" y="622"/>
      <point x="623" y="692"/>
      <point x="655" y="880" type="curve" smooth="yes"/>
      <point x="697" y="1119" type="line" smooth="yes"/>
      <point x="727" y="1291"/>
      <point x="754" y="1369"/>
      <point x="892" y="1374" type="curve"/>
      <point x="902" y="1374" type="line" smooth="yes"/>
      <point x="938" y="1374"/>
      <point x="989" y="1369"/>
      <point x="1028" y="1349" type="curve"/>
      <point x="1113" y="1472" type="line"/>
      <point x="1054" y="1499"/>
      <point x="1017" y="1514"/>
      <point x="897" y="1519" type="curve"/>
      <point x="887" y="1520"/>
      <point x="877" y="1520"/>
      <point x="868" y="1520" type="curve" smooth="yes"/>
      <point x="771" y="1520"/>
      <point x="690" y="1498"/>
      <point x="630" y="1432" type="curve" smooth="yes"/>
      <point x="569" y="1366"/>
      <point x="532" y="1263"/>
      <point x="507" y="1119" type="curve" smooth="yes"/>
      <point x="465" y="880" type="line" smooth="yes"/>
      <point x="436" y="715"/>
      <point x="425" y="641"/>
      <point x="270" y="625" type="curve"/>
      <point x="148" y="625" type="line"/>
    </contour>
  </outline>
</glyph>
<glyph name="bar" format="2">
  <advance width="1300"/>
  <unicode hex="007C"/>
  <outline>
    <contour>
      <point x="564" y="1500" type="line"/>
      <point x="229" y="-400" type="line"/>
      <point x="423" y="-400" type="line"/>
      <point x="762" y="1520" type="line"/>
    </contour>
  </outline>
</glyph>
<glyph name="asciitilde" format="2">
  <advance width="1300"/>
  <unicode hex="007E"/>
  <outline>
    <contour>
      <point x="224" y="468" type="line"/>
      <point x="265" y="556"/>
      <point x="333" y="596"/>
      <point x="414" y="611" type="curve"/>
      <point x="423" y="612"/>
      <point x="432" y="613"/>
      <point x="441" y="613" type="curve" smooth="yes"/>
      <point x="484" y="613"/>
      <point x="552" y="587"/>
      <point x="625" y="536" type="curve" smooth="yes"/>
      <point x="693" y="488"/>
      <point x="766" y="434"/>
      <point x="836" y="422" type="curve"/>
      <point x="850" y="419"/>
      <point x="864" y="418"/>
      <point x="877" y="418" type="curve" smooth="yes"/>
      <point x="937" y="418"/>
      <point x="1013" y="446"/>
      <point x="1086" y="514" type="curve" smooth="yes"/>
      <point x="1158" y="582"/>
      <point x="1215" y="679"/>
      <point x="1242" y="776" type="curve"/>
      <point x="1099" y="792" type="line"/>
      <point x="1052" y="685"/>
      <point x="991" y="632"/>
      <point x="895" y="616" type="curve"/>
      <point x="886" y="615"/>
      <point x="877" y="614"/>
      <point x="868" y="614" type="curve" smooth="yes"/>
      <point x="823" y="614"/>
      <point x="764" y="641"/>
      <point x="696" y="693" type="curve" smooth="yes"/>
      <point x="632" y="741"/>
      <point x="561" y="793"/>
      <point x="472" y="805" type="curve"/>
      <point x="461" y="806"/>
      <point x="450" y="807"/>
      <point x="439" y="807" type="curve" smooth="yes"/>
      <point x="374" y="807"/>
      <point x="299" y="780"/>
      <point x="229" y="719" type="curve" smooth="yes"/>
      <point x="159" y="658"/>
      <point x="103" y="572"/>
      <point x="78" y="484" type="curve"/>
    </contour>
  </outline>
</glyph>
<glyph name="exclamdown" format="2">
  <advance width="1300"/>
  <unicode hex="00A1"/>
  <outline>
    <contour>
      <point x="664" y="998" type="curve" smooth="yes"/>
      <point x="664" y="1066"/>
      <point x="626" y="1113"/>
      <point x="563" y="1121" type="curve" smooth="yes"/>
      <point x="556" y="1122"/>
      <point x="550" y="1122"/>
      <point x="544" y="1122" type="curve" smooth="yes"/>
      <point x="520" y="1122"/>
      <point x="490" y="1116"/>
      <point x="464" y="1094" type="curve" smooth="yes"/>
      <point x="438" y="1072"/>
      <point x="422" y="1039"/>
      <point x="422" y="1003" type="curve" smooth="yes"/>
      <point x="422" y="998" type="line"/>
      <point x="425" y="948"/>
      <point x="457" y="888"/>
      <point x="521" y="877" type="curve" smooth="yes"/>
      <point x="526" y="876"/>
      <point x="532" y="876"/>
      <point x="538" y="876" type="curve" smooth="yes"/>
      <point x="559" y="876"/>
      <point x="589" y="883"/>
      <point x="617" y="904" type="curve" smooth="yes"/>
      <point x="645" y="925"/>
      <point x="664" y="958"/>
    </contour>
    <contour>
      <point x="396" y="-396" type="line"/>
      <point x="585" y="675" type="line"/>
      <point x="381" y="654" type="line"/>
      <point x="196" y="-396" type="line"/>
    </contour>
  </outline>
</glyph>
<glyph name="cent" format="2">
  <advance width="1300"/>
  <unicode hex="00A2"/>
  <outline>
    <contour>
      <point x="756" y="1300" type="line"/>
      <point x="723" y="1112" type="line"/>
      <point x="472" y="1080"/>
      <point x="238" y="909"/>
      <point x="206" y="601" type="curve" smooth="yes"/>
      <point x="201" y="556"/>
      <point x="199" y="511"/>
      <point x="199" y="468" type="curve" smooth="yes"/>
      <point x="199" y="443"/>
      <point x="195" y="374"/>
      <point x="222" y="276" type="curve" smooth="yes"/>
      <point x="249" y="178"/>
      <point x="300" y="93"/>
      <point x="387" y="32" type="curve"/>
      <point x="426" y="9"/>
      <point x="473" y="-5"/>
      <point x="524" y="-12" type="curve"/>
      <point x="491" y="-200" type="line"/>
      <point x="637" y="-200" type="line"/>
      <point x="670" y="-13" type="line"/>
      <point x="706" y="-10"/>
      <point x="739" y="-3"/>
      <point x="770" y="6" type="curve" smooth="yes"/>
      <point x="822" y="21"/>
      <point x="869" y="41"/>
      <point x="911" y="67" type="curve"/>
      <point x="864" y="208" type="line"/>
      <point x="842" y="195"/>
      <point x="812" y="182"/>
      <point x="774" y="170" type="curve" smooth="yes"/>
      <point x="747" y="161"/>
      <point x="719" y="156"/>
      <point x="686" y="153" type="curve"/>
      <point x="827" y="951" type="line"/>
      <point x="846" y="948"/>
      <point x="862" y="942"/>
      <point x="878" y="935" type="curve" smooth="yes"/>
      <point x="911" y="920"/>
      <point x="938" y="901"/>
      <point x="961" y="878" type="curve"/>
      <point x="1080" y="991" type="line"/>
      <point x="1046" y="1037"/>
      <point x="1006" y="1069"/>
      <point x="961" y="1088" type="curve" smooth="yes"/>
      <point x="934" y="1099"/>
      <point x="903" y="1108"/>
      <point x="869" y="1113" type="curve"/>
      <point x="905" y="1320" type="line"/>
    </contour>
    <contour>
      <point x="377" y="574" type="curve" smooth="yes"/>
      <point x="401" y="764"/>
      <point x="514" y="915"/>
      <point x="706" y="952" type="curve"/>
      <point x="566" y="158" type="line"/>
      <point x="487" y="179"/>
      <point x="434" y="231"/>
      <point x="403" y="304" type="curve" smooth="yes"/>
      <point x="372" y="376"/>
      <point x="371" y="444"/>
      <point x="371" y="483" type="curve" smooth="yes"/>
      <point x="371" y="512"/>
      <point x="373" y="543"/>
    </contour>
  </outline>
</glyph>
<glyph name="sterling" format="2">
  <advance width="1300"/>
  <unicode hex="00A3"/>
  <outline>
    <contour>
      <point x="353" y="700" type="line"/>
      <point x="493" y="700" type="line"/>
      <point x="396" y="397"/>
      <point x="331" y="229"/>
      <point x="300" y="197" type="curve" smooth="yes"/>
      <point x="268" y="164"/>
      <point x="240" y="147"/>
      <point x="217" y="147" type="curve" smooth="yes"/>
      <point x="79" y="147" type="line"/>
      <point x="34" y="0" type="line"/>
      <point x="980" y="0" type="line"/>
      <point x="1005" y="147" type="line"/>
      <point x="567" y="147" type="line"/>
      <point x="398" y="104" type="line"/>
      <point x="507" y="224" type="line" smooth="yes"/>
      <point x="531" y="250"/>
      <point x="587" y="409"/>
      <point x="675" y="700" type="curve"/>
      <point x="883" y="700" type="line"/>
      <point x="929" y="850" type="line"/>
      <point x="722" y="850" type="line"/>
      <point x="815" y="1141" type="line" smooth="yes"/>
      <point x="847" y="1241"/>
      <point x="873" y="1299"/>
      <point x="906" y="1332" type="curve" smooth="yes"/>
      <point x="939" y="1364"/>
      <point x="977" y="1369"/>
      <point x="1022" y="1369" type="curve" smooth="yes"/>
      <point x="1040" y="1369" type="line"/>
      <point x="1086" y="1366"/>
      <point x="1146" y="1338"/>
      <point x="1168" y="1324" type="curve"/>
      <point x="1276" y="1425" type="line"/>
      <point x="1261" y="1442"/>
      <point x="1231" y="1462"/>
      <point x="1186" y="1484" type="curve"/>
      <point x="1142" y="1507"/>
      <point x="1090" y="1517"/>
      <point x="1031" y="1517" type="curve" smooth="yes"/>
      <point x="1020" y="1517" type="line"/>
      <point x="801" y="1514"/>
      <point x="729" y="1437"/>
      <point x="641" y="1165" type="curve" smooth="yes"/>
      <point x="540" y="850" type="line"/>
      <point x="379" y="850" type="line"/>
    </contour>
  </outline>
</glyph>
<glyph name="currency" format="2">
  <advance width="1300"/>
  <unicode hex="00A4"/>
  <outline>
    <contour>
      <point x="872" y="378" type="line"/>
      <point x="906" y="410"/>
      <point x="932" y="446"/>
      <point x="949" y="487" type="curve" smooth="yes"/>
      <point x="984" y="567"/>
      <point x="983" y="618"/>
      <point x="983" y="645" type="curve" smooth="yes"/>
      <point x="983" y="692"/>
      <point x="972" y="752"/>
      <point x="944" y="784" type="curve"/>
      <point x="1127" y="940" type="line"/>
      <point x="1044" y="1042" type="line"/>
      <point x="861" y="885" type="line"/>
      <point x="840" y="908"/>
      <point x="797" y="926"/>
      <point x="746" y="937" type="curve" smooth="yes"/>
      <point x="694" y="948"/>
      <point x="658" y="947"/>
      <point x="646" y="947" type="curve" smooth="yes"/>
      <point x="583" y="947"/>
      <point x="496" y="934"/>
      <point x="455" y="885" type="curve"/>
      <point x="326" y="1042" type="line"/>
      <point x="207" y="940" type="line"/>
      <point x="337" y="784" type="line"/>
      <point x="313" y="765"/>
      <point x="292" y="740"/>
      <point x="275" y="711" type="curve" smooth="yes"/>
      <point x="239" y="651"/>
      <point x="229" y="589"/>
      <point x="229" y="537" type="curve" smooth="yes"/>
      <point x="229" y="512"/>
      <point x="228" y="457"/>
      <point x="265" y="378" type="curve"/>
      <point x="81" y="222" type="line"/>
      <point x="164" y="121" type="line"/>
      <point x="348" y="278" type="line"/>
      <point x="404" y="218"/>
      <point x="493" y="206"/>
      <point x="542" y="206" type="curve" smooth="yes"/>
      <point x="562" y="206"/>
      <point x="602" y="208"/>
      <point x="650" y="221" type="curve" smooth="yes"/>
      <point x="698" y="233"/>
      <point x="737" y="254"/>
      <point x="754" y="278" type="curve"/>
      <point x="882" y="121" type="line"/>
      <point x="1001" y="222" type="line"/>
    </contour>
    <contour>
      <point x="419" y="424" type="curve" smooth="yes"/>
      <point x="390" y="457"/>
      <point x="383" y="506"/>
      <point x="383" y="541" type="curve" smooth="yes"/>
      <point x="383" y="552"/>
      <point x="384" y="569"/>
      <point x="387" y="590" type="curve" smooth="yes"/>
      <point x="392" y="632"/>
      <point x="422" y="698"/>
      <point x="475" y="738" type="curve" smooth="yes"/>
      <point x="494" y="752"/>
      <point x="518" y="764"/>
      <point x="545" y="775" type="curve" smooth="yes"/>
      <point x="599" y="796"/>
      <point x="635" y="795"/>
      <point x="647" y="795" type="curve" smooth="yes"/>
      <point x="692" y="795"/>
      <point x="745" y="785"/>
      <point x="789" y="738" type="curve" smooth="yes"/>
      <point x="830" y="693"/>
      <point x="835" y="647"/>
      <point x="835" y="616" type="curve" smooth="yes"/>
      <point x="835" y="603"/>
      <point x="833" y="585"/>
      <point x="829" y="564" type="curve" smooth="yes"/>
      <point x="820" y="521"/>
      <point x="787" y="461"/>
      <point x="743" y="424" type="curve" smooth="yes"/>
      <point x="719" y="403"/>
      <point x="693" y="386"/>
      <point x="665" y="374" type="curve" smooth="yes"/>
      <point x="608" y="350"/>
      <point x="576" y="354"/>
      <point x="571" y="354" type="curve" smooth="yes"/>
      <point x="519" y="354"/>
      <point x="464" y="373"/>
    </contour>
  </outline>
</glyph>
<glyph name="brokenbar" format="2">
  <advance width="1300"/>
  <unicode hex="00A6"/>
  <outline>
    <contour>
      <point x="566" y="1500" type="line"/>
      <point x="425" y="700" type="line"/>
      <point x="625" y="700" type="line"/>
      <point x="770" y="1520" type="line"/>
    </contour>
    <contour>
      <point x="365" y="362" type="line"/>
      <point x="231" y="-400" type="line"/>
      <point x="431" y="-400" type="line"/>
      <point x="565" y="362" type="line"/>
    </contour>
  </outline>
</glyph>
<glyph name="section" format="2">
  <advance width="1300"/>
  <unicode hex="00A7"/>
  <outline>
    <contour>
      <point x="1087" y="1448" type="line"/>
      <point x="1008" y="1503"/>
      <point x="922" y="1517"/>
      <point x="813" y="1517" type="curve" smooth="yes"/>
      <point x="580" y="1517"/>
      <point x="382" y="1425"/>
      <point x="355" y="1188" type="curve"/>
      <point x="354" y="1176"/>
      <point x="353" y="1164"/>
      <point x="353" y="1152" type="curve" smooth="yes"/>
      <point x="353" y="1120"/>
      <point x="359" y="1078"/>
      <point x="380" y="1031" type="curve" smooth="yes"/>
      <point x="401" y="984"/>
      <point x="436" y="944"/>
      <point x="477" y="907" type="curve" smooth="yes"/>
      <point x="504" y="883" type="line"/>
      <point x="471" y="874"/>
      <point x="438" y="860"/>
      <point x="407" y="842" type="curve" smooth="yes"/>
      <point x="316" y="791"/>
      <point x="237" y="710"/>
      <point x="229" y="585" type="curve" smooth="yes"/>
      <point x="228" y="573"/>
      <point x="228" y="561"/>
      <point x="228" y="550" type="curve" smooth="yes"/>
      <point x="228" y="477"/>
      <point x="246" y="406"/>
      <point x="285" y="345" type="curve" smooth="yes"/>
      <point x="324" y="284"/>
      <point x="378" y="236"/>
      <point x="433" y="193" type="curve" smooth="yes"/>
      <point x="543" y="106"/>
      <point x="655" y="38"/>
      <point x="658" y="-97" type="curve"/>
      <point x="658" y="-101" type="line" smooth="yes"/>
      <point x="658" y="-235"/>
      <point x="514" y="-293"/>
      <point x="381" y="-293" type="curve" smooth="yes"/>
      <point x="305" y="-293"/>
      <point x="238" y="-286"/>
      <point x="179" y="-251" type="curve"/>
      <point x="102" y="-348" type="line"/>
      <point x="181" y="-403"/>
      <point x="265" y="-417"/>
      <point x="376" y="-420" type="curve"/>
      <point x="392" y="-420" type="line" smooth="yes"/>
      <point x="629" y="-420"/>
      <point x="823" y="-305"/>
      <point x="834" y="-88" type="curve"/>
      <point x="835" y="-80"/>
      <point x="835" y="-72"/>
      <point x="835" y="-65" type="curve" smooth="yes"/>
      <point x="835" y="35"/>
      <point x="795" y="120"/>
      <point x="711" y="192" type="curve" smooth="yes"/>
      <point x="684" y="216" type="line"/>
      <point x="719" y="227"/>
      <point x="749" y="242"/>
      <point x="781" y="257" type="curve"/>
      <point x="871" y="294"/>
      <point x="949" y="373"/>
      <point x="960" y="515" type="curve" smooth="yes"/>
      <point x="961" y="527"/>
      <point x="961" y="539"/>
      <point x="961" y="550" type="curve" smooth="yes"/>
      <point x="961" y="621"/>
      <point x="944" y="689"/>
      <point x="905" y="750" type="curve" smooth="yes"/>
      <point x="866" y="811"/>
      <point x="812" y="859"/>
      <point x="757" y="903" type="curve" smooth="yes"/>
      <point x="647" y="990"/>
      <point x="531" y="1064"/>
      <point x="531" y="1197" type="curve" smooth="yes"/>
      <point x="531" y="1336"/>
      <point x="664" y="1393"/>
      <point x="792" y="1393" type="curve" smooth="yes"/>
      <point x="808" y="1393" type="line"/>
      <point x="884" y="1390"/>
      <point x="951" y="1386"/>
      <point x="1010" y="1351" type="curve"/>
    </contour>
    <contour>
      <point x="520" y="767" type="curve" smooth="yes"/>
      <point x="544" y="784"/>
      <point x="569" y="797"/>
      <point x="597" y="808" type="curve"/>
      <point x="652" y="763" type="line" smooth="yes"/>
      <point x="693" y="728"/>
      <point x="730" y="691"/>
      <point x="754" y="650" type="curve" smooth="yes"/>
      <point x="778" y="609"/>
      <point x="783" y="573"/>
      <point x="783" y="548" type="curve" smooth="yes"/>
      <point x="783" y="537"/>
      <point x="782" y="525"/>
      <point x="780" y="513" type="curve" smooth="yes"/>
      <point x="765" y="433"/>
      <point x="725" y="373"/>
      <point x="669" y="332" type="curve" smooth="yes"/>
      <point x="646" y="315"/>
      <point x="620" y="302"/>
      <point x="591" y="291" type="curve"/>
      <point x="537" y="336" type="line" smooth="yes"/>
      <point x="494" y="371"/>
      <point x="459" y="409"/>
      <point x="435" y="450" type="curve" smooth="yes"/>
      <point x="411" y="491"/>
      <point x="406" y="527"/>
      <point x="406" y="551" type="curve" smooth="yes"/>
      <point x="406" y="563"/>
      <point x="407" y="575"/>
      <point x="409" y="587" type="curve" smooth="yes"/>
      <point x="424" y="667"/>
      <point x="464" y="727"/>
    </contour>
  </outline>
</glyph>
<glyph name="ordfeminine" format="2">
  <advance width="1300"/>
  <unicode hex="00AA"/>
  <outline>
    <contour>
      <point x="687" y="962" type="line"/>
      <point x="692" y="1052" type="line"/>
      <point x="768" y="1493" type="line"/>
      <point x="717" y="1510"/>
      <point x="658" y="1520"/>
      <point x="602" y="1520" type="curve" smooth="yes"/>
      <point x="404" y="1520"/>
      <point x="304" y="1378"/>
      <point x="285" y="1230" type="curve" smooth="yes"/>
      <point x="282" y="1210"/>
      <point x="282" y="1190"/>
      <point x="282" y="1171" type="curve" smooth="yes"/>
      <point x="282" y="1043"/>
      <point x="337" y="953"/>
      <point x="433" y="953" type="curve" smooth="yes"/>
      <point x="492" y="953"/>
      <point x="514" y="964"/>
      <point x="542" y="986" type="curve"/>
      <point x="600" y="1043" type="line"/>
      <point x="586" y="962" type="line"/>
    </contour>
    <contour>
      <point x="612" y="1115" type="line"/>
      <point x="580" y="1075"/>
      <point x="532" y="1034"/>
      <point x="463" y="1034" type="curve" smooth="yes"/>
      <point x="412" y="1034"/>
      <point x="372" y="1080"/>
      <point x="372" y="1172" type="curve" smooth="yes"/>
      <point x="372" y="1186"/>
      <point x="373" y="1201"/>
      <point x="375" y="1218" type="curve" smooth="yes"/>
      <point x="388" y="1341"/>
      <point x="456" y="1441"/>
      <point x="591" y="1441" type="curve"/>
      <point x="601" y="1440"/>
      <point x="610" y="1439"/>
      <point x="619" y="1438" type="curve" smooth="yes"/>
      <point x="635" y="1437"/>
      <point x="653" y="1432"/>
      <point x="665" y="1427" type="curve"/>
    </contour>
    <contour>
      <point x="223" y="700" type="line"/>
      <point x="623" y="700" type="line"/>
      <point x="641" y="800" type="line"/>
      <point x="241" y="800" type="line"/>
    </contour>
  </outline>
</glyph>
<glyph name="guillemotleft" format="2">
  <advance width="1300"/>
  <unicode hex="00AB"/>
  <outline>
    <contour>
      <point x="108" y="617" type="line"/>
      <point x="84" y="478" type="line"/>
      <point x="479" y="66" type="line"/>
      <point x="557" y="201" type="line"/>
      <point x="280" y="490" type="line"/>
      <point x="153" y="550" type="line"/>
      <point x="302" y="610" type="line"/>
      <point x="678" y="901" type="line"/>
      <point x="650" y="1026" type="line"/>
    </contour>
    <contour>
      <point x="608" y="617" type="line"/>
      <point x="584" y="478" type="line"/>
      <point x="979" y="66" type="line"/>
      <point x="1057" y="201" type="line"/>
      <point x="780" y="490" type="line"/>
      <point x="653" y="550" type="line"/>
      <point x="802" y="610" type="line"/>
      <point x="1178" y="901" type="line"/>
      <point x="1150" y="1026" type="line"/>
    </contour>
  </outline>
</glyph>
<glyph name="registered" format="2">
  <advance width="1300"/>
  <unicode hex="00AE"/>
  <outline>
    <contour>
      <point x="717" y="1517" type="curve" smooth="yes"/>
      <point x="705" y="1518"/>
      <point x="692" y="1518"/>
      <point x="680" y="1518" type="curve" smooth="yes"/>
      <point x="413" y="1518"/>
      <point x="183" y="1303"/>
      <point x="164" y="1047" type="curve" smooth="yes"/>
      <point x="144" y="784"/>
      <point x="298" y="583"/>
      <point x="557" y="577" type="curve"/>
      <point x="571" y="577" type="line" smooth="yes"/>
      <point x="851" y="577"/>
      <point x="1071" y="784"/>
      <point x="1104" y="1047" type="curve" smooth="yes"/>
      <point x="1139" y="1325"/>
      <point x="978" y="1498"/>
    </contour>
    <contour>
      <point x="571" y="663" type="curve" smooth="yes"/>
      <point x="355" y="663"/>
      <point x="239" y="837"/>
      <point x="250" y="1047" type="curve" smooth="yes"/>
      <point x="262" y="1273"/>
      <point x="467" y="1439"/>
      <point x="696" y="1439" type="curve" smooth="yes"/>
      <point x="873" y="1439"/>
      <point x="1063" y="1288"/>
      <point x="1013" y="1047" type="curve" smooth="yes"/>
      <point x="957" y="776"/>
      <point x="763" y="663"/>
    </contour>
    <contour>
      <point x="541" y="1006" type="line"/>
      <point x="580" y="1006" type="line" smooth="yes"/>
      <point x="584" y="1006"/>
      <point x="591" y="1007"/>
      <point x="594" y="1000" type="curve"/>
      <point x="706" y="802" type="line"/>
      <point x="780" y="802" type="line"/>
      <point x="668" y="998" type="line"/>
      <point x="626" y="1010" type="line"/>
      <point x="710" y="1013"/>
      <point x="795" y="1064"/>
      <point x="795" y="1178" type="curve" smooth="yes"/>
      <point x="795" y="1250"/>
      <point x="745" y="1303"/>
      <point x="635" y="1303" type="curve" smooth="yes"/>
      <point x="593" y="1303"/>
      <point x="544" y="1297"/>
      <point x="514" y="1294" type="curve"/>
      <point x="514" y="1228" type="line"/>
      <point x="439" y="802" type="line"/>
      <point x="505" y="802" type="line"/>
    </contour>
    <contour>
      <point x="572" y="1181" type="line"/>
      <point x="578" y="1252" type="line"/>
      <point x="593" y="1255"/>
      <point x="616" y="1256"/>
      <point x="635" y="1256" type="curve" smooth="yes"/>
      <point x="686" y="1256"/>
      <point x="735" y="1223"/>
      <point x="735" y="1171" type="curve" smooth="yes"/>
      <point x="735" y="1095"/>
      <point x="679" y="1054"/>
      <point x="598" y="1054" type="curve" smooth="yes"/>
      <point x="549" y="1054" type="line"/>
    </contour>
  </outline>
</glyph>
<glyph name="plusminus" format="2">
  <advance width="1300"/>
  <unicode hex="00B1"/>
  <outline>
    <contour>
      <point x="196" y="738" type="line"/>
      <point x="569" y="738" type="line"/>
      <point x="494" y="400" type="line"/>
      <point x="649" y="400" type="line"/>
      <point x="724" y="738" type="line"/>
      <point x="1096" y="738" type="line"/>
      <point x="1123" y="862" type="line"/>
      <point x="751" y="862" type="line"/>
      <point x="826" y="1200" type="line"/>
      <point x="671" y="1200" type="line"/>
      <point x="596" y="862" type="line"/>
      <point x="223" y="862" type="line"/>
    </contour>
    <contour>
      <point x="98" y="150" type="line"/>
      <point x="998" y="150" type="line"/>
      <point x="998" y="290" type="line"/>
      <point x="98" y="290" type="line"/>
    </contour>
  </outline>
</glyph>
<glyph name="twosuperior" format="2">
  <advance width="1300"/>
  <unicode hex="00B2"/>
  <outline>
    <contour>
      <point x="587" y="720" type="line"/>
      <point x="601" y="800" type="line"/>
      <point x="266" y="800" type="line"/>
      <point x="315" y="873"/>
      <point x="389" y="937"/>
      <point x="486" y="1023" type="curve"/>
      <point x="561" y="1093"/>
      <point x="666" y="1165"/>
      <point x="671" y="1272" type="curve"/>
      <point x="671" y="1276"/>
      <point x="672" y="1280"/>
      <point x="672" y="1284" type="curve" smooth="yes"/>
      <point x="672" y="1377"/>
      <point x="617" y="1470"/>
      <point x="495" y="1478" type="curve"/>
      <point x="494" y="1478" type="line"/>
      <point x="493" y="1478" type="line"/>
      <point x="492" y="1478" type="line"/>
      <point x="492" y="1478" type="line"/>
      <point x="491" y="1478" type="line"/>
      <point x="491" y="1478" type="line"/>
      <point x="490" y="1478" type="line"/>
      <point x="489" y="1478" type="line"/>
      <point x="489" y="1478" type="line"/>
      <point x="486" y="1478" type="line"/>
      <point x="485" y="1478" type="line"/>
      <point x="485" y="1478" type="line"/>
      <point x="484" y="1478" type="line"/>
      <point x="483" y="1478" type="line"/>
      <point x="483" y="1478" type="line"/>
      <point x="482" y="1478" type="line"/>
      <point x="482" y="1478" type="line"/>
      <point x="481" y="1478" type="line"/>
      <point x="480" y="1478" type="line"/>
      <point x="480" y="1478" type="line"/>
      <point x="476" y="1478" type="line"/>
      <point x="476" y="1478" type="line"/>
      <point x="373" y="1478"/>
      <point x="292" y="1425"/>
      <point x="248" y="1330" type="curve"/>
      <point x="313" y="1300" type="line"/>
      <point x="339" y="1347"/>
      <point x="387" y="1396"/>
      <point x="449" y="1396" type="curve" smooth="yes"/>
      <point x="547" y="1396"/>
      <point x="581" y="1353"/>
      <point x="581" y="1281" type="curve" smooth="yes"/>
      <point x="581" y="1211"/>
      <point x="512" y="1153"/>
      <point x="432" y="1089" type="curve" smooth="yes"/>
      <point x="344" y="1017"/>
      <point x="241" y="935"/>
      <point x="150" y="804" type="curve"/>
      <point x="135" y="720" type="line"/>
    </contour>
  </outline>
</glyph>
<glyph name="threesuperior" format="2">
  <advance width="1300"/>
  <unicode hex="00B3"/>
  <outline>
    <contour>
      <point x="493" y="1390" type="line"/>
      <point x="573" y="1410" type="line"/>
      <point x="548" y="1364"/>
      <point x="393" y="1250"/>
      <point x="300" y="1190" type="curve"/>
      <point x="286" y="1113" type="line"/>
      <point x="314" y="1114"/>
      <point x="342" y="1115"/>
      <point x="373" y="1115" type="curve" smooth="yes"/>
      <point x="466" y="1115"/>
      <point x="531" y="1076"/>
      <point x="531" y="991" type="curve" smooth="yes"/>
      <point x="531" y="871"/>
      <point x="331" y="800"/>
      <point x="174" y="800" type="curve"/>
      <point x="160" y="720" type="line"/>
      <point x="375" y="720"/>
      <point x="634" y="794"/>
      <point x="634" y="1018" type="curve" smooth="yes"/>
      <point x="634" y="1125"/>
      <point x="540" y="1194"/>
      <point x="451" y="1194" type="curve" smooth="yes"/>
      <point x="415" y="1194" type="line"/>
      <point x="488" y="1229" type="line"/>
      <point x="557" y="1282"/>
      <point x="635" y="1346"/>
      <point x="659" y="1400" type="curve"/>
      <point x="672" y="1470" type="line"/>
      <point x="307" y="1470" type="line"/>
      <point x="285" y="1390" type="line"/>
    </contour>
  </outline>
</glyph>
<glyph name="acute" format="2">
  <advance width="1300"/>
  <unicode hex="00B4"/>
  <outline>
    <contour>
      <point x="651" y="1200" type="line"/>
      <point x="801" y="1200" type="line"/>
      <point x="1098" y="1520" type="line"/>
      <point x="864" y="1500" type="line"/>
    </contour>
  </outline>
</glyph>
<glyph name="paragraph" format="2">
  <advance width="1300"/>
  <unicode hex="00B6"/>
  <outline>
    <contour>
      <point x="359" y="-400" type="line"/>
      <point x="528" y="-400" type="line"/>
      <point x="836" y="1348" type="line"/>
      <point x="970" y="1348" type="line"/>
      <point x="662" y="-400" type="line"/>
      <point x="831" y="-400" type="line"/>
      <point x="1166" y="1500" type="line"/>
      <point x="694" y="1500" type="line"/>
      <point x="677" y="1501"/>
      <point x="660" y="1502"/>
      <point x="643" y="1502" type="curve" smooth="yes"/>
      <point x="552" y="1502"/>
      <point x="456" y="1487"/>
      <point x="370" y="1431" type="curve" smooth="yes"/>
      <point x="284" y="1374"/>
      <point x="222" y="1280"/>
      <point x="190" y="1144" type="curve" smooth="yes"/>
      <point x="180" y="1103"/>
      <point x="175" y="1064"/>
      <point x="175" y="1027" type="curve" smooth="yes"/>
      <point x="175" y="996"/>
      <point x="178" y="926"/>
      <point x="210" y="848" type="curve" smooth="yes"/>
      <point x="242" y="770"/>
      <point x="291" y="715"/>
      <point x="330" y="702" type="curve"/>
      <point x="386" y="681"/>
      <point x="446" y="652"/>
      <point x="544" y="647" type="curve"/>
    </contour>
  </outline>
</glyph>
<glyph name="periodcentered" format="2">
  <advance width="1300"/>
  <unicode hex="00B7"/>
  <outline>
    <contour>
      <point x="468" y="650" type="curve" smooth="yes"/>
      <point x="466" y="640"/>
      <point x="465" y="630"/>
      <point x="465" y="620" type="curve" smooth="yes"/>
      <point x="465" y="596"/>
      <point x="471" y="563"/>
      <point x="496" y="533" type="curve" smooth="yes"/>
      <point x="520" y="503"/>
      <point x="559" y="483"/>
      <point x="604" y="483" type="curve" smooth="yes"/>
      <point x="694" y="483"/>
      <point x="781" y="559"/>
      <point x="797" y="650" type="curve" smooth="yes"/>
      <point x="799" y="660"/>
      <point x="800" y="669"/>
      <point x="800" y="678" type="curve" smooth="yes"/>
      <point x="800" y="703"/>
      <point x="793" y="737"/>
      <point x="769" y="767" type="curve" smooth="yes"/>
      <point x="744" y="797"/>
      <point x="706" y="815"/>
      <point x="661" y="815" type="curve" smooth="yes"/>
      <point x="570" y="815"/>
      <point x="484" y="741"/>
    </contour>
  </outline>
</glyph>
<glyph name="onesuperior" format="2">
  <advance width="1300"/>
  <unicode hex="00B9"/>
  <outline>
    <contour>
      <point x="493" y="720" type="line"/>
      <point x="507" y="800" type="line"/>
      <point x="384" y="800" type="line"/>
      <point x="502" y="1470" type="line"/>
      <point x="434" y="1480" type="line"/>
      <point x="168" y="1270" type="line"/>
      <point x="211" y="1209" type="line"/>
      <point x="334" y="1303" type="line"/>
      <point x="418" y="1396" type="line"/>
      <point x="369" y="1283" type="line"/>
      <point x="284" y="800" type="line"/>
      <point x="162" y="800" type="line"/>
      <point x="148" y="720" type="line"/>
    </contour>
  </outline>
</glyph>
<glyph name="guillemotright" format="2">
  <advance width="1300"/>
  <unicode hex="00BB"/>
  <outline>
    <contour>
      <point x="310" y="1026" type="line"/>
      <point x="238" y="901" type="line"/>
      <point x="512" y="610" type="line"/>
      <point x="639" y="550" type="line"/>
      <point x="492" y="490" type="line"/>
      <point x="113" y="201" type="line"/>
      <point x="143" y="66" type="line"/>
      <point x="684" y="478" type="line"/>
      <point x="708" y="617" type="line"/>
    </contour>
    <contour>
      <point x="810" y="1026" type="line"/>
      <point x="738" y="901" type="line"/>
      <point x="1012" y="610" type="line"/>
      <point x="1139" y="550" type="line"/>
      <point x="992" y="490" type="line"/>
      <point x="613" y="201" type="line"/>
      <point x="643" y="66" type="line"/>
      <point x="1184" y="478" type="line"/>
      <point x="1208" y="617" type="line"/>
    </contour>
  </outline>
</glyph>
<glyph name="onehalf" format="2">
  <advance width="1300"/>
  <unicode hex="00BD"/>
  <outline>
    <contour>
      <point x="1120" y="1500" type="line"/>
      <point x="994" y="1500" type="line"/>
      <point x="219" y="0" type="line"/>
      <point x="354" y="0" type="line"/>
    </contour>
    <contour>
      <point x="391" y="720" type="line"/>
      <point x="405" y="800" type="line"/>
      <point x="282" y="800" type="line"/>
      <point x="400" y="1470" type="line"/>
      <point x="332" y="1480" type="line"/>
      <point x="66" y="1270" type="line"/>
      <point x="109" y="1209" type="line"/>
      <point x="232" y="1303" type="line"/>
      <point x="316" y="1396" type="line"/>
      <point x="267" y="1283" type="line"/>
      <point x="182" y="800" type="line"/>
      <point x="60" y="800" type="line"/>
      <point x="46" y="720" type="line"/>
    </contour>
    <contour>
      <point x="1160" y="0" type="line"/>
      <point x="1174" y="80" type="line"/>
      <point x="839" y="80" type="line"/>
      <point x="888" y="153"/>
      <point x="962" y="217"/>
      <point x="1059" y="303" type="curve"/>
      <point x="1134" y="373"/>
      <point x="1239" y="445"/>
      <point x="1244" y="552" type="curve"/>
      <point x="1244" y="556"/>
      <point x="1245" y="560"/>
      <point x="1245" y="564" type="curve" smooth="yes"/>
      <point x="1245" y="657"/>
      <point x="1190" y="750"/>
      <point x="1068" y="758" type="curve"/>
      <point x="1067" y="758" type="line"/>
      <point x="1066" y="758" type="line"/>
      <point x="1066" y="758" type="line"/>
      <point x="1065" y="758" type="line"/>
      <point x="1065" y="758" type="line"/>
      <point x="1064" y="758" type="line"/>
      <point x="1064" y="758" type="line"/>
      <point x="1058" y="758" type="line"/>
      <point x="1057" y="758" type="line"/>
      <point x="1057" y="758" type="line"/>
      <point x="1056" y="758" type="line"/>
      <point x="1056" y="758" type="line"/>
      <point x="1055" y="758" type="line"/>
      <point x="1055" y="758" type="line"/>
      <point x="1049" y="758" type="line" smooth="yes"/>
      <point x="946" y="758"/>
      <point x="865" y="705"/>
      <point x="821" y="610" type="curve"/>
      <point x="886" y="580" type="line"/>
      <point x="912" y="627"/>
      <point x="960" y="676"/>
      <point x="1022" y="676" type="curve" smooth="yes"/>
      <point x="1120" y="676"/>
      <point x="1154" y="633"/>
      <point x="1154" y="561" type="curve" smooth="yes"/>
      <point x="1154" y="491"/>
      <point x="1085" y="433"/>
      <point x="1005" y="369" type="curve" smooth="yes"/>
      <point x="917" y="297"/>
      <point x="814" y="215"/>
      <point x="723" y="84" type="curve"/>
      <point x="708" y="0" type="line"/>
    </contour>
  </outline>
</glyph>
<glyph name="threequarters" format="2">
  <advance width="1300"/>
  <unicode hex="00BE"/>
  <outline>
    <contour>
      <point x="1120" y="1500" type="line"/>
      <point x="994" y="1500" type="line"/>
      <point x="219" y="0" type="line"/>
      <point x="354" y="0" type="line"/>
    </contour>
    <contour>
      <point x="393" y="1390" type="line"/>
      <point x="473" y="1410" type="line"/>
      <point x="448" y="1364"/>
      <point x="293" y="1250"/>
      <point x="200" y="1190" type="curve"/>
      <point x="186" y="1113" type="line"/>
      <point x="214" y="1114"/>
      <point x="242" y="1115"/>
      <point x="273" y="1115" type="curve" smooth="yes"/>
      <point x="366" y="1115"/>
      <point x="431" y="1076"/>
      <point x="431" y="991" type="curve" smooth="yes"/>
      <point x="431" y="871"/>
      <point x="231" y="800"/>
      <point x="74" y="800" type="curve"/>
      <point x="60" y="720" type="line"/>
      <point x="275" y="720"/>
      <point x="534" y="794"/>
      <point x="534" y="1018" type="curve" smooth="yes"/>
      <point x="534" y="1125"/>
      <point x="440" y="1194"/>
      <point x="351" y="1194" type="curve" smooth="yes"/>
      <point x="315" y="1194" type="line"/>
      <point x="388" y="1229" type="line"/>
      <point x="457" y="1282"/>
      <point x="535" y="1346"/>
      <point x="559" y="1400" type="curve"/>
      <point x="572" y="1470" type="line"/>
      <point x="207" y="1470" type="line"/>
      <point x="185" y="1390" type="line"/>
    </contour>
    <contour>
      <point x="1228" y="230" type="line"/>
      <point x="1131" y="230" type="line"/>
      <point x="1165" y="425" type="line"/>
      <point x="1066" y="433" type="line"/>
      <point x="1031" y="230" type="line"/>
      <point x="816" y="230" type="line"/>
      <point x="874" y="300" type="line"/>
      <point x="1161" y="750" type="line"/>
      <point x="1069" y="760" type="line"/>
      <point x="734" y="235" type="line"/>
      <point x="719" y="150" type="line"/>
      <point x="1016" y="150" type="line"/>
      <point x="990" y="0" type="line"/>
      <point x="1090" y="0" type="line"/>
      <point x="1116" y="150" type="line"/>
      <point x="1206" y="150" type="line"/>
    </contour>
  </outline>
</glyph>
<glyph name="questiondown" format="2">
  <advance width="1300"/>
  <unicode hex="00BF"/>
  <outline>
    <contour>
      <point x="1003" y="1396" type="curve" smooth="yes"/>
      <point x="1003" y="1468"/>
      <point x="959" y="1518"/>
      <point x="884" y="1518" type="curve" smooth="yes"/>
      <point x="816" y="1518"/>
      <point x="765" y="1456"/>
      <point x="765" y="1396" type="curve" smooth="yes"/>
      <point x="765" y="1325"/>
      <point x="806" y="1276"/>
      <point x="878" y="1276" type="curve" smooth="yes"/>
      <point x="943" y="1276"/>
      <point x="1003" y="1335"/>
    </contour>
    <contour>
      <point x="573" y="-16" type="curve" smooth="yes"/>
      <point x="750" y="-16"/>
      <point x="934" y="34"/>
      <point x="1064" y="201" type="curve"/>
      <point x="951" y="311" type="line"/>
      <point x="842" y="188"/>
      <point x="758" y="150"/>
      <point x="627" y="150" type="curve" smooth="yes"/>
      <point x="496" y="150"/>
      <point x="403" y="204"/>
      <point x="403" y="328" type="curve" smooth="yes"/>
      <point x="403" y="617"/>
      <point x="882" y="588"/>
      <point x="930" y="1072" type="curve"/>
      <point x="716" y="1051" type="line"/>
      <point x="673" y="688"/>
      <point x="194" y="701"/>
      <point x="194" y="325" type="curve" smooth="yes"/>
      <point x="194" y="116"/>
      <point x="337" y="-16"/>
    </contour>
  </outline>
</glyph>
<glyph name="Agrave" format="2">
  <advance width="1300"/>
  <unicode hex="00C0"/>
  <outline>
    <contour>
      <point x="959" y="600" type="line"/>
      <point x="522" y="600" type="line"/>
      <point x="776" y="1080" type="line"/>
      <point x="877" y="1400" type="line"/>
      <point x="866" y="1080" type="line"/>
    </contour>
    <contour>
      <point x="447" y="450" type="line"/>
      <point x="982" y="450" type="line"/>
      <point x="1050" y="0" type="line"/>
      <point x="1250" y="0" type="line"/>
      <point x="971" y="1520" type="line"/>
      <point x="789" y="1500" type="line"/>
      <point x="719" y="1300" type="line"/>
      <point x="18" y="0" type="line"/>
      <point x="201" y="0" type="line"/>
    </contour>
    <contour>
      <point x="659" y="1900" type="line"/>
      <point x="831" y="1600" type="line"/>
      <point x="981" y="1600" type="line"/>
      <point x="867" y="1920" type="line"/>
    </contour>
  </outline>
</glyph>
<glyph name="Acircumflex" format="2">
  <advance width="1300"/>
  <unicode hex="00C2"/>
  <outline>
    <contour>
      <point x="959" y="600" type="line"/>
      <point x="522" y="600" type="line"/>
      <point x="776" y="1080" type="line"/>
      <point x="877" y="1400" type="line"/>
      <point x="866" y="1080" type="line"/>
    </contour>
    <contour>
      <point x="447" y="450" type="line"/>
      <point x="982" y="450" type="line"/>
      <point x="1050" y="0" type="line"/>
      <point x="1250" y="0" type="line"/>
      <point x="971" y="1520" type="line"/>
      <point x="789" y="1500" type="line"/>
      <point x="719" y="1300" type="line"/>
      <point x="18" y="0" type="line"/>
      <point x="201" y="0" type="line"/>
    </contour>
    <contour>
      <point x="837" y="1900" type="line"/>
      <point x="612" y="1620" type="line"/>
      <point x="762" y="1620" type="line"/>
      <point x="890" y="1773" type="line"/>
      <point x="935" y="1860" type="line"/>
      <point x="949" y="1772" type="line"/>
      <point x="1023" y="1620" type="line"/>
      <point x="1173" y="1620" type="line"/>
      <point x="1041" y="1920" type="line"/>
    </contour>
  </outline>
</glyph>
<glyph name="Atilde" format="2">
  <advance width="1300"/>
  <unicode hex="00C3"/>
  <outline>
    <contour>
      <point x="651" y="1613" type="line"/>
      <point x="671" y="1673"/>
      <point x="706" y="1694"/>
      <point x="757" y="1701" type="curve" smooth="yes"/>
      <point x="764" y="1702"/>
      <point x="772" y="1703"/>
      <point x="779" y="1703" type="curve" smooth="yes"/>
      <point x="811" y="1703"/>
      <point x="847" y="1690"/>
      <point x="887" y="1667" type="curve" smooth="yes"/>
      <point x="926" y="1644"/>
      <point x="963" y="1619"/>
      <point x="1000" y="1612" type="curve"/>
      <point x="1008" y="1611"/>
      <point x="1016" y="1610"/>
      <point x="1023" y="1610" type="curve" smooth="yes"/>
      <point x="1060" y="1610"/>
      <point x="1107" y="1627"/>
      <point x="1151" y="1670" type="curve" smooth="yes"/>
      <point x="1194" y="1713"/>
      <point x="1227" y="1775"/>
      <point x="1235" y="1839" type="curve"/>
      <point x="1140" y="1842" type="line"/>
      <point x="1130" y="1798"/>
      <point x="1104" y="1735"/>
      <point x="1029" y="1735" type="curve" smooth="yes"/>
      <point x="946" y="1735"/>
      <point x="888" y="1809"/>
      <point x="785" y="1825" type="curve"/>
      <point x="780" y="1826"/>
      <point x="774" y="1826"/>
      <point x="768" y="1826" type="curve" smooth="yes"/>
      <point x="736" y="1826"/>
      <point x="696" y="1815"/>
      <point x="656" y="1780" type="curve" smooth="yes"/>
      <point x="616" y="1744"/>
      <point x="582" y="1689"/>
      <point x="566" y="1616" type="curve"/>
    </contour>
    <contour>
      <point x="201" y="0" type="line"/>
      <point x="447" y="450" type="line"/>
      <point x="982" y="450" type="line"/>
      <point x="1050" y="0" type="line"/>
      <point x="1250" y="0" type="line"/>
      <point x="971" y="1520" type="line"/>
      <point x="789" y="1500" type="line"/>
      <point x="719" y="1300" type="line"/>
      <point x="18" y="0" type="line"/>
    </contour>
    <contour>
      <point x="866" y="1080" type="line"/>
      <point x="959" y="600" type="line"/>
      <point x="522" y="600" type="line"/>
      <point x="776" y="1080" type="line"/>
      <point x="877" y="1400" type="line"/>
    </contour>
  </outline>
</glyph>
<glyph name="Adieresis" format="2">
  <advance width="1300"/>
  <unicode hex="00C4"/>
  <outline>
    <contour>
      <point x="959" y="600" type="line"/>
      <point x="522" y="600" type="line"/>
      <point x="776" y="1080" type="line"/>
      <point x="877" y="1400" type="line"/>
      <point x="866" y="1080" type="line"/>
    </contour>
    <contour>
      <point x="447" y="450" type="line"/>
      <point x="982" y="450" type="line"/>
      <point x="1050" y="0" type="line"/>
      <point x="1250" y="0" type="line"/>
      <point x="971" y="1520" type="line"/>
      <point x="789" y="1500" type="line"/>
      <point x="719" y="1300" type="line"/>
      <point x="18" y="0" type="line"/>
      <point x="201" y="0" type="line"/>
    </contour>
    <contour>
      <point x="802" y="1600" type="line"/>
      <point x="837" y="1800" type="line"/>
      <point x="637" y="1800" type="line"/>
      <point x="602" y="1600" type="line"/>
    </contour>
    <contour>
      <point x="1202" y="1600" type="line"/>
      <point x="1237" y="1800" type="line"/>
      <point x="1037" y="1800" type="line"/>
      <point x="1002" y="1600" type="line"/>
    </contour>
  </outline>
</glyph>
<glyph name="Aring" format="2">
  <advance width="1300"/>
  <unicode hex="00C5"/>
  <outline>
    <contour>
      <point x="201" y="0" type="line"/>
      <point x="447" y="450" type="line"/>
      <point x="982" y="450" type="line"/>
      <point x="1050" y="0" type="line"/>
      <point x="1250" y="0" type="line"/>
      <point x="990" y="1418" type="line"/>
      <point x="1021" y="1429"/>
      <point x="1048" y="1444"/>
      <point x="1073" y="1465" type="curve" smooth="yes"/>
      <point x="1124" y="1506"/>
      <point x="1159" y="1568"/>
      <point x="1163" y="1644" type="curve"/>
      <point x="1163" y="1656" type="line" smooth="yes"/>
      <point x="1163" y="1758"/>
      <point x="1101" y="1859"/>
      <point x="968" y="1881" type="curve" smooth="yes"/>
      <point x="957" y="1883"/>
      <point x="947" y="1884"/>
      <point x="936" y="1884" type="curve" smooth="yes"/>
      <point x="889" y="1884"/>
      <point x="831" y="1866"/>
      <point x="779" y="1821" type="curve" smooth="yes"/>
      <point x="727" y="1776"/>
      <point x="692" y="1711"/>
      <point x="688" y="1644" type="curve"/>
      <point x="687" y="1639"/>
      <point x="687" y="1633"/>
      <point x="687" y="1628" type="curve" smooth="yes"/>
      <point x="687" y="1576"/>
      <point x="704" y="1522"/>
      <point x="740" y="1478" type="curve" smooth="yes"/>
      <point x="749" y="1467"/>
      <point x="760" y="1456"/>
      <point x="771" y="1447" type="curve"/>
      <point x="719" y="1300" type="line"/>
      <point x="18" y="0" type="line"/>
    </contour>
    <contour>
      <point x="905" y="1520" type="curve" smooth="yes"/>
      <point x="840" y="1534"/>
      <point x="807" y="1575"/>
      <point x="805" y="1643" type="curve"/>
      <point x="805" y="1647" type="line" smooth="yes"/>
      <point x="805" y="1679"/>
      <point x="822" y="1711"/>
      <point x="850" y="1735" type="curve" smooth="yes"/>
      <point x="877" y="1758"/>
      <point x="907" y="1766"/>
      <point x="928" y="1766" type="curve" smooth="yes"/>
      <point x="934" y="1766"/>
      <point x="940" y="1765"/>
      <point x="947" y="1764" type="curve" smooth="yes"/>
      <point x="1014" y="1751"/>
      <point x="1043" y="1712"/>
      <point x="1047" y="1643" type="curve"/>
      <point x="1047" y="1635" type="line" smooth="yes"/>
      <point x="1047" y="1600"/>
      <point x="1030" y="1568"/>
      <point x="1002" y="1546" type="curve" smooth="yes"/>
      <point x="973" y="1524"/>
      <point x="945" y="1518"/>
      <point x="925" y="1518" type="curve" smooth="yes"/>
      <point x="918" y="1518"/>
      <point x="912" y="1519"/>
    </contour>
    <contour>
      <point x="866" y="1080" type="line"/>
      <point x="959" y="600" type="line"/>
      <point x="522" y="600" type="line"/>
      <point x="776" y="1080" type="line"/>
      <point x="877" y="1400" type="line"/>
    </contour>
  </outline>
</glyph>
<glyph name="Ccedilla" format="2">
  <advance width="1300"/>
  <unicode hex="00C7"/>
  <outline>
    <contour>
      <point x="956" y="247" type="line"/>
      <point x="846" y="186"/>
      <point x="752" y="153"/>
      <point x="632" y="153" type="curve" smooth="yes"/>
      <point x="359" y="153"/>
      <point x="307" y="373"/>
      <point x="307" y="605" type="curve" smooth="yes"/>
      <point x="307" y="969"/>
      <point x="453" y="1341"/>
      <point x="829" y="1341" type="curve" smooth="yes"/>
      <point x="946" y="1341"/>
      <point x="1029" y="1320"/>
      <point x="1112" y="1263" type="curve"/>
      <point x="1210" y="1385" type="line"/>
      <point x="1122" y="1473"/>
      <point x="997" y="1517"/>
      <point x="835" y="1517" type="curve" smooth="yes"/>
      <point x="367" y="1517"/>
      <point x="106" y="1105"/>
      <point x="106" y="616" type="curve" smooth="yes"/>
      <point x="106" y="341"/>
      <point x="193" y="125"/>
      <point x="370" y="31" type="curve" smooth="yes"/>
      <point x="403" y="13"/>
      <point x="439" y="0"/>
      <point x="478" y="-8" type="curve"/>
      <point x="491" y="-25"/>
      <point x="503" y="-42"/>
      <point x="514" y="-61" type="curve" smooth="yes"/>
      <point x="534" y="-97"/>
      <point x="546" y="-138"/>
      <point x="546" y="-167" type="curve" smooth="yes"/>
      <point x="546" y="-174"/>
      <point x="545" y="-182"/>
      <point x="544" y="-189" type="curve" smooth="yes"/>
      <point x="533" y="-254"/>
      <point x="490" y="-279"/>
      <point x="437" y="-279" type="curve" smooth="yes"/>
      <point x="433" y="-279" type="line" smooth="yes"/>
      <point x="394" y="-279"/>
      <point x="356" y="-263"/>
      <point x="327" y="-248" type="curve" smooth="yes"/>
      <point x="310" y="-239"/>
      <point x="293" y="-229"/>
      <point x="278" y="-218" type="curve"/>
      <point x="189" y="-318" type="line"/>
      <point x="215" y="-335"/>
      <point x="242" y="-350"/>
      <point x="270" y="-363" type="curve" smooth="yes"/>
      <point x="318" y="-386"/>
      <point x="379" y="-407"/>
      <point x="435" y="-407" type="curve" smooth="yes"/>
      <point x="568" y="-407"/>
      <point x="677" y="-331"/>
      <point x="696" y="-198" type="curve"/>
      <point x="697" y="-186"/>
      <point x="698" y="-174"/>
      <point x="698" y="-162" type="curve" smooth="yes"/>
      <point x="698" y="-135"/>
      <point x="693" y="-95"/>
      <point x="678" y="-59" type="curve"/>
      <point x="672" y="-43"/>
      <point x="665" y="-28"/>
      <point x="657" y="-14" type="curve"/>
      <point x="684" y="-12"/>
      <point x="709" y="-9"/>
      <point x="733" y="-5" type="curve" smooth="yes"/>
      <point x="871" y="21"/>
      <point x="957" y="66"/>
      <point x="998" y="95" type="curve"/>
    </contour>
  </outline>
</glyph>
<glyph name="Egrave" format="2">
  <advance width="1300"/>
  <unicode hex="00C8"/>
  <outline>
    <contour>
      <point x="290" y="160" type="line"/>
      <point x="332" y="340" type="line"/>
      <point x="403" y="740" type="line"/>
      <point x="1038" y="740" type="line"/>
      <point x="1063" y="885" type="line"/>
      <point x="428" y="885" type="line"/>
      <point x="475" y="1150" type="line"/>
      <point x="489" y="1340" type="line"/>
      <point x="1214" y="1340" type="line"/>
      <point x="1242" y="1500" type="line"/>
      <point x="322" y="1500" type="line"/>
      <point x="315" y="1290" type="line"/>
      <point x="123" y="200" type="line"/>
      <point x="72" y="0" type="line"/>
      <point x="992" y="0" type="line"/>
      <point x="1040" y="160" type="line"/>
    </contour>
    <contour>
      <point x="857" y="1920" type="line"/>
      <point x="649" y="1900" type="line"/>
      <point x="821" y="1600" type="line"/>
      <point x="971" y="1600" type="line"/>
    </contour>
  </outline>
</glyph>
<glyph name="Eacute" format="2">
  <advance width="1300"/>
  <unicode hex="00C9"/>
  <outline>
    <contour>
      <point x="290" y="160" type="line"/>
      <point x="332" y="340" type="line"/>
      <point x="403" y="740" type="line"/>
      <point x="1038" y="740" type="line"/>
      <point x="1063" y="885" type="line"/>
      <point x="428" y="885" type="line"/>
      <point x="475" y="1150" type="line"/>
      <point x="489" y="1340" type="line"/>
      <point x="1214" y="1340" type="line"/>
      <point x="1242" y="1500" type="line"/>
      <point x="322" y="1500" type="line"/>
      <point x="315" y="1290" type="line"/>
      <point x="123" y="200" type="line"/>
      <point x="72" y="0" type="line"/>
      <point x="992" y="0" type="line"/>
      <point x="1040" y="160" type="line"/>
    </contour>
    <contour>
      <point x="590" y="1600" type="line"/>
      <point x="740" y="1600" type="line"/>
      <point x="1037" y="1920" type="line"/>
      <point x="803" y="1900" type="line"/>
    </contour>
  </outline>
</glyph>
<glyph name="Ecircumflex" format="2">
  <advance width="1300"/>
  <unicode hex="00CA"/>
  <outline>
    <contour>
      <point x="290" y="160" type="line"/>
      <point x="332" y="340" type="line"/>
      <point x="403" y="740" type="line"/>
      <point x="1038" y="740" type="line"/>
      <point x="1063" y="885" type="line"/>
      <point x="428" y="885" type="line"/>
      <point x="475" y="1150" type="line"/>
      <point x="489" y="1340" type="line"/>
      <point x="1214" y="1340" type="line"/>
      <point x="1242" y="1500" type="line"/>
      <point x="322" y="1500" type="line"/>
      <point x="315" y="1290" type="line"/>
      <point x="123" y="200" type="line"/>
      <point x="72" y="0" type="line"/>
      <point x="992" y="0" type="line"/>
      <point x="1040" y="160" type="line"/>
    </contour>
    <contour>
      <point x="913" y="1920" type="line"/>
      <point x="709" y="1900" type="line"/>
      <point x="484" y="1620" type="line"/>
      <point x="634" y="1620" type="line"/>
      <point x="762" y="1773" type="line"/>
      <point x="807" y="1860" type="line"/>
      <point x="821" y="1772" type="line"/>
      <point x="895" y="1620" type="line"/>
      <point x="1045" y="1620" type="line"/>
    </contour>
  </outline>
</glyph>
<glyph name="Igrave" format="2">
  <advance width="1300"/>
  <unicode hex="00CC"/>
  <outline>
    <contour>
      <point x="290" y="1340" type="line"/>
      <point x="666" y="1340" type="line"/>
      <point x="457" y="160" type="line"/>
      <point x="101" y="160" type="line"/>
      <point x="73" y="0" type="line"/>
      <point x="973" y="0" type="line"/>
      <point x="1021" y="160" type="line"/>
      <point x="643" y="160" type="line"/>
      <point x="852" y="1340" type="line"/>
      <point x="1210" y="1340" type="line"/>
      <point x="1238" y="1500" type="line"/>
      <point x="338" y="1500" type="line"/>
    </contour>
    <contour>
      <point x="815" y="1920" type="line"/>
      <point x="607" y="1900" type="line"/>
      <point x="779" y="1600" type="line"/>
      <point x="929" y="1600" type="line"/>
    </contour>
  </outline>
</glyph>
<glyph name="Idieresis" format="2">
  <advance width="1300"/>
  <unicode hex="00CF"/>
  <outline>
    <contour>
      <point x="290" y="1340" type="line"/>
      <point x="666" y="1340" type="line"/>
      <point x="457" y="160" type="line"/>
      <point x="101" y="160" type="line"/>
      <point x="73" y="0" type="line"/>
      <point x="973" y="0" type="line"/>
      <point x="1021" y="160" type="line"/>
      <point x="643" y="160" type="line"/>
      <point x="852" y="1340" type="line"/>
      <point x="1210" y="1340" type="line"/>
      <point x="1238" y="1500" type="line"/>
      <point x="338" y="1500" type="line"/>
    </contour>
    <contour>
      <point x="545" y="1700" type="line"/>
      <point x="745" y="1700" type="line"/>
      <point x="780" y="1900" type="line"/>
      <point x="580" y="1900" type="line"/>
    </contour>
    <contour>
      <point x="945" y="1700" type="line"/>
      <point x="1145" y="1700" type="line"/>
      <point x="1180" y="1900" type="line"/>
      <point x="980" y="1900" type="line"/>
    </contour>
  </outline>
</glyph>
<glyph name="Ntilde" format="2">
  <advance width="1300"/>
  <unicode hex="00D1"/>
  <outline>
    <contour>
      <point x="620" y="1652" type="line"/>
      <point x="640" y="1712"/>
      <point x="675" y="1733"/>
      <point x="726" y="1740" type="curve" smooth="yes"/>
      <point x="733" y="1741"/>
      <point x="741" y="1742"/>
      <point x="748" y="1742" type="curve" smooth="yes"/>
      <point x="780" y="1742"/>
      <point x="816" y="1729"/>
      <point x="856" y="1706" type="curve" smooth="yes"/>
      <point x="895" y="1683"/>
      <point x="932" y="1658"/>
      <point x="969" y="1651" type="curve"/>
      <point x="977" y="1650"/>
      <point x="985" y="1649"/>
      <point x="992" y="1649" type="curve" smooth="yes"/>
      <point x="1029" y="1649"/>
      <point x="1076" y="1666"/>
      <point x="1120" y="1709" type="curve" smooth="yes"/>
      <point x="1163" y="1752"/>
      <point x="1196" y="1814"/>
      <point x="1204" y="1878" type="curve"/>
      <point x="1109" y="1881" type="line"/>
      <point x="1099" y="1837"/>
      <point x="1073" y="1774"/>
      <point x="998" y="1774" type="curve" smooth="yes"/>
      <point x="915" y="1774"/>
      <point x="857" y="1848"/>
      <point x="754" y="1864" type="curve"/>
      <point x="749" y="1865"/>
      <point x="743" y="1865"/>
      <point x="737" y="1865" type="curve" smooth="yes"/>
      <point x="705" y="1865"/>
      <point x="665" y="1854"/>
      <point x="625" y="1819" type="curve" smooth="yes"/>
      <point x="585" y="1783"/>
      <point x="551" y="1728"/>
      <point x="535" y="1655" type="curve"/>
    </contour>
    <contour>
      <point x="982" y="0" type="line"/>
      <point x="1251" y="1520" type="line"/>
      <point x="1067" y="1500" type="line"/>
      <point x="905" y="580" type="line"/>
      <point x="906" y="141" type="line"/>
      <point x="900" y="140" type="line"/>
      <point x="808" y="557" type="line"/>
      <point x="482" y="1520" type="line"/>
      <point x="277" y="1500" type="line"/>
      <point x="270" y="1290" type="line"/>
      <point x="42" y="0" type="line"/>
      <point x="222" y="0" type="line"/>
      <point x="385" y="920" type="line"/>
      <point x="397" y="1360" type="line"/>
      <point x="403" y="1361" type="line"/>
      <point x="490" y="948" type="line"/>
      <point x="817" y="0" type="line"/>
    </contour>
  </outline>
</glyph>
<glyph name="Ocircumflex" format="2">
  <advance width="1300"/>
  <unicode hex="00D4"/>
  <outline>
    <contour>
      <point x="1006" y="1920" type="line"/>
      <point x="802" y="1900" type="line"/>
      <point x="577" y="1620" type="line"/>
      <point x="727" y="1620" type="line"/>
      <point x="855" y="1773" type="line"/>
      <point x="900" y="1860" type="line"/>
      <point x="914" y="1772" type="line"/>
      <point x="988" y="1620" type="line"/>
      <point x="1138" y="1620" type="line"/>
    </contour>
    <contour>
      <point x="488" y="-17" type="curve" smooth="yes"/>
      <point x="859" y="-17"/>
      <point x="1098" y="330"/>
      <point x="1174" y="750" type="curve"/>
      <point x="1198" y="890"/>
      <point x="1194" y="958"/>
      <point x="1194" y="969" type="curve" smooth="yes"/>
      <point x="1194" y="1086"/>
      <point x="1174" y="1198"/>
      <point x="1129" y="1291" type="curve" smooth="yes"/>
      <point x="1061" y="1430"/>
      <point x="939" y="1517"/>
      <point x="759" y="1517" type="curve" smooth="yes"/>
      <point x="390" y="1517"/>
      <point x="146" y="1170"/>
      <point x="74" y="750" type="curve"/>
      <point x="49" y="610"/>
      <point x="53" y="542"/>
      <point x="53" y="531" type="curve" smooth="yes"/>
      <point x="53" y="414"/>
      <point x="73" y="302"/>
      <point x="118" y="209" type="curve" smooth="yes"/>
      <point x="186" y="70"/>
      <point x="308" y="-17"/>
    </contour>
    <contour>
      <point x="960" y="719" type="curve"/>
      <point x="916" y="476"/>
      <point x="811" y="158"/>
      <point x="525" y="158" type="curve" smooth="yes"/>
      <point x="424" y="158"/>
      <point x="358" y="197"/>
      <point x="318" y="258" type="curve" smooth="yes"/>
      <point x="297" y="289"/>
      <point x="283" y="325"/>
      <point x="274" y="366" type="curve" smooth="yes"/>
      <point x="257" y="448"/>
      <point x="260" y="501"/>
      <point x="260" y="512" type="curve" smooth="yes"/>
      <point x="260" y="595"/>
      <point x="271" y="690"/>
      <point x="288" y="785" type="curve" smooth="yes"/>
      <point x="332" y="1030"/>
      <point x="433" y="1342"/>
      <point x="722" y="1342" type="curve" smooth="yes"/>
      <point x="823" y="1342"/>
      <point x="889" y="1303"/>
      <point x="930" y="1243" type="curve"/>
      <point x="950" y="1212"/>
      <point x="965" y="1177"/>
      <point x="974" y="1136" type="curve" smooth="yes"/>
      <point x="992" y="1054"/>
      <point x="988" y="999"/>
      <point x="988" y="990" type="curve" smooth="yes"/>
      <point x="988" y="906"/>
      <point x="976" y="812"/>
    </contour>
  </outline>
</glyph>
<glyph name="Otilde" format="2">
  <advance width="1300"/>
  <unicode hex="00D5"/>
  <outline>
    <contour>
      <point x="601" y="1652" type="line"/>
      <point x="621" y="1712"/>
      <point x="656" y="1733"/>
      <point x="707" y="1740" type="curve" smooth="yes"/>
      <point x="714" y="1741"/>
      <point x="722" y="1742"/>
      <point x="729" y="1742" type="curve" smooth="yes"/>
      <point x="761" y="1742"/>
      <point x="797" y="1729"/>
      <point x="837" y="1706" type="curve" smooth="yes"/>
      <point x="876" y="1683"/>
      <point x="913" y="1658"/>
      <point x="950" y="1651" type="curve" smooth="yes"/>
      <point x="958" y="1650"/>
      <point x="966" y="1649"/>
      <point x="973" y="1649" type="curve" smooth="yes"/>
      <point x="1010" y="1649"/>
      <point x="1057" y="1666"/>
      <point x="1101" y="1709" type="curve" smooth="yes"/>
      <point x="1144" y="1752"/>
      <point x="1177" y="1814"/>
      <point x="1185" y="1878" type="curve"/>
      <point x="1090" y="1881" type="line"/>
      <point x="1080" y="1837"/>
      <point x="1054" y="1774"/>
      <point x="979" y="1774" type="curve" smooth="yes"/>
      <point x="896" y="1774"/>
      <point x="838" y="1848"/>
      <point x="735" y="1864" type="curve" smooth="yes"/>
      <point x="730" y="1865"/>
      <point x="724" y="1865"/>
      <point x="718" y="1865" type="curve" smooth="yes"/>
      <point x="686" y="1865"/>
      <point x="646" y="1854"/>
      <point x="606" y="1819" type="curve" smooth="yes"/>
      <point x="566" y="1783"/>
      <point x="532" y="1728"/>
      <point x="516" y="1655" type="curve"/>
    </contour>
    <contour>
      <point x="488" y="-17" type="curve" smooth="yes"/>
      <point x="859" y="-17"/>
      <point x="1098" y="330"/>
      <point x="1174" y="750" type="curve"/>
      <point x="1198" y="890"/>
      <point x="1194" y="958"/>
      <point x="1194" y="969" type="curve" smooth="yes"/>
      <point x="1194" y="1086"/>
      <point x="1174" y="1198"/>
      <point x="1129" y="1291" type="curve" smooth="yes"/>
      <point x="1061" y="1430"/>
      <point x="939" y="1517"/>
      <point x="759" y="1517" type="curve" smooth="yes"/>
      <point x="390" y="1517"/>
      <point x="146" y="1170"/>
      <point x="74" y="750" type="curve"/>
      <point x="49" y="610"/>
      <point x="53" y="542"/>
      <point x="53" y="531" type="curve" smooth="yes"/>
      <point x="53" y="414"/>
      <point x="73" y="302"/>
      <point x="118" y="209" type="curve" smooth="yes"/>
      <point x="186" y="70"/>
      <point x="308" y="-17"/>
    </contour>
    <contour>
      <point x="960" y="719" type="curve"/>
      <point x="916" y="476"/>
      <point x="811" y="158"/>
      <point x="525" y="158" type="curve" smooth="yes"/>
      <point x="424" y="158"/>
      <point x="358" y="197"/>
      <point x="318" y="258" type="curve" smooth="yes"/>
      <point x="297" y="289"/>
      <point x="283" y="325"/>
      <point x="274" y="366" type="curve" smooth="yes"/>
      <point x="257" y="448"/>
      <point x="260" y="501"/>
      <point x="260" y="512" type="curve" smooth="yes"/>
      <point x="260" y="595"/>
      <point x="271" y="690"/>
      <point x="288" y="785" type="curve" smooth="yes"/>
      <point x="332" y="1030"/>
      <point x="433" y="1342"/>
      <point x="722" y="1342" type="curve" smooth="yes"/>
      <point x="823" y="1342"/>
      <point x="889" y="1303"/>
      <point x="930" y="1243" type="curve"/>
      <point x="950" y="1212"/>
      <point x="965" y="1177"/>
      <point x="974" y="1136" type="curve" smooth="yes"/>
      <point x="992" y="1054"/>
      <point x="988" y="999"/>
      <point x="988" y="990" type="curve" smooth="yes"/>
      <point x="988" y="906"/>
      <point x="976" y="812"/>
    </contour>
  </outline>
</glyph>
<glyph name="multiply" format="2">
  <advance width="1300"/>
  <unicode hex="00D7"/>
  <outline>
    <contour>
      <point x="1260" y="1052" type="line"/>
      <point x="1154" y="1153" type="line"/>
      <point x="713" y="777" type="line"/>
      <point x="677" y="679" type="line"/>
      <point x="637" y="777" type="line"/>
      <point x="328" y="1153" type="line"/>
      <point x="185" y="1052" type="line"/>
      <point x="536" y="627" type="line"/>
      <point x="35" y="203" type="line"/>
      <point x="142" y="102" type="line"/>
      <point x="584" y="477" type="line"/>
      <point x="619" y="576" type="line"/>
      <point x="660" y="477" type="line"/>
      <point x="659" y="477" type="line"/>
      <point x="968" y="102" type="line"/>
      <point x="1110" y="203" type="line"/>
      <point x="760" y="627" type="line"/>
    </contour>
  </outline>
</glyph>
<glyph name="Oslash" format="2">
  <advance width="1300"/>
  <unicode hex="00D8"/>
  <outline>
    <contour>
      <point x="1300" y="1600" type="line"/>
      <point x="1100" y="1600" type="line"/>
      <point x="997" y="1449" type="line"/>
      <point x="974" y="1465"/>
      <point x="948" y="1479"/>
      <point x="920" y="1490" type="curve" smooth="yes"/>
      <point x="873" y="1508"/>
      <point x="819" y="1517"/>
      <point x="759" y="1517" type="curve" smooth="yes"/>
      <point x="390" y="1517"/>
      <point x="146" y="1170"/>
      <point x="74" y="750" type="curve"/>
      <point x="49" y="610"/>
      <point x="53" y="542"/>
      <point x="53" y="531" type="curve" smooth="yes"/>
      <point x="53" y="414"/>
      <point x="73" y="302"/>
      <point x="118" y="209" type="curve" smooth="yes"/>
      <point x="123" y="199"/>
      <point x="128" y="189"/>
      <point x="133" y="180" type="curve"/>
      <point x="-57" y="-100" type="line"/>
      <point x="153" y="-100" type="line"/>
      <point x="253" y="49" type="line"/>
      <point x="276" y="34"/>
      <point x="300" y="21"/>
      <point x="327" y="11" type="curve"/>
      <point x="374" y="-8"/>
      <point x="428" y="-17"/>
      <point x="488" y="-17" type="curve" smooth="yes"/>
      <point x="859" y="-17"/>
      <point x="1098" y="330"/>
      <point x="1174" y="750" type="curve"/>
      <point x="1198" y="890"/>
      <point x="1194" y="958"/>
      <point x="1194" y="969" type="curve" smooth="yes"/>
      <point x="1194" y="1086"/>
      <point x="1174" y="1198"/>
      <point x="1129" y="1291" type="curve" smooth="yes"/>
      <point x="1124" y="1302"/>
      <point x="1118" y="1312"/>
      <point x="1112" y="1322" type="curve"/>
    </contour>
    <contour>
      <point x="271" y="382" type="line"/>
      <point x="264" y="418"/>
      <point x="261" y="456"/>
      <point x="260" y="497" type="curve"/>
      <point x="260" y="512" type="line" smooth="yes"/>
      <point x="260" y="595"/>
      <point x="271" y="690"/>
      <point x="288" y="785" type="curve" smooth="yes"/>
      <point x="332" y="1030"/>
      <point x="433" y="1342"/>
      <point x="722" y="1342" type="curve" smooth="yes"/>
      <point x="773" y="1342"/>
      <point x="815" y="1333"/>
      <point x="849" y="1315" type="curve" smooth="yes"/>
      <point x="863" y="1307"/>
      <point x="876" y="1298"/>
      <point x="888" y="1289" type="curve"/>
    </contour>
    <contour>
      <point x="960" y="719" type="curve"/>
      <point x="916" y="476"/>
      <point x="811" y="158"/>
      <point x="525" y="158" type="curve" smooth="yes"/>
      <point x="474" y="158"/>
      <point x="432" y="167"/>
      <point x="399" y="185" type="curve" smooth="yes"/>
      <point x="386" y="192"/>
      <point x="373" y="200"/>
      <point x="362" y="209" type="curve"/>
      <point x="977" y="1121" type="line"/>
      <point x="984" y="1084"/>
      <point x="987" y="1046"/>
      <point x="988" y="1005" type="curve"/>
      <point x="988" y="990" type="line" smooth="yes"/>
      <point x="988" y="906"/>
      <point x="976" y="812"/>
    </contour>
  </outline>
</glyph>
<glyph name="Uacute" format="2">
  <advance width="1300"/>
  <unicode hex="00DA"/>
  <outline>
    <contour>
      <point x="585" y="1600" type="line"/>
      <point x="735" y="1600" type="line"/>
      <point x="1032" y="1920" type="line"/>
      <point x="798" y="1900" type="line"/>
    </contour>
    <contour>
      <point x="1036" y="1500" type="line"/>
      <point x="861" y="504" type="line" smooth="yes"/>
      <point x="820" y="269"/>
      <point x="715" y="153"/>
      <point x="519" y="153" type="curve" smooth="yes"/>
      <point x="435" y="153"/>
      <point x="375" y="190"/>
      <point x="340" y="259" type="curve" smooth="yes"/>
      <point x="323" y="293"/>
      <point x="313" y="326"/>
      <point x="311" y="357" type="curve"/>
      <point x="308" y="388"/>
      <point x="307" y="409"/>
      <point x="307" y="422" type="curve" smooth="yes"/>
      <point x="307" y="462"/>
      <point x="311" y="506"/>
      <point x="320" y="554" type="curve" smooth="yes"/>
      <point x="490" y="1520" type="line"/>
      <point x="266" y="1500" type="line"/>
      <point x="259" y="1290" type="line"/>
      <point x="133" y="573" type="line" smooth="yes"/>
      <point x="120" y="502"/>
      <point x="114" y="436"/>
      <point x="114" y="375" type="curve" smooth="yes"/>
      <point x="114" y="360"/>
      <point x="115" y="331"/>
      <point x="118" y="288" type="curve" smooth="yes"/>
      <point x="120" y="245"/>
      <point x="135" y="197"/>
      <point x="162" y="146" type="curve" smooth="yes"/>
      <point x="216" y="42"/>
      <point x="316" y="-17"/>
      <point x="479" y="-17" type="curve" smooth="yes"/>
      <point x="783" y="-17"/>
      <point x="990" y="160"/>
      <point x="1054" y="523" type="curve" smooth="yes"/>
      <point x="1226" y="1500" type="line"/>
    </contour>
  </outline>
</glyph>
<glyph name="Ucircumflex" format="2">
  <advance width="1300"/>
  <unicode hex="00DB"/>
  <outline>
    <contour>
      <point x="914" y="1920" type="line"/>
      <point x="710" y="1900" type="line"/>
      <point x="485" y="1620" type="line"/>
      <point x="635" y="1620" type="line"/>
      <point x="763" y="1773" type="line"/>
      <point x="808" y="1860" type="line"/>
      <point x="822" y="1772" type="line"/>
      <point x="896" y="1620" type="line"/>
      <point x="1046" y="1620" type="line"/>
    </contour>
    <contour>
      <point x="1036" y="1500" type="line"/>
      <point x="861" y="504" type="line" smooth="yes"/>
      <point x="820" y="269"/>
      <point x="715" y="153"/>
      <point x="519" y="153" type="curve" smooth="yes"/>
      <point x="435" y="153"/>
      <point x="375" y="190"/>
      <point x="340" y="259" type="curve" smooth="yes"/>
      <point x="323" y="293"/>
      <point x="313" y="326"/>
      <point x="311" y="357" type="curve" smooth="yes"/>
      <point x="308" y="388"/>
      <point x="307" y="409"/>
      <point x="307" y="422" type="curve" smooth="yes"/>
      <point x="307" y="462"/>
      <point x="311" y="506"/>
      <point x="320" y="554" type="curve" smooth="yes"/>
      <point x="490" y="1520" type="line"/>
      <point x="266" y="1500" type="line"/>
      <point x="259" y="1290" type="line"/>
      <point x="133" y="573" type="line" smooth="yes"/>
      <point x="120" y="502"/>
      <point x="114" y="436"/>
      <point x="114" y="375" type="curve" smooth="yes"/>
      <point x="114" y="360"/>
      <point x="115" y="331"/>
      <point x="118" y="288" type="curve" smooth="yes"/>
      <point x="120" y="245"/>
      <point x="135" y="197"/>
      <point x="162" y="146" type="curve" smooth="yes"/>
      <point x="216" y="42"/>
      <point x="316" y="-17"/>
      <point x="479" y="-17" type="curve" smooth="yes"/>
      <point x="783" y="-17"/>
      <point x="990" y="160"/>
      <point x="1054" y="523" type="curve" smooth="yes"/>
      <point x="1226" y="1500" type="line"/>
    </contour>
  </outline>
</glyph>
<glyph name="Yacute" format="2">
  <advance width="1300"/>
  <unicode hex="00DD"/>
  <outline>
    <contour>
      <point x="518" y="705" type="line"/>
      <point x="483" y="954" type="line"/>
      <point x="305" y="1520" type="line"/>
      <point x="97" y="1500" type="line"/>
      <point x="382" y="645" type="line"/>
      <point x="269" y="0" type="line"/>
      <point x="469" y="0" type="line"/>
      <point x="582" y="646" type="line"/>
      <point x="1168" y="1500" type="line"/>
      <point x="976" y="1500" type="line"/>
      <point x="588" y="935" type="line"/>
    </contour>
    <contour>
      <point x="518" y="1600" type="line"/>
      <point x="668" y="1600" type="line"/>
      <point x="965" y="1920" type="line"/>
      <point x="731" y="1900" type="line"/>
    </contour>
  </outline>
</glyph>
<glyph name="Thorn" format="2">
  <advance width="1300"/>
  <unicode hex="00DE"/>
  <outline>
    <contour>
      <point x="329" y="1299" type="line"/>
      <point x="100" y="0" type="line"/>
      <point x="300" y="0" type="line"/>
      <point x="370" y="401" type="line"/>
      <point x="530" y="401" type="line" smooth="yes"/>
      <point x="654" y="401"/>
      <point x="733" y="408"/>
      <point x="808" y="435" type="curve"/>
      <point x="1051" y="519"/>
      <point x="1102" y="751"/>
      <point x="1106" y="889" type="curve"/>
      <point x="1106" y="904" type="line" smooth="yes"/>
      <point x="1106" y="1051"/>
      <point x="1044" y="1159"/>
      <point x="960" y="1220" type="curve" smooth="yes"/>
      <point x="875" y="1280"/>
      <point x="780" y="1301"/>
      <point x="729" y="1301" type="curve" smooth="yes"/>
      <point x="529" y="1301" type="line"/>
      <point x="564" y="1500" type="line"/>
      <point x="344" y="1500" type="line"/>
    </contour>
    <contour>
      <point x="671" y="1151" type="line" smooth="yes"/>
      <point x="848" y="1151"/>
      <point x="926" y="1010"/>
      <point x="926" y="889" type="curve" smooth="yes"/>
      <point x="926" y="691"/>
      <point x="803" y="557"/>
      <point x="587" y="557" type="curve" smooth="yes"/>
      <point x="398" y="557" type="line"/>
      <point x="502" y="1151" type="line"/>
    </contour>
  </outline>
</glyph>
<glyph name="germandbls" format="2">
  <advance width="1300"/>
  <unicode hex="00DF"/>
  <outline>
    <contour>
      <point x="950" y="1148" type="curve" smooth="yes"/>
      <point x="926" y="945"/>
      <point x="735" y="885"/>
      <point x="564" y="885" type="curve"/>
      <point x="606" y="730" type="line"/>
      <point x="823" y="730"/>
      <point x="922" y="639"/>
      <point x="922" y="496" type="curve" smooth="yes"/>
      <point x="922" y="481"/>
      <point x="921" y="466"/>
      <point x="919" y="450" type="curve" smooth="yes"/>
      <point x="890" y="210"/>
      <point x="730" y="160"/>
      <point x="466" y="160" type="curve"/>
      <point x="498" y="0" type="line"/>
      <point x="747" y="0"/>
      <point x="1075" y="85"/>
      <point x="1111" y="460" type="curve"/>
      <point x="1114" y="481"/>
      <point x="1116" y="501"/>
      <point x="1116" y="520" type="curve" smooth="yes"/>
      <point x="1116" y="564"/>
      <point x="1107" y="624"/>
      <point x="1066" y="681" type="curve" smooth="yes"/>
      <point x="1025" y="737"/>
      <point x="959" y="778"/>
      <point x="882" y="802" type="curve"/>
      <point x="737" y="816" type="line"/>
      <point x="899" y="860" type="line"/>
      <point x="1033" y="916"/>
      <point x="1119" y="1001"/>
      <point x="1135" y="1169" type="curve" smooth="yes"/>
      <point x="1136" y="1182"/>
      <point x="1137" y="1194"/>
      <point x="1137" y="1206" type="curve" smooth="yes"/>
      <point x="1137" y="1278"/>
      <point x="1115" y="1356"/>
      <point x="1056" y="1418" type="curve" smooth="yes"/>
      <point x="996" y="1480"/>
      <point x="907" y="1517"/>
      <point x="798" y="1517" type="curve" smooth="yes"/>
      <point x="601" y="1517"/>
      <point x="527" y="1484"/>
      <point x="453" y="1418" type="curve" smooth="yes"/>
      <point x="370" y="1343"/>
      <point x="318" y="1241"/>
      <point x="295" y="1111" type="curve" smooth="yes"/>
      <point x="100" y="0" type="line"/>
      <point x="295" y="-17" type="line"/>
      <point x="502" y="1160" type="line" smooth="yes"/>
      <point x="513" y="1220"/>
      <point x="530" y="1263"/>
      <point x="567" y="1304" type="curve" smooth="yes"/>
      <point x="610" y="1352"/>
      <point x="664" y="1369"/>
      <point x="745" y="1369" type="curve" smooth="yes"/>
      <point x="769" y="1369" type="line"/>
      <point x="817" y="1366"/>
      <point x="866" y="1344"/>
      <point x="902" y="1305" type="curve"/>
      <point x="937" y="1265"/>
      <point x="952" y="1219"/>
      <point x="952" y="1176" type="curve" smooth="yes"/>
      <point x="952" y="1167"/>
      <point x="951" y="1157"/>
    </contour>
  </outline>
</glyph>
<glyph name="agrave" format="2">
  <advance width="1300"/>
  <unicode hex="00E0"/>
  <outline>
    <contour>
      <point x="896" y="1520" type="line"/>
      <point x="688" y="1500" type="line"/>
      <point x="860" y="1200" type="line"/>
      <point x="1010" y="1200" type="line"/>
    </contour>
    <contour>
      <point x="970" y="0" type="line"/>
      <point x="981" y="180" type="line"/>
      <point x="1133" y="1063" type="line"/>
      <point x="1030" y="1098"/>
      <point x="912" y="1117"/>
      <point x="800" y="1117" type="curve" smooth="yes"/>
      <point x="405" y="1117"/>
      <point x="202" y="831"/>
      <point x="167" y="536" type="curve" smooth="yes"/>
      <point x="162" y="496"/>
      <point x="160" y="456"/>
      <point x="160" y="419" type="curve" smooth="yes"/>
      <point x="160" y="161"/>
      <point x="273" y="-17"/>
      <point x="462" y="-17" type="curve" smooth="yes"/>
      <point x="580" y="-17"/>
      <point x="625" y="3"/>
      <point x="681" y="49" type="curve"/>
      <point x="796" y="162" type="line"/>
      <point x="768" y="0" type="line"/>
    </contour>
    <contour>
      <point x="821" y="306" type="line"/>
      <point x="757" y="226"/>
      <point x="661" y="144"/>
      <point x="523" y="144" type="curve" smooth="yes"/>
      <point x="420" y="144"/>
      <point x="340" y="237"/>
      <point x="340" y="421" type="curve" smooth="yes"/>
      <point x="340" y="448"/>
      <point x="342" y="479"/>
      <point x="346" y="512" type="curve" smooth="yes"/>
      <point x="375" y="757"/>
      <point x="508" y="958"/>
      <point x="779" y="958" type="curve"/>
      <point x="798" y="957"/>
      <point x="817" y="956"/>
      <point x="835" y="953" type="curve"/>
      <point x="866" y="949"/>
      <point x="903" y="941"/>
      <point x="927" y="930" type="curve"/>
    </contour>
  </outline>
</glyph>
<glyph name="acircumflex" format="2">
  <advance width="1300"/>
  <unicode hex="00E2"/>
  <outline>
    <contour>
      <point x="997" y="1520" type="line"/>
      <point x="793" y="1500" type="line"/>
      <point x="568" y="1220" type="line"/>
      <point x="718" y="1220" type="line"/>
      <point x="846" y="1373" type="line"/>
      <point x="891" y="1460" type="line"/>
      <point x="905" y="1372" type="line"/>
      <point x="979" y="1220" type="line"/>
      <point x="1129" y="1220" type="line"/>
    </contour>
    <contour>
      <point x="970" y="0" type="line"/>
      <point x="981" y="180" type="line"/>
      <point x="1133" y="1063" type="line"/>
      <point x="1030" y="1098"/>
      <point x="912" y="1117"/>
      <point x="800" y="1117" type="curve" smooth="yes"/>
      <point x="405" y="1117"/>
      <point x="202" y="831"/>
      <point x="167" y="536" type="curve" smooth="yes"/>
      <point x="162" y="496"/>
      <point x="160" y="456"/>
      <point x="160" y="419" type="curve" smooth="yes"/>
      <point x="160" y="161"/>
      <point x="273" y="-17"/>
      <point x="462" y="-17" type="curve" smooth="yes"/>
      <point x="580" y="-17"/>
      <point x="625" y="3"/>
      <point x="681" y="49" type="curve"/>
      <point x="796" y="162" type="line"/>
      <point x="768" y="0" type="line"/>
    </contour>
    <contour>
      <point x="821" y="306" type="line"/>
      <point x="757" y="226"/>
      <point x="661" y="144"/>
      <point x="523" y="144" type="curve" smooth="yes"/>
      <point x="420" y="144"/>
      <point x="340" y="237"/>
      <point x="340" y="421" type="curve" smooth="yes"/>
      <point x="340" y="448"/>
      <point x="342" y="479"/>
      <point x="346" y="512" type="curve" smooth="yes"/>
      <point x="375" y="757"/>
      <point x="508" y="958"/>
      <point x="779" y="958" type="curve"/>
      <point x="798" y="957"/>
      <point x="817" y="956"/>
      <point x="835" y="953" type="curve" smooth="yes"/>
      <point x="866" y="949"/>
      <point x="903" y="941"/>
      <point x="927" y="930" type="curve"/>
    </contour>
  </outline>
</glyph>
<glyph name="atilde" format="2">
  <advance width="1300"/>
  <unicode hex="00E3"/>
  <outline>
    <contour>
      <point x="613" y="1272" type="line"/>
      <point x="633" y="1332"/>
      <point x="668" y="1353"/>
      <point x="719" y="1360" type="curve" smooth="yes"/>
      <point x="726" y="1361"/>
      <point x="734" y="1362"/>
      <point x="741" y="1362" type="curve" smooth="yes"/>
      <point x="773" y="1362"/>
      <point x="809" y="1349"/>
      <point x="849" y="1326" type="curve" smooth="yes"/>
      <point x="888" y="1303"/>
      <point x="925" y="1278"/>
      <point x="962" y="1271" type="curve"/>
      <point x="970" y="1270"/>
      <point x="978" y="1269"/>
      <point x="985" y="1269" type="curve" smooth="yes"/>
      <point x="1022" y="1269"/>
      <point x="1069" y="1286"/>
      <point x="1113" y="1329" type="curve" smooth="yes"/>
      <point x="1156" y="1372"/>
      <point x="1189" y="1434"/>
      <point x="1197" y="1498" type="curve"/>
      <point x="1102" y="1501" type="line"/>
      <point x="1092" y="1457"/>
      <point x="1066" y="1394"/>
      <point x="991" y="1394" type="curve" smooth="yes"/>
      <point x="908" y="1394"/>
      <point x="850" y="1468"/>
      <point x="747" y="1484" type="curve"/>
      <point x="742" y="1485"/>
      <point x="736" y="1485"/>
      <point x="730" y="1485" type="curve" smooth="yes"/>
      <point x="698" y="1485"/>
      <point x="658" y="1474"/>
      <point x="618" y="1439" type="curve" smooth="yes"/>
      <point x="578" y="1403"/>
      <point x="544" y="1348"/>
      <point x="528" y="1275" type="curve"/>
    </contour>
    <contour>
      <point x="970" y="0" type="line"/>
      <point x="981" y="180" type="line"/>
      <point x="1133" y="1063" type="line"/>
      <point x="1030" y="1098"/>
      <point x="912" y="1117"/>
      <point x="800" y="1117" type="curve" smooth="yes"/>
      <point x="405" y="1117"/>
      <point x="202" y="831"/>
      <point x="167" y="536" type="curve" smooth="yes"/>
      <point x="162" y="496"/>
      <point x="160" y="456"/>
      <point x="160" y="419" type="curve" smooth="yes"/>
      <point x="160" y="161"/>
      <point x="273" y="-17"/>
      <point x="462" y="-17" type="curve" smooth="yes"/>
      <point x="580" y="-17"/>
      <point x="625" y="3"/>
      <point x="681" y="49" type="curve"/>
      <point x="796" y="162" type="line"/>
      <point x="768" y="0" type="line"/>
    </contour>
    <contour>
      <point x="821" y="306" type="line"/>
      <point x="757" y="226"/>
      <point x="661" y="144"/>
      <point x="523" y="144" type="curve" smooth="yes"/>
      <point x="420" y="144"/>
      <point x="340" y="237"/>
      <point x="340" y="421" type="curve" smooth="yes"/>
      <point x="340" y="448"/>
      <point x="342" y="479"/>
      <point x="346" y="512" type="curve" smooth="yes"/>
      <point x="375" y="757"/>
      <point x="508" y="958"/>
      <point x="779" y="958" type="curve"/>
      <point x="798" y="957"/>
      <point x="817" y="956"/>
      <point x="835" y="953" type="curve"/>
      <point x="866" y="949"/>
      <point x="903" y="941"/>
      <point x="927" y="930" type="curve"/>
    </contour>
  </outline>
</glyph>
<glyph name="adieresis" format="2">
  <advance width="1300"/>
  <unicode hex="00E4"/>
  <outline>
    <contour>
      <point x="585" y="1300" type="line"/>
      <point x="785" y="1300" type="line"/>
      <point x="820" y="1500" type="line"/>
      <point x="620" y="1500" type="line"/>
    </contour>
    <contour>
      <point x="985" y="1300" type="line"/>
      <point x="1185" y="1300" type="line"/>
      <point x="1220" y="1500" type="line"/>
      <point x="1020" y="1500" type="line"/>
    </contour>
    <contour>
      <point x="970" y="0" type="line"/>
      <point x="981" y="180" type="line"/>
      <point x="1133" y="1063" type="line"/>
      <point x="1030" y="1098"/>
      <point x="912" y="1117"/>
      <point x="800" y="1117" type="curve" smooth="yes"/>
      <point x="405" y="1117"/>
      <point x="202" y="831"/>
      <point x="167" y="536" type="curve" smooth="yes"/>
      <point x="162" y="496"/>
      <point x="160" y="456"/>
      <point x="160" y="419" type="curve" smooth="yes"/>
      <point x="160" y="161"/>
      <point x="273" y="-17"/>
      <point x="462" y="-17" type="curve" smooth="yes"/>
      <point x="580" y="-17"/>
      <point x="625" y="3"/>
      <point x="681" y="49" type="curve"/>
      <point x="796" y="162" type="line"/>
      <point x="768" y="0" type="line"/>
    </contour>
    <contour>
      <point x="821" y="306" type="line"/>
      <point x="757" y="226"/>
      <point x="661" y="144"/>
      <point x="523" y="144" type="curve" smooth="yes"/>
      <point x="420" y="144"/>
      <point x="340" y="237"/>
      <point x="340" y="421" type="curve" smooth="yes"/>
      <point x="340" y="448"/>
      <point x="342" y="479"/>
      <point x="346" y="512" type="curve" smooth="yes"/>
      <point x="375" y="757"/>
      <point x="508" y="958"/>
      <point x="779" y="958" type="curve"/>
      <point x="798" y="957"/>
      <point x="817" y="956"/>
      <point x="835" y="953" type="curve" smooth="yes"/>
      <point x="866" y="949"/>
      <point x="903" y="941"/>
      <point x="927" y="930" type="curve"/>
    </contour>
  </outline>
</glyph>
<glyph name="aring" format="2">
  <advance width="1300"/>
  <unicode hex="00E5"/>
  <outline>
    <contour>
      <point x="944" y="1636" type="curve" smooth="yes"/>
      <point x="933" y="1638"/>
      <point x="923" y="1639"/>
      <point x="912" y="1639" type="curve" smooth="yes"/>
      <point x="865" y="1639"/>
      <point x="807" y="1621"/>
      <point x="755" y="1576" type="curve" smooth="yes"/>
      <point x="703" y="1531"/>
      <point x="668" y="1466"/>
      <point x="664" y="1399" type="curve"/>
      <point x="663" y="1394"/>
      <point x="663" y="1388"/>
      <point x="663" y="1383" type="curve" smooth="yes"/>
      <point x="663" y="1280"/>
      <point x="740" y="1161"/>
      <point x="862" y="1158" type="curve"/>
      <point x="873" y="1158" type="line" smooth="yes"/>
      <point x="994" y="1158"/>
      <point x="1131" y="1243"/>
      <point x="1139" y="1399" type="curve"/>
      <point x="1139" y="1411" type="line" smooth="yes"/>
      <point x="1139" y="1513"/>
      <point x="1077" y="1614"/>
    </contour>
    <contour>
      <point x="881" y="1275" type="curve"/>
      <point x="816" y="1289"/>
      <point x="783" y="1330"/>
      <point x="781" y="1398" type="curve"/>
      <point x="781" y="1402" type="line" smooth="yes"/>
      <point x="781" y="1434"/>
      <point x="798" y="1466"/>
      <point x="826" y="1490" type="curve" smooth="yes"/>
      <point x="853" y="1513"/>
      <point x="883" y="1521"/>
      <point x="904" y="1521" type="curve" smooth="yes"/>
      <point x="910" y="1521"/>
      <point x="916" y="1520"/>
      <point x="923" y="1519" type="curve"/>
      <point x="990" y="1506"/>
      <point x="1019" y="1467"/>
      <point x="1023" y="1398" type="curve"/>
      <point x="1023" y="1390" type="line" smooth="yes"/>
      <point x="1023" y="1355"/>
      <point x="1006" y="1323"/>
      <point x="978" y="1301" type="curve" smooth="yes"/>
      <point x="949" y="1279"/>
      <point x="921" y="1273"/>
      <point x="901" y="1273" type="curve" smooth="yes"/>
      <point x="894" y="1273"/>
      <point x="888" y="1274"/>
    </contour>
    <contour>
      <point x="970" y="0" type="line"/>
      <point x="981" y="180" type="line"/>
      <point x="1133" y="1063" type="line"/>
      <point x="1030" y="1098"/>
      <point x="912" y="1117"/>
      <point x="800" y="1117" type="curve" smooth="yes"/>
      <point x="405" y="1117"/>
      <point x="202" y="831"/>
      <point x="167" y="536" type="curve" smooth="yes"/>
      <point x="162" y="496"/>
      <point x="160" y="456"/>
      <point x="160" y="419" type="curve" smooth="yes"/>
      <point x="160" y="161"/>
      <point x="273" y="-17"/>
      <point x="462" y="-17" type="curve" smooth="yes"/>
      <point x="580" y="-17"/>
      <point x="625" y="3"/>
      <point x="681" y="49" type="curve"/>
      <point x="796" y="162" type="line"/>
      <point x="768" y="0" type="line"/>
    </contour>
    <contour>
      <point x="821" y="306" type="line"/>
      <point x="757" y="226"/>
      <point x="661" y="144"/>
      <point x="523" y="144" type="curve" smooth="yes"/>
      <point x="420" y="144"/>
      <point x="340" y="237"/>
      <point x="340" y="421" type="curve" smooth="yes"/>
      <point x="340" y="448"/>
      <point x="342" y="479"/>
      <point x="346" y="512" type="curve" smooth="yes"/>
      <point x="375" y="757"/>
      <point x="508" y="958"/>
      <point x="779" y="958" type="curve"/>
      <point x="798" y="957"/>
      <point x="817" y="956"/>
      <point x="835" y="953" type="curve"/>
      <point x="866" y="949"/>
      <point x="903" y="941"/>
      <point x="927" y="930" type="curve"/>
    </contour>
  </outline>
</glyph>
<glyph name="iacute" format="2">
  <advance width="1300"/>
  <unicode hex="00ED"/>
  <outline>
    <contour>
      <point x="756" y="1100" type="line"/>
      <point x="250" y="1100" type="line"/>
      <point x="250" y="955" type="line"/>
      <point x="489" y="955" type="line"/>
      <point x="544" y="977" type="line"/>
      <point x="443" y="403" type="line" smooth="yes"/>
      <point x="401" y="165"/>
      <point x="418" y="-17"/>
      <point x="679" y="-17" type="curve" smooth="yes"/>
      <point x="855" y="-17"/>
      <point x="995" y="48"/>
      <point x="1012" y="56" type="curve"/>
      <point x="1000" y="210" type="line"/>
      <point x="984" y="205"/>
      <point x="851" y="153"/>
      <point x="719" y="153" type="curve" smooth="yes"/>
      <point x="620" y="153"/>
      <point x="607" y="254"/>
      <point x="631" y="393" type="curve" smooth="yes"/>
    </contour>
    <contour>
      <point x="634" y="1200" type="line"/>
      <point x="784" y="1200" type="line"/>
      <point x="1081" y="1520" type="line"/>
      <point x="847" y="1500" type="line"/>
    </contour>
  </outline>
</glyph>
<glyph name="icircumflex" format="2">
  <advance width="1300"/>
  <unicode hex="00EE"/>
  <outline>
    <contour>
      <point x="756" y="1100" type="line"/>
      <point x="250" y="1100" type="line"/>
      <point x="250" y="955" type="line"/>
      <point x="489" y="955" type="line"/>
      <point x="544" y="977" type="line"/>
      <point x="443" y="403" type="line" smooth="yes"/>
      <point x="401" y="165"/>
      <point x="418" y="-17"/>
      <point x="679" y="-17" type="curve" smooth="yes"/>
      <point x="855" y="-17"/>
      <point x="995" y="48"/>
      <point x="1012" y="56" type="curve"/>
      <point x="1000" y="210" type="line"/>
      <point x="984" y="205"/>
      <point x="851" y="153"/>
      <point x="719" y="153" type="curve" smooth="yes"/>
      <point x="620" y="153"/>
      <point x="607" y="254"/>
      <point x="631" y="393" type="curve" smooth="yes"/>
    </contour>
    <contour>
      <point x="806" y="1520" type="line"/>
      <point x="602" y="1500" type="line"/>
      <point x="377" y="1220" type="line"/>
      <point x="527" y="1220" type="line"/>
      <point x="655" y="1373" type="line"/>
      <point x="700" y="1460" type="line"/>
      <point x="714" y="1372" type="line"/>
      <point x="788" y="1220" type="line"/>
      <point x="938" y="1220" type="line"/>
    </contour>
  </outline>
</glyph>
<glyph name="idieresis" format="2">
  <advance width="1300"/>
  <unicode hex="00EF"/>
  <outline>
    <contour>
      <point x="756" y="1100" type="line"/>
      <point x="250" y="1100" type="line"/>
      <point x="250" y="955" type="line"/>
      <point x="489" y="955" type="line"/>
      <point x="544" y="977" type="line"/>
      <point x="443" y="403" type="line" smooth="yes"/>
      <point x="401" y="165"/>
      <point x="418" y="-17"/>
      <point x="679" y="-17" type="curve" smooth="yes"/>
      <point x="855" y="-17"/>
      <point x="995" y="48"/>
      <point x="1012" y="56" type="curve"/>
      <point x="1000" y="210" type="line"/>
      <point x="984" y="205"/>
      <point x="851" y="153"/>
      <point x="719" y="153" type="curve" smooth="yes"/>
      <point x="620" y="153"/>
      <point x="607" y="254"/>
      <point x="631" y="393" type="curve" smooth="yes"/>
    </contour>
    <contour>
      <point x="400" y="1300" type="line"/>
      <point x="600" y="1300" type="line"/>
      <point x="635" y="1500" type="line"/>
      <point x="435" y="1500" type="line"/>
    </contour>
    <contour>
      <point x="800" y="1300" type="line"/>
      <point x="1000" y="1300" type="line"/>
      <point x="1035" y="1500" type="line"/>
      <point x="835" y="1500" type="line"/>
    </contour>
  </outline>
</glyph>
<glyph name="ntilde" format="2">
  <advance width="1300"/>
  <unicode hex="00F1"/>
  <outline>
    <contour>
      <point x="585" y="1272" type="line"/>
      <point x="605" y="1332"/>
      <point x="640" y="1353"/>
      <point x="691" y="1360" type="curve" smooth="yes"/>
      <point x="698" y="1361"/>
      <point x="706" y="1362"/>
      <point x="713" y="1362" type="curve" smooth="yes"/>
      <point x="745" y="1362"/>
      <point x="781" y="1349"/>
      <point x="821" y="1326" type="curve" smooth="yes"/>
      <point x="860" y="1303"/>
      <point x="897" y="1278"/>
      <point x="934" y="1271" type="curve" smooth="yes"/>
      <point x="942" y="1270"/>
      <point x="950" y="1269"/>
      <point x="957" y="1269" type="curve" smooth="yes"/>
      <point x="994" y="1269"/>
      <point x="1041" y="1286"/>
      <point x="1085" y="1329" type="curve" smooth="yes"/>
      <point x="1128" y="1372"/>
      <point x="1161" y="1434"/>
      <point x="1169" y="1498" type="curve"/>
      <point x="1074" y="1501" type="line"/>
      <point x="1064" y="1457"/>
      <point x="1038" y="1394"/>
      <point x="963" y="1394" type="curve" smooth="yes"/>
      <point x="880" y="1394"/>
      <point x="822" y="1468"/>
      <point x="719" y="1484" type="curve" smooth="yes"/>
      <point x="714" y="1485"/>
      <point x="708" y="1485"/>
      <point x="702" y="1485" type="curve" smooth="yes"/>
      <point x="670" y="1485"/>
      <point x="630" y="1474"/>
      <point x="590" y="1439" type="curve" smooth="yes"/>
      <point x="550" y="1403"/>
      <point x="516" y="1348"/>
      <point x="500" y="1275" type="curve"/>
    </contour>
    <contour>
      <point x="439" y="834" type="line"/>
      <point x="519" y="885"/>
      <point x="629" y="957"/>
      <point x="770" y="957" type="curve" smooth="yes"/>
      <point x="878" y="957"/>
      <point x="948" y="934"/>
      <point x="948" y="802" type="curve" smooth="yes"/>
      <point x="948" y="786"/>
      <point x="946" y="769"/>
      <point x="943" y="750" type="curve" smooth="yes"/>
      <point x="811" y="0" type="line"/>
      <point x="1001" y="0" type="line"/>
      <point x="1133" y="750" type="line" smooth="yes"/>
      <point x="1139" y="783"/>
      <point x="1142" y="814"/>
      <point x="1142" y="844" type="curve" smooth="yes"/>
      <point x="1142" y="1015"/>
      <point x="1046" y="1117"/>
      <point x="863" y="1117" type="curve" smooth="yes"/>
      <point x="690" y="1117"/>
      <point x="590" y="1076"/>
      <point x="537" y="1044" type="curve"/>
      <point x="455" y="927" type="line"/>
      <point x="489" y="1121" type="line"/>
      <point x="296" y="1100" type="line"/>
      <point x="102" y="0" type="line"/>
      <point x="292" y="0" type="line"/>
    </contour>
  </outline>
</glyph>
<glyph name="ograve" format="2">
  <advance width="1300"/>
  <unicode hex="00F2"/>
  <outline>
    <contour>
      <point x="722" y="1520" type="line"/>
      <point x="514" y="1500" type="line"/>
      <point x="686" y="1200" type="line"/>
      <point x="836" y="1200" type="line"/>
    </contour>
    <contour>
      <point x="567" y="-17" type="curve" smooth="yes"/>
      <point x="942" y="-17"/>
      <point x="1176" y="234"/>
      <point x="1176" y="631" type="curve" smooth="yes"/>
      <point x="1176" y="936"/>
      <point x="998" y="1117"/>
      <point x="726" y="1117" type="curve" smooth="yes"/>
      <point x="372" y="1117"/>
      <point x="124" y="854"/>
      <point x="124" y="473" type="curve" smooth="yes"/>
      <point x="124" y="177"/>
      <point x="303" y="-17"/>
    </contour>
    <contour>
      <point x="993" y="622" type="curve" smooth="yes"/>
      <point x="993" y="389"/>
      <point x="841" y="138"/>
      <point x="586" y="138" type="curve" smooth="yes"/>
      <point x="397" y="138"/>
      <point x="307" y="279"/>
      <point x="307" y="480" type="curve" smooth="yes"/>
      <point x="307" y="715"/>
      <point x="446" y="963"/>
      <point x="706" y="963" type="curve" smooth="yes"/>
      <point x="897" y="963"/>
      <point x="993" y="822"/>
    </contour>
  </outline>
</glyph>
<glyph name="oacute" format="2">
  <advance width="1300"/>
  <unicode hex="00F3"/>
  <outline>
    <contour>
      <point x="635" y="1200" type="line"/>
      <point x="785" y="1200" type="line"/>
      <point x="1082" y="1520" type="line"/>
      <point x="848" y="1500" type="line"/>
    </contour>
    <contour>
      <point x="567" y="-17" type="curve" smooth="yes"/>
      <point x="942" y="-17"/>
      <point x="1176" y="234"/>
      <point x="1176" y="631" type="curve" smooth="yes"/>
      <point x="1176" y="936"/>
      <point x="998" y="1117"/>
      <point x="726" y="1117" type="curve" smooth="yes"/>
      <point x="372" y="1117"/>
      <point x="124" y="854"/>
      <point x="124" y="473" type="curve" smooth="yes"/>
      <point x="124" y="177"/>
      <point x="303" y="-17"/>
    </contour>
    <contour>
      <point x="993" y="622" type="curve" smooth="yes"/>
      <point x="993" y="389"/>
      <point x="841" y="138"/>
      <point x="586" y="138" type="curve" smooth="yes"/>
      <point x="397" y="138"/>
      <point x="307" y="279"/>
      <point x="307" y="480" type="curve" smooth="yes"/>
      <point x="307" y="715"/>
      <point x="446" y="963"/>
      <point x="706" y="963" type="curve" smooth="yes"/>
      <point x="897" y="963"/>
      <point x="993" y="822"/>
    </contour>
  </outline>
</glyph>
<glyph name="ocircumflex" format="2">
  <advance width="1300"/>
  <unicode hex="00F4"/>
  <outline>
    <contour>
      <point x="863" y="1520" type="line"/>
      <point x="659" y="1500" type="line"/>
      <point x="434" y="1220" type="line"/>
      <point x="584" y="1220" type="line"/>
      <point x="712" y="1373" type="line"/>
      <point x="757" y="1460" type="line"/>
      <point x="771" y="1372" type="line"/>
      <point x="845" y="1220" type="line"/>
      <point x="995" y="1220" type="line"/>
    </contour>
    <contour>
      <point x="567" y="-17" type="curve" smooth="yes"/>
      <point x="942" y="-17"/>
      <point x="1176" y="234"/>
      <point x="1176" y="631" type="curve" smooth="yes"/>
      <point x="1176" y="936"/>
      <point x="998" y="1117"/>
      <point x="726" y="1117" type="curve" smooth="yes"/>
      <point x="372" y="1117"/>
      <point x="124" y="854"/>
      <point x="124" y="473" type="curve" smooth="yes"/>
      <point x="124" y="177"/>
      <point x="303" y="-17"/>
    </contour>
    <contour>
      <point x="993" y="622" type="curve" smooth="yes"/>
      <point x="993" y="389"/>
      <point x="841" y="138"/>
      <point x="586" y="138" type="curve" smooth="yes"/>
      <point x="397" y="138"/>
      <point x="307" y="279"/>
      <point x="307" y="480" type="curve" smooth="yes"/>
      <point x="307" y="715"/>
      <point x="446" y="963"/>
      <point x="706" y="963" type="curve" smooth="yes"/>
      <point x="897" y="963"/>
      <point x="993" y="822"/>
    </contour>
  </outline>
</glyph>
<glyph name="otilde" format="2">
  <advance width="1300"/>
  <unicode hex="00F5"/>
  <outline>
    <contour>
      <point x="495" y="1272" type="line"/>
      <point x="515" y="1332"/>
      <point x="550" y="1353"/>
      <point x="601" y="1360" type="curve" smooth="yes"/>
      <point x="608" y="1361"/>
      <point x="616" y="1362"/>
      <point x="623" y="1362" type="curve" smooth="yes"/>
      <point x="655" y="1362"/>
      <point x="691" y="1349"/>
      <point x="731" y="1326" type="curve" smooth="yes"/>
      <point x="770" y="1303"/>
      <point x="807" y="1278"/>
      <point x="844" y="1271" type="curve" smooth="yes"/>
      <point x="852" y="1270"/>
      <point x="860" y="1269"/>
      <point x="867" y="1269" type="curve" smooth="yes"/>
      <point x="904" y="1269"/>
      <point x="951" y="1286"/>
      <point x="995" y="1329" type="curve" smooth="yes"/>
      <point x="1038" y="1372"/>
      <point x="1071" y="1434"/>
      <point x="1079" y="1498" type="curve"/>
      <point x="984" y="1501" type="line"/>
      <point x="974" y="1457"/>
      <point x="948" y="1394"/>
      <point x="873" y="1394" type="curve" smooth="yes"/>
      <point x="790" y="1394"/>
      <point x="732" y="1468"/>
      <point x="629" y="1484" type="curve" smooth="yes"/>
      <point x="624" y="1485"/>
      <point x="618" y="1485"/>
      <point x="612" y="1485" type="curve" smooth="yes"/>
      <point x="580" y="1485"/>
      <point x="540" y="1474"/>
      <point x="500" y="1439" type="curve" smooth="yes"/>
      <point x="460" y="1403"/>
      <point x="426" y="1348"/>
      <point x="410" y="1275" type="curve"/>
    </contour>
    <contour>
      <point x="567" y="-17" type="curve" smooth="yes"/>
      <point x="942" y="-17"/>
      <point x="1176" y="234"/>
      <point x="1176" y="631" type="curve" smooth="yes"/>
      <point x="1176" y="936"/>
      <point x="998" y="1117"/>
      <point x="726" y="1117" type="curve" smooth="yes"/>
      <point x="372" y="1117"/>
      <point x="124" y="854"/>
      <point x="124" y="473" type="curve" smooth="yes"/>
      <point x="124" y="177"/>
      <point x="303" y="-17"/>
    </contour>
    <contour>
      <point x="993" y="622" type="curve" smooth="yes"/>
      <point x="993" y="389"/>
      <point x="841" y="138"/>
      <point x="586" y="138" type="curve" smooth="yes"/>
      <point x="397" y="138"/>
      <point x="307" y="279"/>
      <point x="307" y="480" type="curve" smooth="yes"/>
      <point x="307" y="715"/>
      <point x="446" y="963"/>
      <point x="706" y="963" type="curve" smooth="yes"/>
      <point x="897" y="963"/>
      <point x="993" y="822"/>
    </contour>
  </outline>
</glyph>
<glyph name="divide" format="2">
  <advance width="1300"/>
  <unicode hex="00F7"/>
  <outline>
    <contour>
      <point x="585" y="961" type="curve"/>
      <point x="584" y="952"/>
      <point x="583" y="944"/>
      <point x="583" y="935" type="curve" smooth="yes"/>
      <point x="583" y="912"/>
      <point x="587" y="882"/>
      <point x="610" y="855" type="curve" smooth="yes"/>
      <point x="633" y="828"/>
      <point x="667" y="811"/>
      <point x="708" y="811" type="curve" smooth="yes"/>
      <point x="788" y="811"/>
      <point x="868" y="878"/>
      <point x="881" y="961" type="curve"/>
      <point x="883" y="970"/>
      <point x="884" y="979"/>
      <point x="884" y="988" type="curve" smooth="yes"/>
      <point x="884" y="1009"/>
      <point x="878" y="1039"/>
      <point x="856" y="1066" type="curve" smooth="yes"/>
      <point x="834" y="1093"/>
      <point x="800" y="1109"/>
      <point x="759" y="1109" type="curve" smooth="yes"/>
      <point x="677" y="1109"/>
      <point x="601" y="1044"/>
    </contour>
    <contour>
      <point x="200" y="545" type="line"/>
      <point x="1100" y="545" type="line"/>
      <point x="1100" y="700" type="line"/>
      <point x="200" y="700" type="line"/>
    </contour>
    <contour>
      <point x="471" y="346" type="curve"/>
      <point x="470" y="337"/>
      <point x="469" y="329"/>
      <point x="469" y="320" type="curve" smooth="yes"/>
      <point x="469" y="297"/>
      <point x="473" y="267"/>
      <point x="496" y="240" type="curve" smooth="yes"/>
      <point x="519" y="213"/>
      <point x="553" y="196"/>
      <point x="594" y="196" type="curve" smooth="yes"/>
      <point x="674" y="196"/>
      <point x="754" y="263"/>
      <point x="767" y="346" type="curve"/>
      <point x="769" y="355"/>
      <point x="770" y="364"/>
      <point x="770" y="373" type="curve" smooth="yes"/>
      <point x="770" y="394"/>
      <point x="764" y="424"/>
      <point x="742" y="451" type="curve" smooth="yes"/>
      <point x="720" y="478"/>
      <point x="686" y="494"/>
      <point x="645" y="494" type="curve" smooth="yes"/>
      <point x="563" y="494"/>
      <point x="487" y="429"/>
    </contour>
  </outline>
</glyph>
